<svg width="362" height="362" viewBox="0 0 362 362" fill="none" xmlns="http://www.w3.org/2000/svg">
<g clip-path="url(#clip0_7_7801)">
<path d="M77.8476 35.7525C77.6795 35.5 77.5954 35.2476 77.5113 34.9951C77.7635 34.7427 78.0157 34.4061 78.268 34.0695C78.6883 34.322 79.0246 34.4903 79.3608 34.6586C79.7812 34.322 80.2856 34.0695 80.7059 33.7329C96.0065 23.0463 112.484 14.7999 130.307 9.0779C138.293 6.46934 146.532 4.53396 154.771 3.18761C159.815 2.34614 164.859 1.75712 169.903 1.42053C176.292 0.999794 182.681 0.8315 188.986 1.08394C192.854 1.25223 196.721 1.42053 200.588 1.84126C208.154 2.51444 215.72 3.77664 223.118 5.45958C239.26 9.0779 254.644 14.7999 269.272 22.7097C275.577 26.0756 281.546 29.8622 287.347 33.9854C287.683 34.2378 288.019 34.4061 288.356 34.6586C288.608 34.5744 288.944 34.322 289.196 34.4061C289.533 34.4061 289.785 34.6586 290.121 34.8269C290.037 35.1634 290.037 35.4159 289.953 35.7525C290.205 36.2573 290.71 36.5098 291.13 36.8464C304.077 46.6074 315.51 57.9672 325.262 71.01C339.385 89.6906 349.39 110.475 355.527 133.11C357.46 140.263 358.889 147.5 359.898 154.736C360.487 158.859 360.907 163.067 361.243 167.19C361.748 173.333 361.832 179.56 361.748 185.702C361.664 191.172 361.243 196.641 360.655 202.111C359.478 212.798 357.208 223.316 354.098 233.666C353.761 234.844 353.425 235.938 353.089 237.116C349.558 247.634 345.27 257.816 339.974 267.493C336.947 272.963 333.753 278.264 330.222 283.397C326.775 288.446 323.076 293.326 319.125 298.038C310.718 307.968 301.47 316.971 291.214 324.965C271.29 340.448 249.096 351.387 224.632 357.614C218.915 359.045 213.114 360.223 207.229 361.064C196.889 362.579 186.548 363.084 176.124 362.747C172.509 362.663 168.978 362.327 165.363 361.906C159.562 361.317 153.846 360.307 148.129 359.045C136.444 356.436 125.178 352.566 114.249 347.685C102.228 342.215 90.7942 335.568 80.1175 327.742C56.9145 310.829 37.915 290.044 23.3711 265.137C15.2164 251.084 8.91124 236.19 4.87594 220.371C3.3627 214.565 2.26981 208.674 1.34505 202.784C-5.02542e-05 193.696 -0.336325 184.608 -5.03063e-05 175.52C0.168087 170.303 0.6725 165.17 1.34505 160.037C3.02642 147.163 6.22104 134.625 10.8448 122.424C18.4951 102.144 29.424 83.8845 43.4635 67.3917C53.2995 55.7794 64.3966 45.5135 76.5866 36.4256C76.8388 36.2573 77.1751 36.0049 77.4273 35.8366C77.5954 36.0049 77.6795 35.9208 77.8476 35.7525ZM49.6005 222.979C43.2954 225.504 37.0743 227.86 30.9372 230.3C30.7691 230.384 30.601 230.468 30.4328 230.553C30.3488 230.553 30.3488 230.637 30.3488 230.637C30.3488 230.637 30.2647 230.721 30.2647 230.889C30.4328 231.31 30.601 231.731 30.7691 232.151C32.2823 235.517 33.6274 238.883 35.2248 242.081C48.3395 268.755 66.7505 291.054 90.1216 309.398C90.4579 309.651 90.7942 309.819 91.1305 310.071C91.3827 309.903 91.5508 309.735 91.7189 309.566C96.1746 304.854 100.63 300.142 105.086 295.43C105.254 295.262 105.338 295.009 105.506 294.757C80.7059 275.655 61.7064 252.094 49.6005 222.979ZM51.0297 222.39C56.9145 236.864 64.7329 249.906 74.2327 262.023C83.6484 273.972 94.4091 284.575 106.515 293.831C106.767 293.579 107.019 293.41 107.272 293.242C107.86 292.653 108.449 292.064 109.037 291.391C113.241 287.183 117.444 282.976 121.647 278.853C121.984 278.516 122.488 278.18 122.74 277.591C122.32 277.254 121.9 276.917 121.479 276.581C109.962 267.661 99.8736 257.395 91.2986 245.699C84.1528 236.022 78.1839 225.756 73.6442 214.565C73.476 214.144 73.2238 213.807 73.0557 213.387C65.5736 216.332 58.4277 219.361 51.0297 222.39ZM50.6934 131.343C50.6093 131.512 50.4412 131.596 50.4412 131.764C50.2731 132.185 50.1049 132.69 49.9368 133.195C45.4811 145.48 42.7909 158.018 42.0343 171.061C41.7821 176.11 41.7821 181.242 42.2025 186.291C42.6228 191.845 43.5476 197.399 44.8086 202.784C46.1537 208.506 47.8351 214.144 49.9368 219.613C50.1049 220.034 50.2731 220.371 50.4412 220.792C50.6934 220.792 50.7775 220.876 50.8615 220.792C53.1314 219.866 55.4013 218.94 57.6711 218.015C62.463 215.995 67.255 213.976 72.1309 211.956C72.215 211.956 72.215 211.872 72.215 211.872C72.215 211.872 72.2991 211.788 72.2991 211.62C72.215 211.283 72.0469 210.862 71.8787 210.441C70.5336 206.739 69.2726 202.868 68.2638 199.082C66.4143 192.097 65.2373 184.945 64.901 177.708C64.6488 172.323 64.8169 166.938 65.3214 161.552C65.9939 155.073 67.1709 148.762 68.8523 142.451C69.777 139.085 70.8699 135.803 71.9628 132.437C72.0469 132.101 72.2991 131.848 72.0469 131.512C64.9851 131.512 57.8392 131.427 50.6934 131.343ZM29.6762 129.745C29.2559 130.081 29.1718 130.586 29.0877 131.007C27.9108 134.625 26.6497 138.159 25.6409 141.778C22.5304 152.548 20.6809 163.572 20.1764 174.763C19.8402 183.01 20.2605 191.172 21.5215 199.334C23.0348 209.179 25.6409 218.688 29.0877 228.028C29.2559 228.365 29.424 228.701 29.5921 229.038C31.1895 228.701 41.0255 224.915 48.1713 221.885C48.5076 221.717 48.7598 221.549 49.0961 221.381C48.928 220.96 48.8439 220.539 48.6758 220.202C45.9015 212.966 43.7998 205.561 42.3706 197.988C41.2777 192.013 40.6052 185.955 40.437 179.896C40.3529 174.258 40.6052 168.62 41.2777 163.067C42.0343 156.503 43.2954 150.024 45.0608 143.545C46.0696 139.758 47.3307 135.971 48.6758 132.269C48.8439 131.932 49.0961 131.596 48.7598 131.175C42.3706 130.754 35.9814 130.249 29.6762 129.745ZM141.488 259.415C140.983 258.994 140.479 258.573 139.974 258.237C127.532 248.644 117.108 237.284 108.701 223.989C104.666 217.594 101.303 210.946 98.5285 203.878C98.3604 203.457 98.2763 202.952 97.7719 202.532C97.4356 202.7 97.0153 202.868 96.679 203.037C94.7454 203.878 92.8118 204.719 90.9623 205.561C85.8341 207.749 80.7059 209.937 75.5778 212.209C75.1574 212.377 74.653 212.377 74.4849 212.966C74.5689 213.218 74.7371 213.555 74.8211 213.891C75.4937 215.574 76.1662 217.173 76.9229 218.856C87.5155 241.828 103.152 260.677 123.161 276.076C123.413 276.244 123.665 276.413 123.917 276.581C129.634 271.027 135.351 265.558 141.067 260.088C141.235 259.836 141.32 259.667 141.488 259.415ZM11.9377 237.453C12.1899 238.126 12.3581 238.547 12.5262 239.051C15.2164 246.12 18.411 253.02 22.026 259.667C31.6098 277.338 43.6316 293.074 57.9233 307.126C63.8922 313.017 70.1973 318.486 76.8388 323.535C77.2591 323.871 77.6795 324.292 78.1839 324.376C78.352 324.208 78.5202 324.124 78.6042 323.956C82.1351 320.001 85.7501 316.046 89.281 312.007C89.4491 311.754 89.6172 311.502 89.7854 311.249C62.6312 289.876 41.7821 263.538 28.5833 231.226C23.0348 233.329 17.5703 235.349 11.9377 237.453ZM97.6878 130.502C97.0993 130.502 96.5949 130.502 96.0905 130.502C95.1658 130.586 94.3251 130.67 93.4003 130.67C87.3474 130.923 81.3785 131.091 75.3255 131.343C74.9052 131.343 74.5689 131.427 74.0645 131.427C73.8123 131.932 73.6442 132.437 73.476 132.942C72.2991 136.224 71.2062 139.506 70.2814 142.871C68.0116 151.37 66.6665 160.037 66.3302 168.789C66.078 176.446 66.6665 184.019 68.0956 191.508C69.3567 197.819 71.038 204.046 73.3079 210.021C73.392 210.357 73.6442 210.61 73.7282 210.946C74.0645 210.862 74.3167 210.778 74.4849 210.694C81.7988 207.496 89.1128 204.383 96.4268 201.185C96.679 201.101 96.9312 200.849 97.1834 200.68C96.7631 199.418 96.3427 198.24 96.0065 197.062C92.6437 186.46 90.8783 175.689 91.1305 164.581C91.1305 162.898 91.2986 161.215 91.3827 159.533C91.6349 155.83 92.1393 152.128 92.7278 148.425C93.7366 142.703 95.2498 137.065 97.1834 131.512C97.4356 131.343 97.5197 131.007 97.6878 130.502ZM28.0789 229.795C27.9108 229.29 27.8267 228.954 27.6586 228.617C24.2958 219.613 21.7738 210.441 20.1764 201.017C19.3358 195.968 18.7473 190.919 18.5791 185.871C18.3269 178.129 18.6632 170.303 19.672 162.646C20.4287 156.924 21.5215 151.37 22.9507 145.817C24.2117 140.768 25.725 135.803 27.4904 130.923C27.6586 130.502 27.9948 130.081 27.7426 129.492C27.4904 129.408 27.3223 129.324 27.0701 129.324C22.11 128.735 17.234 127.977 12.3581 126.968C11.9377 126.884 11.6014 126.884 11.097 126.884C10.9289 127.473 10.6767 127.977 10.5085 128.482C5.29628 143.797 2.26981 159.533 1.59726 175.773C1.26098 184.44 1.59726 193.107 2.77422 201.69C3.53084 207.412 4.62373 212.966 5.96883 218.52C7.31393 223.989 8.91124 229.375 10.8448 234.676C11.013 235.096 11.013 235.686 11.6014 235.938C17.0659 234.003 22.5304 231.983 28.0789 229.795ZM106.767 295.935C106.431 296.187 106.263 296.355 106.095 296.524C101.639 301.152 97.2675 305.864 92.8118 310.492C92.6437 310.66 92.4756 310.997 92.3074 311.249C92.7278 311.586 92.98 311.838 93.3163 312.007C101.387 317.981 109.878 323.367 118.957 327.911C135.014 336.073 151.996 341.458 169.987 343.225C173.77 343.562 177.553 343.814 181.336 343.814C181.588 343.814 181.925 343.73 182.261 343.73C182.597 342.215 182.849 340.785 183.102 339.27C183.438 337.756 183.774 336.241 184.111 334.726C184.447 333.296 184.783 331.781 185.203 330.351C185.54 328.836 186.044 327.406 186.38 325.807C185.96 325.723 185.624 325.639 185.287 325.639C183.018 325.47 180.832 325.302 178.562 325.134C174.695 324.881 170.828 324.208 167.045 323.535C158.217 321.768 149.558 319.159 141.235 315.625C129.55 310.745 118.705 304.434 108.449 297.029C107.944 296.776 107.356 296.355 106.767 295.935ZM181.757 361.317C194.703 361.822 216.141 359.55 236.653 352.65C255.401 346.423 272.635 337.251 288.44 325.302C288.356 325.05 288.356 324.797 288.356 324.629C286.59 319.748 285.077 314.784 283.648 309.819C283.564 309.651 283.396 309.398 283.228 309.146C282.723 309.566 282.303 309.819 281.798 310.156C270.449 318.907 258.259 326.143 245.144 331.781C225.893 340.112 205.884 344.656 184.867 345.161C184.447 345.161 183.942 345.245 183.438 345.245C182.849 347.769 182.597 350.294 182.345 352.818C182.093 355.679 181.925 358.456 181.757 361.317ZM124.085 190.919C115.763 194.622 107.608 198.24 99.5373 201.774C99.7896 203.457 101.723 208.001 104.413 213.218C110.55 225.251 118.453 236.022 127.953 245.615C132.913 250.58 140.647 257.143 142.917 258.321C143.253 258.069 143.589 257.732 143.926 257.48C145.103 256.386 146.195 255.292 147.372 254.198C151.912 249.906 156.452 245.615 160.908 241.323C161.244 240.987 161.748 240.734 161.832 240.145C160.571 239.136 159.31 238.21 158.049 237.2C156.788 236.19 155.527 235.096 154.266 234.087C153.089 233.077 151.912 231.983 150.735 230.889C149.558 229.795 148.465 228.701 147.372 227.523C146.195 226.345 145.103 225.167 144.01 223.905C142.917 222.727 141.908 221.465 140.899 220.287C139.89 219.024 138.882 217.762 137.957 216.5C137.032 215.238 136.107 213.891 135.182 212.545C134.258 211.199 133.417 209.768 132.576 208.422C131.736 207.076 130.979 205.645 130.222 204.299C129.466 202.868 128.709 201.438 128.037 200.007C127.364 198.493 126.692 196.978 126.019 195.547C125.262 194.033 124.758 192.518 124.085 190.919ZM79.1927 36.7622C78.7724 37.0147 78.352 37.2671 78.0157 37.6037C56.9986 53.0867 39.6804 71.9356 26.3135 94.3187C20.6809 103.659 15.973 113.42 12.1899 123.602C12.0218 124.107 11.6855 124.612 11.7696 125.116C14.2916 125.958 26.5657 127.893 28.6674 127.725C29.2559 126.379 29.7603 124.948 30.3488 123.518C30.9372 122.171 31.5257 120.741 32.1142 119.394C32.7868 117.964 33.3752 116.618 34.0478 115.187C34.7203 113.841 35.3929 112.494 36.0654 111.148C36.738 109.802 37.4946 108.371 38.2512 107.025C39.0078 105.679 39.6804 104.416 40.437 103.154C41.1936 101.808 42.0343 100.461 42.7909 99.1992C43.6316 97.8529 44.3882 96.5907 45.2289 95.2443C46.0696 93.9821 46.9103 92.7199 47.751 91.5419C48.5917 90.2797 49.5164 89.0175 50.4412 87.7552C51.2819 86.5772 52.2066 85.315 53.1314 84.1369C54.0562 82.8747 54.9809 81.6967 55.9897 80.5186C56.9145 79.3406 57.8392 78.1625 58.8481 77.0686C59.8569 75.8905 60.8657 74.7125 61.8745 73.5344C62.8834 72.4405 63.8922 71.3466 64.901 70.2527C65.9939 69.1588 67.0027 67.9807 68.0956 66.8868C69.1885 65.7929 70.2814 64.699 71.3743 63.6051C72.4672 62.5953 73.5601 61.5014 74.653 60.4917C75.7459 59.4819 76.9229 58.388 78.0998 57.3782C79.1927 56.3685 80.3697 55.4428 81.4626 54.4331C82.6395 53.4233 83.8165 52.4977 85.0775 51.4879C86.2545 50.5623 87.4314 49.6367 88.6084 48.7111C89.7854 47.7855 91.1305 46.944 92.2234 45.9342C87.8518 42.905 83.5643 39.8757 79.1927 36.7622ZM107.944 294.925C108.449 295.346 108.869 295.682 109.289 295.935C113.325 298.88 117.528 301.657 121.9 304.265C135.098 312.175 149.138 318.149 164.186 321.515C171.332 323.114 178.562 324.04 185.96 324.208C186.212 324.208 186.548 324.208 186.801 324.124C186.885 323.956 187.053 323.956 187.053 323.871C189.071 317.476 191.256 311.249 193.778 305.023C193.778 304.938 193.778 304.854 193.778 304.686C193.61 304.686 193.442 304.602 193.274 304.602C192.097 304.518 191.004 304.434 189.827 304.349C185.624 304.097 181.42 303.508 177.217 302.666C167.633 300.815 158.385 297.702 149.474 293.579C141.067 289.708 133.165 284.996 125.683 279.61C125.178 279.274 124.758 278.853 124.254 278.685C122.656 279.779 109.037 293.41 107.944 294.925ZM180.243 361.401C180.327 359.97 180.496 358.624 180.58 357.362C180.664 356.016 180.832 354.669 180.916 353.323C181.084 352.061 181.252 350.798 181.42 349.452C181.504 348.106 181.925 346.844 181.841 345.413C181.336 345.413 180.832 345.329 180.327 345.329C175.704 345.329 171.164 344.992 166.624 344.403C160.908 343.73 155.191 342.636 149.642 341.206C137.789 338.176 126.607 333.717 115.763 327.995C107.692 323.703 100.042 318.823 92.6437 313.437C92.1393 313.101 91.7189 312.68 91.2145 312.427C90.9623 312.596 90.8783 312.764 90.7101 312.848C87.0111 316.971 83.3121 321.095 79.6971 325.218C79.6971 325.218 79.6131 325.302 79.6131 325.386C79.6131 325.47 79.6131 325.47 79.6971 325.639C79.9493 325.891 80.2856 326.143 80.7059 326.396C82.2192 327.49 83.8165 328.584 85.3297 329.678C102.228 341.29 120.386 350.125 140.143 355.595C146.364 357.362 152.585 358.708 158.974 359.634C162.337 360.139 165.784 360.644 169.23 360.812C172.425 361.064 175.62 361.149 178.814 361.317C179.15 361.485 179.655 361.401 180.243 361.401ZM49.5164 129.66C61.7905 99.1151 81.6307 74.5442 108.449 55.4428C107.188 54.6855 105.927 54.0965 104.75 53.3392C103.489 52.666 102.228 51.9087 100.967 51.2355C99.7896 50.5623 98.5285 49.805 97.3516 49.1318C96.0905 48.4586 94.9976 47.533 93.6525 46.944C93.064 47.3647 92.5596 47.7013 92.0552 48.1221C70.1973 64.11 52.627 83.9686 39.5963 107.782C36.2336 113.925 33.2912 120.236 30.685 126.715C30.5169 127.136 30.2647 127.557 30.2647 128.23C36.738 128.903 43.1272 129.492 49.5164 129.66ZM123.497 189.405C122.824 187.133 122.152 184.945 121.563 182.757C120.975 180.569 120.47 178.297 120.05 176.025C119.63 173.753 119.294 171.481 119.041 169.209C118.789 166.937 118.705 164.666 118.621 162.309C118.537 160.037 118.621 157.681 118.705 155.409C118.789 153.137 119.041 150.865 119.378 148.593C119.714 146.321 120.05 144.05 120.555 141.862C121.059 139.59 121.647 137.402 122.236 135.214C122.824 133.026 123.581 130.838 124.338 128.567C123.833 128.567 123.413 128.567 123.077 128.567C120.555 128.735 118.117 128.987 115.594 129.156C110.718 129.492 105.758 129.829 100.798 130.165C100.294 130.165 99.7896 130.165 99.2851 130.586C99.0329 131.259 98.7807 132.101 98.4445 132.858C95.0817 142.619 93.1481 152.633 92.6437 162.983C92.3915 169.041 92.8118 175.1 93.7366 181.158C94.6614 187.385 96.2587 193.444 98.3604 199.418C98.4445 199.755 98.6126 200.007 98.7807 200.26C100.294 199.839 116.603 192.686 122.656 189.825C122.993 189.741 123.245 189.573 123.497 189.405ZM203.783 282.387C203.026 282.219 202.353 282.219 201.597 282.135C198.234 282.05 194.955 281.63 191.677 281.125C184.615 280.031 177.805 278.18 171.08 275.655C161.496 272.037 152.585 267.241 144.262 261.35C143.842 261.014 143.337 260.761 142.917 260.425C142.581 260.677 142.328 260.845 142.076 261.098C136.696 266.315 131.315 271.448 125.935 276.665C125.683 276.918 125.515 277.17 125.262 277.507C125.599 277.759 125.767 277.927 126.019 278.096C136.528 285.669 147.793 291.896 159.983 296.355C166.204 298.627 172.593 300.31 179.15 301.488C183.606 302.33 188.146 302.751 192.686 303.003C193.274 303.003 193.862 303.003 194.367 303.003C197.477 296.187 200.588 289.371 203.783 282.387ZM279.697 292.905C279.024 293.41 278.604 293.747 278.099 294.168C266.918 302.835 254.896 309.903 241.782 315.204C232.03 319.159 221.941 322.104 211.601 323.787C206.221 324.713 200.84 325.302 195.46 325.554C193.358 325.639 191.172 325.723 189.071 325.807C188.734 325.807 188.482 325.891 188.146 325.891C187.389 327.826 186.969 329.846 186.464 331.781C185.96 333.801 185.54 335.736 185.035 337.756C184.615 339.691 184.111 341.711 183.942 343.814C184.531 343.814 184.951 343.898 185.372 343.898C187.389 343.814 189.323 343.73 191.34 343.646C195.628 343.478 199.915 342.973 204.119 342.3C210.256 341.374 216.225 340.112 222.194 338.513C244.304 332.539 264.312 322.273 282.303 308.22C282.555 308.052 282.807 307.715 282.975 307.547C281.882 302.666 280.79 297.87 279.697 292.905ZM73.1398 129.829C73.8123 128.314 74.4008 126.799 74.9893 125.369C75.6618 123.938 76.2503 122.424 76.9229 120.993C77.5954 119.563 78.268 118.216 78.9405 116.87C79.6971 115.44 80.4537 114.093 81.2104 112.663C81.967 111.232 82.8077 109.886 83.6484 108.54C84.489 107.193 85.3297 105.847 86.1704 104.5C87.0111 103.238 87.8518 101.892 88.7765 100.63C89.7013 99.2834 90.6261 98.0212 91.5508 96.759C92.4756 95.4968 93.4844 94.2346 94.4932 92.9724C95.502 91.7102 96.5109 90.5321 97.5197 89.2699C98.5285 88.0918 99.6214 86.8296 100.714 85.6516C101.723 84.4735 102.816 83.3796 103.909 82.2857C105.002 81.1076 106.179 80.0137 107.272 78.9198C108.449 77.8259 109.626 76.732 110.803 75.6381C111.98 74.5442 113.156 73.5344 114.418 72.5247C115.594 71.5149 116.771 70.5893 118.032 69.5795C119.293 68.5698 120.555 67.6441 121.816 66.6344C123.077 65.7088 124.422 64.8673 125.683 63.6892C120.386 61.1648 115.258 58.7246 110.046 56.2002C109.71 56.4526 109.289 56.705 108.869 56.9575C87.2633 72.1881 70.1974 91.5419 57.8392 114.935C55.5694 119.142 53.6358 123.518 51.7863 127.977C51.6182 128.482 51.1978 128.903 51.45 129.492C53.3836 129.997 70.5336 130.165 73.1398 129.829ZM125.515 190.414C129.55 201.354 135.267 211.199 142.665 220.118C148.549 227.271 158.806 236.779 163.093 239.051C164.27 238.21 181 222.306 181.841 221.296C181.588 220.792 181.084 220.539 180.664 220.287C173.434 214.817 167.213 208.422 162 201.017C157.545 194.706 153.93 187.89 151.24 180.569C151.071 180.149 151.071 179.56 150.567 179.307C148.886 179.812 126.607 189.741 125.515 190.414ZM277.259 275.824C275.577 277.086 274.064 278.264 272.467 279.358C270.869 280.536 269.188 281.63 267.591 282.724C265.993 283.818 264.312 284.827 262.631 285.837C260.949 286.847 259.184 287.857 257.418 288.782C255.737 289.708 253.972 290.633 252.206 291.475C250.441 292.316 248.675 293.158 246.91 293.915C245.06 294.672 243.211 295.43 241.361 296.187C239.512 296.86 237.746 297.533 235.897 298.123C234.047 298.712 232.114 299.301 230.18 299.89C228.331 300.395 226.397 300.899 224.548 301.32C222.698 301.741 220.764 302.162 218.831 302.498C216.897 302.835 214.88 303.171 212.946 303.424C211.012 303.676 209.079 303.929 207.145 304.097C205.128 304.265 203.194 304.349 201.176 304.518C199.243 304.602 197.309 304.518 195.46 304.686C194.199 306.958 189.743 319.328 188.566 323.451C188.482 323.703 188.482 323.956 188.482 324.124C190.752 324.545 198.907 324.124 208.154 322.862C223.202 320.758 237.494 316.13 251.113 309.314C261.202 304.349 270.533 298.291 279.276 291.222C278.688 286.09 278.015 281.125 277.259 275.824ZM340.31 228.196C340.058 228.954 339.806 229.543 339.638 230.132C335.686 241.828 330.474 252.936 324.085 263.454C313.913 280.115 301.134 294.673 286.086 307.042C285.666 307.379 285.161 307.631 284.825 308.22C284.993 308.893 285.245 309.651 285.413 310.408C286.59 314.615 287.935 318.823 289.365 322.946C289.533 323.367 289.449 323.871 290.037 324.04C293.904 321.684 306.515 310.156 313.24 302.751C325.262 289.624 335.098 274.982 342.832 258.994C346.447 251.505 351.071 239.64 351.491 237.032C350.23 236.106 348.969 235.181 347.708 234.255C346.447 233.329 345.27 232.404 344.093 231.394C342.916 230.384 341.655 229.29 340.31 228.196ZM182.093 2.59858C182.093 5.03885 184.615 14.1267 185.876 16.1462C186.128 16.1462 186.464 16.1462 186.717 16.2304C192.013 16.3987 197.393 16.8194 202.606 17.4926C208.154 18.1658 213.703 19.1755 219.251 20.3536C234.384 23.7195 248.675 29.1049 262.294 36.5098C269.104 40.2123 275.577 44.3354 281.798 48.9635C282.219 49.216 282.555 49.6367 283.059 49.7209C283.143 49.4684 283.228 49.3001 283.312 49.1318C284.573 45.0086 286.002 40.9696 287.683 37.0988C287.767 36.8464 287.767 36.6781 287.851 36.4256C283.648 32.639 268.768 23.8878 259.1 19.3438C242.202 11.434 224.464 6.3852 205.968 3.94494C199.831 3.18761 184.783 2.262 182.093 2.59858ZM144.178 259.162C144.262 259.331 144.346 259.415 144.346 259.499C144.514 259.667 144.766 259.836 144.934 260.004C155.107 267.156 166.12 272.794 178.142 276.497C183.774 278.18 189.491 279.442 195.376 280.199C198.234 280.536 201.092 280.704 204.035 280.872C204.287 280.872 204.539 280.872 204.791 280.788C208.49 273.888 212.189 266.988 215.804 260.004C215.889 259.92 215.888 259.752 215.888 259.499C215.552 259.499 215.3 259.415 215.048 259.415C212.189 259.247 209.331 258.994 206.389 258.573C199.327 257.564 192.517 255.797 185.96 253.272C178.478 250.411 171.332 246.625 164.691 242.165C164.27 241.828 163.85 241.408 163.177 241.408C156.788 247.214 150.399 253.188 144.178 259.162ZM150.147 177.54C149.138 174.174 148.297 170.892 147.625 167.442C147.036 164.076 146.616 160.626 146.448 157.176C146.28 153.726 146.364 150.192 146.7 146.742C147.036 143.292 147.457 139.926 148.297 136.56C149.138 133.195 150.063 129.913 151.071 126.547C148.97 126.463 146.868 126.799 144.85 126.884C142.749 127.052 140.647 127.22 138.629 127.388C136.528 127.557 134.426 127.641 132.408 127.893C130.307 128.146 128.205 128.062 126.187 128.482C121.731 140.095 119.714 152.128 120.302 164.581C120.639 172.407 123.329 185.702 125.178 188.732C126.776 188.143 149.138 178.213 150.147 177.54ZM144.094 71.3466C143.337 71.01 142.917 70.8417 142.496 70.6734C138.041 68.8222 133.585 66.971 129.13 65.2039C127.28 64.4466 127.784 64.3624 126.103 65.5405C109.71 76.9844 96.3427 91.1211 85.7501 108.035C81.7988 114.43 78.352 121.162 75.4937 128.062C75.2415 128.567 74.9052 129.156 74.9893 129.745C77.0069 129.997 96.679 129.156 98.5285 128.735C102.984 117.207 109.121 106.52 116.94 96.8431C124.59 86.9979 133.669 78.5832 144.094 71.3466ZM93.7366 45.0086C94.1569 44.7562 94.5773 44.4196 94.9976 44.1672C96.5109 43.1574 98.0241 42.0635 99.6214 41.1379C119.966 28.1792 141.992 19.7646 166.12 16.9877C170.155 16.567 174.106 16.2304 178.142 16.1462C179.655 16.1462 181.168 16.1462 182.597 16.1462C183.018 16.1462 183.354 16.0621 183.69 16.0621C183.69 15.8938 183.774 15.8096 183.774 15.7255C182.345 11.5182 181.168 7.22666 180.327 2.93517C180.327 2.85103 180.243 2.76688 180.075 2.59858C179.739 2.59858 179.235 2.51444 178.814 2.51444C172.929 2.68273 166.96 3.10347 161.076 3.86079C155.275 4.61811 149.474 5.62787 143.758 6.97422C121.227 12.3596 100.546 21.7841 81.5466 34.9951C81.2104 35.2476 80.9582 35.5 80.6219 35.7525C82.1351 37.2671 90.8783 43.4098 93.7366 45.0086ZM196.3 303.087C209.836 303.087 222.866 300.984 235.561 296.776C250.777 291.727 264.564 284.07 277.091 274.056C276.754 268.924 276.418 263.959 276.082 258.91C276.082 258.742 275.914 258.658 275.83 258.405C274.484 259.331 273.223 260.256 271.962 261.182C270.701 262.108 269.44 262.949 268.095 263.791C266.75 264.632 265.405 265.474 264.06 266.315C262.715 267.072 261.37 267.83 260.025 268.587C258.595 269.344 257.166 270.102 255.737 270.775C254.308 271.448 252.879 272.121 251.45 272.794C250.02 273.383 248.591 273.972 247.162 274.561C245.649 275.15 244.22 275.655 242.706 276.16C241.193 276.665 239.68 277.17 238.167 277.591C236.653 278.011 235.224 278.432 233.711 278.853C232.198 279.274 230.601 279.61 229.087 279.947C227.574 280.283 226.061 280.536 224.548 280.788C222.95 281.041 221.437 281.293 219.84 281.461C218.242 281.63 216.645 281.798 215.048 281.966C213.535 282.05 211.937 282.135 210.424 282.219C208.827 282.303 207.229 282.219 205.716 282.387C203.951 285.248 196.889 300.731 196.3 303.087ZM284.573 50.8148C284.993 51.3196 285.581 51.7404 286.086 52.1611C303.068 65.7088 316.939 81.9491 327.448 101.05C331.819 109.044 335.518 117.291 338.545 125.874C338.713 126.295 338.797 126.884 339.301 127.22C343.421 126.799 347.624 126.21 351.744 125.285C351.744 124.612 351.491 124.107 351.323 123.602C342.916 98.1053 329.549 75.6381 310.97 56.2002C304.665 49.6367 297.856 43.6623 290.626 38.1927C290.205 37.9403 289.869 37.5196 289.449 37.4354C288.188 39.3708 284.993 48.2062 284.573 50.8148ZM339.638 128.819C339.638 128.987 339.638 129.071 339.638 129.156C339.722 129.408 339.806 129.745 339.89 129.997C342.832 139.169 344.934 148.509 346.195 158.102C346.868 163.067 347.372 168.031 347.54 172.996C347.792 179.055 347.792 185.029 347.372 191.088C347.12 195.295 346.615 199.418 346.027 203.541C344.934 210.778 343.337 217.931 341.235 224.999C341.067 225.504 340.983 225.924 340.815 226.429C341.908 227.692 343.169 228.701 344.346 229.711C345.607 230.721 346.784 231.731 348.045 232.74C349.306 233.666 350.567 234.676 351.996 235.517C352.164 234.928 352.416 234.507 352.5 234.087C355.695 223.568 357.965 212.882 359.226 201.943C359.982 195.211 360.403 188.479 360.319 181.663C360.319 178.381 360.15 175.1 360.066 171.818C359.898 167.779 359.562 163.74 359.058 159.785C358.469 154.904 357.712 150.108 356.788 145.312C355.611 139.506 354.182 133.784 352.5 128.062C352.416 127.725 352.248 127.388 352.08 127.052C348.045 127.557 343.925 128.146 339.638 128.819ZM100.042 128.735C103.068 128.651 105.842 128.398 108.617 128.23C111.307 128.062 114.081 127.809 116.771 127.641C119.546 127.473 122.32 127.304 125.094 126.968C125.683 125.537 126.271 124.107 126.944 122.76C127.532 121.414 128.205 120.068 128.877 118.721C129.55 117.459 130.222 116.113 130.895 114.851C131.652 113.504 132.408 112.242 133.165 110.98C133.921 109.718 134.762 108.455 135.603 107.193C136.444 105.931 137.284 104.753 138.209 103.575C139.05 102.397 139.974 101.303 140.899 100.125C141.824 98.9468 142.833 97.8529 143.758 96.6748C144.766 95.5809 145.775 94.487 146.784 93.3931C147.793 92.2992 148.886 91.2894 149.979 90.1955C151.071 89.1858 152.164 88.176 153.257 87.1662C154.35 86.2406 155.443 85.315 156.536 84.3894C157.713 83.4638 158.89 82.5381 160.067 81.6125C161.244 80.6869 162.505 79.9296 163.766 78.8357C157.713 76.5637 151.828 74.2917 145.859 72.1039C135.435 79.0881 126.355 87.4187 118.537 97.1797C110.803 106.604 104.666 117.038 100.042 128.735ZM183.102 220.202C183.438 219.866 183.69 219.698 183.942 219.529C190.079 213.555 196.132 207.665 202.269 201.69C202.269 201.69 202.353 201.606 202.353 201.522C202.353 201.438 202.353 201.438 202.353 201.269C201.008 200.176 199.579 199.166 198.234 197.988C196.889 196.894 195.628 195.716 194.367 194.454C193.106 193.191 191.845 191.929 190.668 190.583C189.491 189.236 188.314 187.806 187.305 186.375C186.212 184.945 185.203 183.43 184.279 181.916C183.354 180.485 182.429 178.971 181.673 177.372C180.832 175.773 180.075 174.174 179.319 172.491C178.562 170.892 177.973 169.209 177.301 167.527C175.535 168.031 153.509 177.708 152.248 178.466C154.939 186.291 158.722 193.612 163.598 200.344C168.894 208.169 175.451 214.649 183.102 220.202ZM228.499 236.443C228.078 236.443 227.742 236.443 227.49 236.359C225.472 236.275 223.539 236.19 221.521 236.106C215.973 235.686 210.508 234.592 205.128 232.909C197.814 230.637 191.004 227.271 184.615 223.063C184.195 222.727 183.774 222.39 183.186 222.306C177.049 228.112 170.912 233.918 164.775 239.809C164.691 239.893 164.607 240.061 164.522 240.229C164.775 240.482 165.111 240.65 165.363 240.903C179.991 250.832 196.048 256.806 213.787 257.984C214.796 258.069 215.889 258.153 216.897 257.984C220.68 251.084 224.548 244.1 228.331 237.2C228.415 236.864 228.415 236.695 228.499 236.443ZM110.046 54.4331C110.55 54.0965 110.971 53.8441 111.475 53.5075C130.475 40.9696 151.156 32.8073 173.854 30.1988C177.637 29.778 181.42 29.4414 185.203 29.3573C186.633 29.3573 187.978 29.3573 189.407 29.3573C189.659 29.3573 189.911 29.4414 190.079 29.0207C189.491 27.8427 188.818 26.6646 188.146 25.4024C187.557 24.1402 186.885 22.878 186.296 21.6158C185.708 20.3536 185.203 19.0914 184.615 17.745C184.111 17.745 183.606 17.745 183.102 17.745C179.739 17.745 176.46 17.745 173.097 17.9975C168.894 18.2499 164.691 18.6706 160.487 19.3438C153.93 20.3536 147.372 21.8682 140.983 23.7195C124.842 28.5158 109.962 35.8366 96.0905 45.3452C95.8383 45.5135 95.5861 45.7659 95.3339 46.0184C96.7631 47.1964 106.851 53.0026 110.046 54.4331ZM151.744 176.951C152.248 176.783 152.669 176.614 153.089 176.446C160.487 173.164 167.969 169.967 175.367 166.685C175.788 166.517 176.376 166.433 176.628 165.928C176.292 164.581 175.872 163.235 175.62 161.889C175.283 160.542 175.031 159.196 174.779 157.765C174.527 156.419 174.359 154.989 174.274 153.642C174.106 152.296 174.022 150.865 174.022 149.435C173.938 148.089 173.938 146.742 174.022 145.396C174.022 143.965 174.106 142.619 174.274 141.189C174.443 139.842 174.611 138.412 174.779 137.065C175.031 135.719 175.283 134.288 175.62 132.942C175.956 131.596 176.376 130.249 176.712 128.903C177.049 127.557 177.721 126.295 177.889 124.948C177.721 124.864 177.637 124.78 177.553 124.78C177.385 124.78 177.217 124.78 177.133 124.78C169.146 125.201 161.244 125.537 153.257 126.21C153.173 126.21 153.173 126.21 153.089 126.295L153.005 126.379C146.448 142.956 146.532 162.394 151.744 176.951ZM217.738 259.415C217.402 260.004 217.15 260.425 216.897 260.845C215.552 263.286 214.207 265.726 212.946 268.25C210.928 272.037 208.995 275.824 206.977 279.61C206.809 279.947 206.473 280.283 206.641 280.788C207.145 280.957 207.734 280.872 208.238 280.872C215.468 280.704 222.614 279.947 229.676 278.348C246.405 274.646 261.454 267.409 274.989 257.059C275.325 256.806 275.577 256.554 275.83 256.301C275.83 256.133 275.914 256.133 275.914 256.049C275.83 251 275.83 245.951 275.745 240.987C275.745 240.818 275.661 240.65 275.493 240.314C269.861 244.437 263.976 247.971 257.671 250.832C251.366 253.693 244.892 255.881 238.167 257.395C231.525 258.826 224.716 259.499 217.738 259.415ZM284.405 306.285C284.825 305.948 285.245 305.696 285.582 305.359C302.816 291.054 316.855 274.056 327.532 254.282C331.987 246.036 335.602 237.453 338.545 228.533C338.713 227.944 339.049 227.439 338.881 226.766C336.275 224.242 333.753 221.465 331.315 218.604C331.231 218.52 331.147 218.435 331.063 218.435C331.063 218.435 330.979 218.351 330.895 218.351C330.81 218.351 330.81 218.351 330.642 218.435C330.474 218.856 330.306 219.277 330.138 219.782C326.103 232.572 320.386 244.521 313.156 255.712C304.581 268.924 294.241 280.62 282.219 290.718C281.798 291.054 281.294 291.307 281.042 291.811C281.378 294.083 283.648 304.434 284.405 306.285ZM229.508 234.844C233.207 228.028 236.822 221.212 240.268 214.312C240.352 214.144 240.437 213.891 240.437 213.639C240.268 213.555 240.184 213.471 240.1 213.471C239.68 213.471 239.344 213.387 238.923 213.387C234.215 213.302 229.508 212.713 224.884 211.535C217.738 209.768 211.097 206.907 204.96 202.952C204.539 202.7 204.119 202.447 203.699 202.195C197.309 208.338 191.004 214.48 184.699 220.539C184.615 220.623 184.531 220.792 184.447 220.876C186.717 223.148 196.132 228.028 202.606 230.384C211.349 233.666 220.26 235.096 229.508 234.844ZM151.912 124.696C152.669 123.013 153.341 121.33 154.098 119.647C154.855 117.964 155.695 116.365 156.62 114.682C157.461 113.083 158.47 111.485 159.394 109.886C160.403 108.371 161.412 106.772 162.505 105.342C163.598 103.827 164.775 102.313 165.952 100.882C167.129 99.4517 168.306 98.1053 169.651 96.759C170.996 95.4126 172.257 94.1504 173.602 92.8882C174.947 91.626 176.376 90.448 177.721 89.2699C179.15 88.0918 180.58 86.9979 182.177 85.8199C181.841 85.6516 181.673 85.4833 181.42 85.3991C176.46 83.5479 171.416 81.6967 166.456 79.8454C165.868 79.593 165.447 79.593 164.943 80.0137C164.775 80.182 164.522 80.2662 164.354 80.4345C152.333 88.765 142.412 99.0309 134.678 111.401C131.904 115.86 129.466 120.573 127.364 125.453C127.196 125.874 126.86 126.21 127.112 126.715C127.196 126.715 127.364 126.799 127.532 126.799C130.222 126.631 150.819 124.948 151.912 124.696ZM111.643 55.2745C112.316 55.6111 112.736 55.8636 113.156 56.116C117.276 58.0514 121.395 60.0709 125.599 62.0063C127.784 63.0161 127.112 63.0161 129.045 61.7539C144.178 52.077 160.403 45.4294 178.142 42.4842C183.102 41.6427 188.146 41.1379 193.106 41.0537C194.367 41.0537 195.712 41.0537 196.973 40.9696C197.225 40.9696 197.477 41.0537 197.73 40.633C196.637 39.1183 195.376 37.5196 194.283 35.9208C193.19 34.2378 192.097 32.639 191.004 30.8719C190.5 30.8719 189.995 30.8719 189.491 30.8719C184.279 30.7878 179.066 31.1244 173.854 31.7134C168.474 32.3024 163.093 33.3122 157.881 34.5744C141.656 38.6135 126.692 45.3452 112.736 54.5172C112.484 54.6855 112.148 54.938 111.643 55.2745ZM218.747 257.732C218.831 257.816 218.915 257.9 218.999 257.9C219.419 257.9 219.756 257.9 220.176 257.9C226.649 257.816 233.123 256.975 239.428 255.544C252.374 252.515 264.144 246.793 274.905 238.883C275.577 238.378 275.83 237.873 275.83 237.032C275.914 232.32 276.082 227.523 276.25 222.811C276.25 222.222 276.334 221.717 276.334 221.128C276.334 220.876 276.418 220.623 275.998 220.455C274.316 221.549 272.635 222.643 270.954 223.737C269.188 224.831 267.423 225.84 265.657 226.766C263.808 227.692 262.042 228.617 260.109 229.374C258.259 230.216 256.326 230.889 254.392 231.646C252.458 232.32 250.525 232.909 248.591 233.498C246.658 234.003 244.64 234.507 242.622 234.928C240.605 235.349 238.587 235.601 236.569 235.854C234.552 236.106 232.534 236.275 230.432 236.443C226.565 243.427 222.698 250.411 218.915 257.395C218.747 257.48 218.831 257.648 218.747 257.732ZM222.11 181.495C221.689 181.158 221.353 180.906 221.017 180.569C213.114 174.427 207.061 166.853 203.362 157.513C203.278 157.261 203.11 157.008 202.942 156.672C201.933 157.092 200.924 157.513 199.999 157.85C193.358 160.626 186.717 163.487 180.075 166.264C179.655 166.433 179.066 166.517 178.814 167.106C178.898 167.442 179.066 167.947 179.15 168.284C183.858 181.158 191.845 191.508 202.858 199.586C203.11 199.755 203.446 199.923 203.783 200.091C209.92 194.033 215.973 187.89 222.11 181.495ZM192.097 29.3573C192.433 29.3573 192.686 29.3573 192.938 29.4414C197.393 29.5256 201.849 29.8622 206.305 30.3671C211.937 31.0402 217.57 31.9659 223.034 33.2281C239.26 36.9305 254.476 43.2415 268.6 52.077C272.299 54.3489 275.83 56.8733 279.276 59.4819C279.613 59.7343 279.949 60.2392 280.537 60.1551C281.21 57.799 282.471 52.4136 282.555 51.3196C272.635 43.7464 261.958 37.4354 250.609 32.3866C233.543 24.7292 215.72 20.1853 197.141 18.4182C193.358 18.0816 187.725 17.745 186.633 17.9975C186.801 19.5121 190.163 26.5805 192.097 29.3573ZM280.874 289.792C282.219 289.035 283.312 287.941 284.405 286.931C296.847 275.908 307.355 263.286 315.678 248.897C321.647 238.715 326.271 227.944 329.634 216.668C328.541 214.985 324.001 208.843 323.328 208.254C319.377 221.296 313.66 233.498 306.01 244.689C298.36 255.965 289.196 265.894 278.772 274.477C278.856 277.17 280.285 287.688 280.874 289.792ZM202.353 155.157C202.185 154.652 202.101 154.231 201.933 153.726C199.999 147.163 199.579 140.515 200.84 133.784C201.345 131.091 202.101 128.482 203.11 125.874C203.278 125.453 203.53 125.116 203.278 124.527C195.46 124.443 187.641 124.443 179.739 124.864C179.571 125.201 179.403 125.453 179.319 125.79C177.049 131.932 175.704 138.159 175.451 144.723C175.367 147.752 175.367 150.781 175.704 153.811C176.124 157.513 176.797 161.131 177.805 164.666C177.889 164.918 178.058 165.17 178.226 165.423C186.212 162.057 194.031 158.775 201.933 155.494C202.101 155.409 202.185 155.241 202.353 155.157ZM329.297 129.576C329.381 130.081 329.465 130.418 329.634 130.754C332.576 140.01 334.678 149.519 335.771 159.196C336.443 164.666 336.779 170.135 336.863 175.605C336.948 181.242 336.695 186.88 336.023 192.434C335.602 196.389 335.014 200.26 334.257 204.13C333.501 207.833 332.66 211.535 331.651 215.154C331.483 215.743 331.483 216.248 331.903 216.837C334.173 219.529 336.443 222.138 338.965 224.578C339.133 224.746 339.301 224.831 339.554 224.999C339.974 224.494 340.058 223.905 340.226 223.4C342.244 216.416 343.757 209.348 344.85 202.111C345.523 197.146 346.027 192.182 346.195 187.217C346.363 181.747 346.363 176.278 346.027 170.808C345.691 164.666 344.934 158.523 343.925 152.38C342.664 144.891 340.899 137.57 338.545 130.334C338.377 129.829 338.209 129.408 338.04 128.987C337.116 128.987 330.81 129.324 329.297 129.576ZM201.933 93.5614C201.513 93.3931 201.345 93.3089 201.176 93.2248C195.712 91.037 190.248 88.8492 184.867 86.6613C184.279 86.4089 183.858 86.4089 183.354 86.8296C183.018 87.0821 182.681 87.3345 182.429 87.5028C173.35 94.1504 165.868 102.313 159.983 111.905C157.713 115.608 155.779 119.479 154.098 123.518C153.93 123.854 153.678 124.191 153.93 124.612C162.169 124.107 170.407 123.686 178.646 123.181C179.319 121.666 179.991 120.236 180.664 118.805C181.336 117.459 182.093 116.029 182.849 114.766C183.69 113.42 184.531 112.074 185.372 110.727C186.296 109.381 187.221 108.119 188.23 106.857C189.239 105.594 190.248 104.416 191.34 103.238C192.349 102.06 193.442 100.966 194.535 99.8724C195.712 98.7785 196.889 97.6846 198.066 96.6748C199.327 95.6651 200.672 94.8236 201.933 93.5614ZM199.327 42.4842C199.075 42.4842 198.823 42.4001 198.654 42.4001C194.199 42.3159 189.827 42.4842 185.372 42.905C181.084 43.3257 176.881 43.9989 172.677 44.8403C162.505 47.0281 152.753 50.4782 143.421 55.1063C138.882 57.3782 134.51 59.8185 130.307 62.5112C129.97 62.7636 129.466 62.9319 129.382 63.3526C130.811 64.2783 144.01 69.6637 145.859 70.0844C146.364 69.7478 146.952 69.4112 147.457 69.0746C148.045 68.7381 148.549 68.4015 149.138 68.0649C149.726 67.7283 150.231 67.3917 150.819 67.0551C151.408 66.7185 151.912 66.3819 152.501 66.0454C153.089 65.7088 153.678 65.3722 154.35 65.0356C154.939 64.699 155.527 64.4466 156.032 64.11C156.62 63.7734 157.208 63.5209 157.797 63.1844C158.385 62.9319 158.974 62.5953 159.562 62.3429C160.151 62.0904 160.739 61.7539 161.328 61.5014C161.916 61.249 162.505 60.9965 163.093 60.66C163.682 60.4075 164.27 60.1551 164.859 59.9026C165.447 59.6502 166.036 59.3977 166.624 59.1453C167.297 58.8929 167.885 58.6404 168.558 58.388C169.146 58.1355 169.735 57.9673 170.407 57.7148C170.996 57.4624 171.584 57.2941 172.257 57.0416C172.845 56.7892 173.518 56.6209 174.106 56.4526C174.695 56.2843 175.367 56.0319 175.956 55.8636C176.544 55.6953 177.217 55.527 177.805 55.3587C178.394 55.1904 179.066 55.0221 179.655 54.8538C180.243 54.6855 180.916 54.5172 181.504 54.3489C182.177 54.1806 182.849 54.0123 183.522 53.9282C184.111 53.7599 184.783 53.5916 185.372 53.5075C186.044 53.3392 186.633 53.255 187.305 53.1709C187.978 53.0867 188.566 52.9184 189.239 52.8343C189.911 52.7501 190.5 52.666 191.172 52.4977C191.845 52.4136 192.433 52.3294 193.106 52.2453C193.778 52.1611 194.367 52.077 195.039 51.9928C195.712 51.9087 196.3 51.8245 196.973 51.8245C197.646 51.7404 198.402 51.7404 199.075 51.6562C199.747 51.5721 200.336 51.5721 201.008 51.4879C201.681 51.4038 202.269 51.4038 202.942 51.4038C203.614 51.4038 204.203 51.4038 204.875 51.4038C205.464 51.4038 206.137 51.4879 206.977 51.2355C204.119 48.3745 201.681 45.4294 199.327 42.4842ZM250.777 191.508C250.441 191.34 250.357 191.34 250.273 191.34C249.936 191.34 249.6 191.256 249.264 191.256C245.565 191.172 241.95 190.499 238.419 189.489C233.543 188.058 228.919 185.955 224.632 183.178C224.211 182.925 223.875 182.505 223.371 182.505C217.318 188.647 211.265 194.706 205.296 200.849C205.212 200.933 205.212 201.101 205.044 201.269C205.464 201.522 205.884 201.858 206.305 202.111C208.827 203.71 211.433 205.14 214.207 206.318C222.278 209.937 230.769 211.872 239.68 211.956C240.353 211.956 240.941 212.04 241.698 211.788C244.808 205.14 248.003 198.408 250.777 191.508ZM278.604 272.71C279.108 272.289 279.529 272.037 279.865 271.785C293.988 259.752 305.254 245.531 313.576 229.038C317.023 222.138 319.882 214.985 322.067 207.496C322.32 206.739 322.235 206.15 321.815 205.561C320.554 203.626 319.293 201.606 318.116 199.586C317.948 199.334 317.78 199.166 317.528 198.745C317.275 199.334 317.107 199.671 317.023 200.091C310.718 219.866 299.789 236.695 284.741 250.832C282.639 252.767 280.453 254.619 278.352 256.386C277.847 256.806 277.595 257.227 277.679 257.9C277.931 262.192 278.183 266.567 278.52 270.859C278.352 271.448 278.52 271.953 278.604 272.71ZM337.368 127.304C337.368 127.052 337.368 126.884 337.284 126.799C337.116 126.379 337.032 125.958 336.863 125.537C329.129 103.743 317.191 84.5577 301.218 67.8966C296.174 62.6795 290.878 57.799 285.161 53.3392C284.825 53.0867 284.573 52.666 283.984 52.7501C283.143 55.6111 282.471 58.4721 281.967 61.5014C282.471 61.9222 282.975 62.3429 283.48 62.7636C293.316 70.8417 301.891 80.0979 309.289 90.448C317.275 101.555 323.496 113.588 328.12 126.463C328.288 126.968 328.372 127.557 328.709 127.893C330.222 127.977 335.434 127.641 337.368 127.304ZM242.622 213.387C242.454 213.639 242.286 213.723 242.286 213.891C238.755 220.707 235.224 227.439 231.609 234.255C231.609 234.255 231.609 234.339 231.609 234.423C231.609 234.507 231.609 234.507 231.693 234.592C231.862 234.592 232.03 234.676 232.198 234.676C233.963 234.507 235.813 234.423 237.578 234.171C243.631 233.329 249.516 231.899 255.233 229.795C262.463 227.103 269.272 223.4 275.577 218.94C276.334 218.435 276.67 217.846 276.67 216.837C276.754 214.48 277.006 212.04 277.091 209.684C277.259 207.244 277.343 204.804 277.511 202.363C277.511 202.027 277.679 201.69 277.259 201.354C274.737 203.121 272.13 204.719 269.44 206.15C266.666 207.58 263.892 208.843 260.949 209.852C258.007 210.946 254.98 211.704 251.87 212.377C248.759 212.966 245.649 213.302 242.622 213.387ZM216.477 61.3331C216.057 60.8282 215.804 60.5758 215.552 60.3234C213.366 58.1355 211.181 55.9477 209.079 53.6758C208.575 53.0867 207.986 52.9184 207.229 52.9184C204.707 53.0026 202.185 53.0867 199.663 53.1709C195.376 53.3392 191.172 54.0123 186.969 54.7697C177.217 56.705 167.969 59.9026 159.058 64.2783C155.443 66.0453 151.912 68.0649 148.549 70.1685C148.213 70.3368 147.793 70.421 147.793 71.0942C153.594 73.282 159.478 75.4698 165.363 77.7418C180.832 67.7283 197.73 62.0063 216.477 61.3331ZM199.999 40.8854C203.278 41.1379 206.473 41.3062 209.667 41.5586C214.964 41.9793 220.176 42.8208 225.304 43.9147C240.016 47.0282 253.804 52.5818 266.666 60.4917C270.533 62.8478 274.232 65.4563 277.847 68.2332C278.183 68.4856 278.436 68.9063 279.108 68.8222C279.444 66.5502 279.949 64.3624 280.201 62.0904C279.697 61.6697 279.276 61.3331 278.772 60.9124C263.555 49.216 246.574 40.9696 228.078 35.9208C222.026 34.322 215.888 32.9756 209.667 32.2183C206.389 31.7976 203.11 31.461 199.831 31.1244C197.898 30.9561 195.964 30.8719 194.031 30.7878C193.778 30.7878 193.442 30.6195 193.274 30.9561C193.947 32.8073 198.234 38.9501 199.999 40.8854ZM180.327 123.181C181.084 123.181 181.673 123.181 182.177 123.181C184.783 123.097 187.389 123.013 189.911 123.013C194.283 123.013 198.57 123.013 202.942 123.013C203.362 123.013 203.783 123.013 204.287 122.929C204.539 122.424 204.707 122.087 204.96 121.666C206.473 118.637 208.238 115.776 210.256 112.999C213.03 109.297 216.225 106.015 219.756 103.154C220.092 102.902 220.596 102.733 220.596 102.06C215.048 99.2834 209.415 96.6748 203.699 94.2346C198.066 98.2736 193.106 102.986 188.986 108.371C185.456 112.915 182.597 117.712 180.327 123.181ZM277.595 254.871C277.763 254.787 277.931 254.787 278.015 254.703C278.268 254.534 278.52 254.366 278.688 254.114C293.736 241.492 305.085 226.177 312.568 207.917C313.913 204.635 315.09 201.185 316.098 197.735C316.351 197.062 316.351 196.389 315.93 195.716C314.837 193.865 313.745 192.013 312.736 190.162C312.652 189.994 312.399 189.825 312.147 189.489C305.422 209.516 293.736 225.84 277.427 238.799C277.175 240.987 277.259 253.356 277.595 254.871ZM226.145 147.5C225.304 147.668 224.548 148.004 223.707 148.341C217.738 150.697 211.685 153.137 205.716 155.578C205.296 155.746 204.791 155.83 204.455 156.335C206.641 162.141 209.92 167.358 214.039 172.07C217.065 175.52 221.521 179.391 223.287 180.233C224.968 178.886 237.326 165.423 238.251 163.992C236.99 162.898 235.645 161.805 234.552 160.626C233.375 159.364 232.198 158.102 231.189 156.672C230.18 155.325 229.339 153.895 228.499 152.38C227.49 150.697 226.902 149.098 226.145 147.5ZM205.212 124.696C205.044 125.116 204.875 125.453 204.707 125.874C203.362 129.24 202.437 132.69 201.933 136.224C201.176 142.114 201.681 147.92 203.446 153.642C203.53 153.979 203.699 154.231 203.867 154.484C204.119 154.4 204.371 154.4 204.539 154.315C211.433 151.539 218.411 148.762 225.304 145.985C225.388 145.985 225.388 145.901 225.388 145.901C225.388 145.901 225.472 145.817 225.472 145.732C225.388 145.48 225.388 145.228 225.304 144.975C224.8 142.703 224.464 140.515 224.295 138.159C224.127 134.457 224.632 130.838 225.725 127.22C225.809 126.799 226.145 126.463 225.893 125.958C224.127 125.453 207.818 124.443 205.212 124.696ZM327.532 129.66C325.43 129.492 322.656 129.576 321.647 129.913C324.337 138.075 326.271 146.49 327.364 155.073C328.457 163.572 328.793 172.155 328.288 180.738C327.784 189.405 326.271 197.819 324.085 206.066C325.682 208.843 329.129 213.555 330.306 214.48C330.39 214.228 330.558 213.976 330.642 213.639C332.24 207.665 333.501 201.606 334.257 195.463C334.762 191.424 335.098 187.469 335.266 183.43C335.602 176.783 335.35 170.135 334.762 163.572C334.341 158.775 333.669 153.979 332.744 149.182C331.567 142.871 329.97 136.729 328.036 130.67C327.868 130.334 327.7 129.997 327.532 129.66ZM183.69 84.6418C185.876 83.2955 187.978 81.9491 190.163 80.7711C192.349 79.593 194.703 78.4149 196.973 77.4052C199.243 76.3954 201.597 75.5539 203.951 74.7966C206.305 74.0393 208.743 73.3661 211.097 72.7771C213.535 72.1881 216.057 71.7673 218.579 71.5149C221.017 71.2625 223.455 71.0942 226.061 70.8417C225.809 70.3368 225.556 70.0844 225.22 69.832C223.118 67.7283 220.933 65.7088 218.831 63.5209C218.242 62.9319 217.654 62.6795 216.897 62.7636C212.442 62.8478 207.986 63.2685 203.53 64.0258C195.039 65.4563 186.969 68.0649 179.15 71.6832C175.367 73.4503 171.668 75.4698 168.137 77.6576C167.885 77.8259 167.465 77.9101 167.549 78.4991C172.929 80.6028 178.394 82.6223 183.69 84.6418ZM277.343 236.779C280.453 235.181 289.617 226.009 294.493 219.613C301.975 209.937 307.608 199.334 311.138 187.722C309.877 184.945 307.692 181.327 306.935 180.569C300.966 196.136 291.13 208.843 277.931 218.94C277.595 224.831 277.343 230.721 277.343 236.779ZM252.542 191.34C252.374 191.761 252.206 192.097 252.038 192.434C251.534 193.528 251.113 194.622 250.609 195.716C248.423 200.596 246.153 205.393 243.967 210.273C243.715 210.778 243.379 211.199 243.463 211.872C244.136 211.872 244.724 211.872 245.313 211.788C247.751 211.535 250.273 211.199 252.711 210.694C261.454 208.758 269.44 205.056 276.754 199.839C277.427 199.334 277.679 198.745 277.679 197.988C277.679 195.8 277.847 193.612 277.931 191.424C278.015 188.647 278.015 185.871 278.015 183.01C278.015 182.673 278.099 182.336 277.847 182C277.427 181.916 277.175 182.252 276.838 182.505C275.325 183.43 273.812 184.44 272.299 185.366C267.759 187.974 262.883 189.825 257.671 190.667C255.905 190.919 254.308 191.088 252.542 191.34ZM258.175 170.219C257.671 170.219 257.25 170.219 256.914 170.135C255.569 170.051 254.224 169.967 252.879 169.798C248.423 169.125 244.304 167.611 240.521 165.255C240.268 165.086 239.932 164.918 239.596 164.834C234.552 170.303 229.592 175.689 224.632 181.158C224.716 181.327 224.8 181.411 224.884 181.411C225.22 181.663 225.556 181.831 225.893 182.084C228.751 183.851 231.693 185.45 234.804 186.628C239.68 188.563 244.808 189.657 250.104 189.741C250.609 189.741 251.197 189.91 251.702 189.573C253.215 185.955 257.671 173.08 258.175 170.219ZM236.233 81.0235C235.897 80.6028 235.729 80.2662 235.477 80.0137C233.207 77.7418 230.937 75.3857 228.667 73.1137C228.163 72.6088 227.658 72.4405 226.902 72.4405C223.875 72.5247 220.933 72.693 217.99 73.1137C211.769 73.9552 205.8 75.4698 199.999 77.8259C195.376 79.6772 190.92 81.9491 186.717 84.6418C186.38 84.8101 185.96 84.9784 185.96 85.5674C187.894 86.3248 189.911 87.0821 191.845 87.9235C193.778 88.6809 195.712 89.5223 197.646 90.2797C199.663 91.037 201.597 91.9626 203.53 92.7199C213.366 85.904 224.127 81.9491 236.233 81.0235ZM277.931 75.7223C278.015 75.554 278.183 75.3857 278.183 75.3015C278.352 73.7869 278.688 72.3564 278.688 70.8417C278.268 70.5051 277.931 70.1685 277.511 69.9161C267.086 61.7539 255.653 55.3587 243.211 50.7306C235.477 47.8696 227.574 45.7659 219.503 44.3354C215.552 43.6623 211.517 43.1574 207.482 42.8208C205.716 42.6525 203.867 42.5684 202.101 42.4842C201.849 42.4842 201.597 42.4001 201.513 42.905C203.867 45.8501 206.389 48.7111 208.995 51.4038C210.508 51.4879 212.021 51.5721 213.45 51.6562C214.88 51.7404 216.309 51.8245 217.738 51.9928C219.251 52.1611 220.68 52.2453 222.194 52.4977C223.623 52.666 225.052 52.9184 226.481 53.1709C227.91 53.4233 229.339 53.6758 230.769 53.9282C232.198 54.2648 233.627 54.5172 234.972 54.938C236.401 55.2745 237.83 55.6953 239.26 56.116C240.605 56.5368 242.034 56.9575 243.379 57.3782C244.724 57.799 246.069 58.3038 247.498 58.8087C248.843 59.3136 250.189 59.8185 251.534 60.4075C252.879 60.9965 254.308 61.5856 255.653 62.1746C256.998 62.7636 258.259 63.4368 259.52 64.0258C260.781 64.699 262.042 65.3722 263.303 66.0454C264.564 66.7185 265.825 67.4759 267.002 68.2332C268.263 68.9905 269.524 69.832 270.785 70.6734C271.962 71.5149 273.139 72.3564 274.316 73.1137C275.577 74.0393 276.67 75.0491 277.931 75.7223ZM326.943 127.977C326.019 123.77 320.134 110.727 315.594 102.818C308.112 89.9431 298.864 78.4149 287.851 68.4015C283.648 64.6149 282.807 63.9417 281.798 63.4368C281.378 64.5307 280.79 67.9807 280.621 70.2527C280.958 70.5051 281.294 70.8417 281.714 71.1783C292.559 80.2662 301.723 90.8687 309.205 102.902C313.829 110.391 317.612 118.301 320.638 126.547C320.806 127.052 320.89 127.641 321.395 128.062C322.908 128.062 324.421 128.062 326.019 128.062C326.103 128.062 326.439 128.062 326.943 127.977ZM306.01 178.634C305.085 176.699 302.395 172.239 301.555 171.229C301.302 171.65 301.134 171.986 300.966 172.407C299.201 176.278 297.183 179.98 294.745 183.43C290.626 189.405 285.75 194.622 280.117 199.082C279.36 199.671 278.856 200.344 278.94 201.354C278.94 201.438 278.94 201.522 278.94 201.69C278.688 206.487 278.352 211.199 278.099 215.995C278.099 216.248 278.015 216.5 278.268 216.668C280.958 215.238 288.188 208.169 292.475 202.868C298.36 195.463 302.984 187.469 306.01 178.634ZM222.362 101.219C223.287 100.63 224.295 99.9566 225.304 99.2834C226.397 98.6102 227.406 98.0212 228.499 97.4321C229.508 96.8431 230.601 96.3382 231.693 95.8334C232.786 95.3285 233.879 94.9077 234.972 94.487C236.065 94.0663 237.242 93.7297 238.335 93.3931C239.512 93.0565 240.773 92.8041 241.95 92.4675C243.043 92.215 244.304 92.1309 245.481 91.7943C245.313 91.5419 245.313 91.3736 245.144 91.2053C242.875 88.5126 240.521 85.8199 238.251 83.2113C237.83 82.7064 237.41 82.6223 236.822 82.7064C234.468 82.7906 232.198 83.043 229.844 83.4638C221.521 84.9784 213.787 88.0077 206.641 92.5516C206.221 92.8041 205.8 93.1407 205.38 93.3931C205.464 93.5614 205.464 93.6455 205.548 93.6455C211.181 96.0016 216.729 98.6102 222.362 101.219ZM206.137 123.013C208.575 123.265 210.928 123.181 213.282 123.349C215.552 123.518 217.822 123.686 220.092 123.77C222.446 123.854 224.716 124.275 226.986 124.275C227.154 124.023 227.238 123.938 227.238 123.77C229.339 119.058 232.366 114.935 236.233 111.485C236.401 111.401 236.485 111.232 236.569 111.064C234.468 109.465 224.127 103.659 222.362 103.154C216.813 106.604 208.07 117.207 206.137 123.013ZM253.215 189.573C259.688 189.994 273.139 184.524 277.847 179.644C277.847 179.475 277.931 179.391 277.847 179.223C277.679 176.362 277.511 173.417 277.343 170.556C277.175 168.789 276.922 167.106 276.754 165.339C276.67 165.002 276.67 164.581 276.334 164.329C274.989 165.086 273.812 165.844 272.551 166.517C271.206 167.19 269.861 167.779 268.431 168.284C267.086 168.789 265.657 169.125 264.312 169.462C262.883 169.798 261.37 169.967 259.856 170.219C257.923 176.783 255.737 183.178 253.215 189.573ZM210.676 53.0026C211.181 53.5916 211.433 53.9282 211.769 54.2648C213.787 56.2843 215.889 58.388 217.822 60.4075C218.495 61.0807 219.083 61.3331 220.008 61.3331C224.464 61.3331 228.919 61.7539 233.375 62.427C241.109 63.6051 248.591 65.7929 255.821 68.9063C262.967 71.9356 269.608 75.8064 275.83 80.3503C276.25 80.6869 276.67 81.1077 277.259 81.2759C277.595 80.0137 277.763 78.8357 277.679 77.5735C267.591 69.5795 256.578 63.5209 244.472 59.2295C233.627 55.527 222.53 53.5075 210.676 53.0026ZM316.098 129.745C317.948 135.298 319.293 140.684 320.302 146.237C321.311 151.791 321.815 157.345 322.067 162.983C322.32 168.705 321.983 174.342 321.311 179.98C320.638 185.534 319.545 191.088 318.032 196.557C319.545 198.913 320.974 201.354 322.488 203.71C322.572 203.878 322.74 203.878 322.992 204.046C323.16 203.373 323.328 202.868 323.496 202.363C325.262 195.127 326.439 187.722 326.859 180.233C327.195 174.258 327.111 168.284 326.691 162.309C326.271 157.261 325.598 152.212 324.673 147.247C323.581 141.693 322.151 136.14 320.386 130.754C320.302 130.418 320.05 130.081 319.882 129.66C319.125 129.66 318.368 129.66 317.612 129.66C317.191 129.66 316.771 129.66 316.098 129.745ZM279.276 197.651C281.126 196.894 287.515 190.583 290.373 186.964C294.661 181.579 298.108 175.773 300.63 169.462C299.621 167.358 296.174 162.225 295.165 161.215C294.997 161.552 294.745 161.805 294.577 162.057C290.962 168.873 286.17 174.763 280.285 179.728C279.949 179.98 279.697 180.233 279.529 180.317C279.444 186.291 279.36 191.929 279.276 197.651ZM220.68 63.0161C220.764 63.5209 221.185 63.7734 221.521 64.0258C223.539 66.0454 225.64 67.9807 227.574 70.0003C228.247 70.6734 228.919 71.01 229.928 71.01C234.3 71.1783 238.671 71.599 242.959 72.5247C253.299 74.6283 262.883 78.4149 271.794 83.9686C273.223 84.8101 274.568 85.8199 275.914 86.6613C276.166 86.8296 276.418 86.9138 276.754 86.9979C276.838 86.3248 276.922 85.7357 277.006 85.1467C277.091 84.4735 277.175 83.8845 277.175 83.2113C267.591 75.7222 256.998 70.2527 245.397 66.7185C236.569 64.0258 225.052 62.5953 220.68 63.0161ZM247.162 139.506C244.976 140.347 242.79 141.104 240.689 141.862C238.503 142.703 236.317 143.461 234.131 144.302C232.03 145.143 229.844 145.817 227.826 146.742C228.583 151.623 235.392 160.795 239.428 162.478C239.512 162.394 239.68 162.309 239.764 162.225C243.967 157.345 248.087 152.464 252.29 147.584C252.458 147.415 252.542 147.163 252.627 146.995C249.684 144.134 249.684 144.134 247.162 139.506ZM227.322 145.312C233.795 142.871 240.268 140.515 246.742 138.075C246.574 136.981 246.405 135.971 246.405 134.878C246.321 133.868 246.321 132.858 246.405 131.932C246.49 130.923 246.742 129.913 246.91 128.819C244.808 128.314 242.706 127.977 240.689 127.725C238.587 127.388 236.485 127.136 234.384 126.799C232.366 126.547 230.264 126.21 228.247 126.126C225.556 131.427 225.388 140.263 227.322 145.312ZM253.972 148.004C249.516 153.222 245.144 158.355 240.689 163.487C244.808 166.853 253.804 169.209 258.595 168.536C259.688 166.18 262.547 153.558 262.547 150.781C261.117 150.529 259.688 150.276 258.259 149.94C256.746 149.603 255.401 148.846 253.972 148.004ZM246.826 93.1407C241.529 93.6455 236.738 95.076 232.114 97.1797C228.583 98.7785 225.22 100.798 224.127 101.976C224.211 102.06 224.211 102.144 224.295 102.229C224.295 102.229 238.083 109.97 238.167 109.97C239.091 109.381 240.016 108.708 241.025 108.119C242.034 107.53 243.043 106.941 244.052 106.436C245.06 105.931 246.153 105.51 247.162 105.09C248.255 104.669 249.348 104.416 250.441 104.08C251.534 103.743 252.627 103.743 253.888 103.238C251.618 99.7041 249.348 96.4224 246.826 93.1407ZM279.444 77.0686C279.865 77.4893 280.285 77.7418 280.621 78.0784C286.002 82.6223 290.962 87.587 295.502 92.9724C303.908 103.07 310.382 114.262 314.921 126.547C315.09 127.052 315.258 127.557 315.594 128.062C316.603 128.062 317.612 128.062 318.536 128.062C318.705 128.062 318.873 127.977 319.125 127.977C319.125 127.809 319.209 127.725 319.209 127.641C319.125 127.22 318.957 126.884 318.873 126.547C311.895 107.782 301.134 91.4577 286.674 77.7418C284.909 76.0588 282.975 74.3759 281.126 72.7771C280.874 72.5247 280.621 72.1881 280.201 72.4405C279.865 73.871 279.697 75.4698 279.444 77.0686ZM311.979 129.745C311.895 130.502 312.231 131.175 312.399 131.764C314.501 138.58 315.846 145.48 316.435 152.548C316.771 157.092 316.855 161.72 316.603 166.264C316.267 170.556 315.762 174.931 314.837 179.139C314.333 181.579 313.66 184.103 312.988 186.544C312.82 187.133 312.82 187.553 313.156 188.143C314.249 189.994 315.342 191.929 316.435 193.865C316.519 194.033 316.771 194.201 317.023 194.538C320.134 182.925 321.143 171.397 320.386 159.617C319.713 149.435 317.78 139.506 314.417 129.913C313.576 129.576 312.82 129.576 311.979 129.745ZM238.419 80.8552C238.755 80.8552 239.091 80.8552 239.512 80.8552C246.574 80.8552 253.467 82.0333 260.193 84.3894C265.321 86.1565 270.113 88.5967 274.568 91.5419C274.989 91.7943 275.325 92.215 275.914 92.215C276.25 91.1211 276.25 90.0272 276.418 88.9333C267.086 82.0333 256.83 77.2369 245.649 74.5442C240.016 73.1978 232.45 72.2722 230.685 72.693C231.105 73.5344 236.99 79.593 238.419 80.8552ZM247.582 91.5419C248.087 91.5419 248.591 91.5419 249.096 91.5419C253.972 91.3736 258.679 92.0467 263.387 93.5614C267.086 94.7394 270.533 96.4224 273.812 98.3578C274.148 98.6102 274.484 98.9468 275.073 98.7785C275.325 97.2638 275.745 95.6651 275.745 94.1504C275.409 93.898 275.241 93.7297 274.989 93.5614C268.936 89.4382 262.379 86.3248 255.317 84.3894C250.777 83.1272 246.069 82.454 241.277 82.3699C240.941 82.3699 240.437 82.2016 240.184 82.6223C242.622 85.6516 245.06 88.5967 247.582 91.5419ZM279.529 178.213C283.732 175.773 292.055 165.002 293.988 159.617C293.988 159.533 293.904 159.448 293.904 159.364C291.971 156.924 290.037 154.484 288.188 152.128C288.104 151.959 287.851 151.959 287.683 151.791C285.245 156.251 281.967 160.037 277.931 163.151C278.688 168.116 279.024 173.08 279.36 178.045C279.36 178.045 279.444 178.129 279.529 178.213ZM264.228 150.781C263.219 156.672 261.958 162.562 260.361 168.368C263.724 168.873 272.551 165.675 276.25 162.394C276.166 161.805 276.082 161.131 275.914 160.374C275.157 156.503 274.232 152.717 272.971 149.014C272.887 148.678 272.803 148.341 272.551 148.257C271.206 148.846 269.945 149.435 268.6 149.856C267.17 150.192 265.741 150.445 264.228 150.781ZM247.498 127.22C248.423 124.948 249.768 123.097 251.45 121.33C251.197 121.077 250.945 120.825 250.777 120.657C246.91 117.712 242.875 114.935 238.755 112.326C238.587 112.242 238.335 112.158 238.167 112.074C235.897 113.757 233.291 116.618 231.357 119.563C230.348 121.077 229.424 122.592 228.835 124.359C229.003 124.443 229.087 124.527 229.171 124.612C235.056 125.369 241.025 126.126 246.826 127.22C246.91 127.22 247.162 127.22 247.498 127.22ZM301.302 167.19C302.732 164.918 304.581 156.672 304.917 151.034C305.338 143.797 304.497 136.645 302.143 129.66C301.05 129.66 300.125 129.66 299.117 129.66C298.864 129.66 298.612 129.745 298.36 129.745C298.444 130.081 298.444 130.418 298.444 130.67C298.612 131.512 298.864 132.437 299.033 133.279C299.957 137.486 300.125 141.693 299.705 145.901C299.201 150.192 298.024 154.315 296.426 158.27C296.258 158.691 296.09 159.112 296.006 159.448C297.435 161.889 300.63 166.517 301.302 167.19ZM311.559 185.197C311.811 185.113 311.811 185.029 311.895 185.029C312.063 184.692 312.147 184.272 312.231 183.935C314.165 176.614 315.174 169.125 315.258 161.468C315.342 155.494 314.837 149.603 313.745 143.797C312.988 139.506 311.895 135.214 310.55 131.091C310.382 130.67 310.382 130.081 309.793 129.66C309.457 129.66 309.121 129.66 308.7 129.66C308.532 129.66 308.28 129.745 308.112 129.745C307.86 130.334 308.196 130.754 308.28 131.259C309.457 135.214 310.382 139.253 310.97 143.376C311.559 147.836 311.811 152.38 311.643 156.924C311.559 160.206 311.138 163.487 310.634 166.685C310.046 170.303 309.121 173.922 307.944 177.372C307.692 178.129 307.776 178.718 308.112 179.307C308.953 180.738 309.709 182.168 310.55 183.599C310.97 184.103 311.307 184.608 311.559 185.197ZM248.843 93.2248C249.6 94.4029 250.441 95.4126 251.197 96.5065C251.954 97.6004 252.711 98.6944 253.467 99.8724C254.224 100.966 254.812 102.144 255.569 103.154C256.157 103.154 256.662 103.154 257.166 103.154C259.184 103.154 261.202 103.238 263.219 103.659C266.33 104.248 269.272 105.342 272.046 106.772C272.467 106.941 272.803 107.277 273.392 107.193C273.896 105.09 274.316 102.902 274.653 100.714C268.347 95.8334 254.392 91.7102 248.843 93.2248ZM303.824 129.745C303.993 130.249 304.077 130.754 304.161 131.175C305.254 135.046 306.01 139.001 306.262 143.04C306.683 148.846 306.262 154.568 305.001 160.29C304.413 162.983 303.572 165.675 302.647 168.284C302.395 168.873 302.479 169.378 302.816 169.967C303.993 171.818 305.085 173.753 306.178 175.605C306.346 175.857 306.431 176.194 306.767 176.11C309.037 169.798 310.718 159.869 310.214 149.94C309.877 143.292 307.86 132.69 306.178 129.576C305.506 129.66 304.665 129.492 303.824 129.745ZM290.794 129.997C291.046 131.68 291.298 133.279 291.382 134.962C291.466 136.729 291.466 138.496 291.298 140.179C291.13 141.862 290.71 143.545 290.289 145.143C289.785 146.826 289.112 148.425 288.524 150.108C288.608 150.192 288.608 150.361 288.692 150.445C290.542 152.801 292.475 155.073 294.325 157.429C294.409 157.597 294.661 157.681 294.829 157.765C295.502 156.503 295.922 155.241 296.342 153.979C298.864 146.322 299.117 138.58 296.847 130.754C296.763 130.418 296.679 129.997 296.342 129.745C294.913 129.576 292.055 129.745 290.794 129.997ZM239.68 110.98C239.68 111.064 239.68 111.064 239.764 111.148C244.052 114.009 248.339 116.954 252.458 120.068C252.542 120.152 252.627 120.152 252.711 120.152C253.972 119.479 255.065 118.637 256.326 118.048C257.587 117.459 258.932 117.038 260.193 116.618C259.52 114.009 255.905 106.604 254.56 104.921C250.02 105.09 242.286 108.203 239.68 110.98ZM295.838 128.062C295.922 127.388 295.67 126.884 295.418 126.379C293.148 120.573 289.953 115.44 285.918 110.727C283.228 107.614 280.285 104.837 277.006 102.397C276.754 102.229 276.502 101.892 275.998 102.144C275.577 104.164 275.157 106.268 274.737 108.287C276.166 109.381 277.511 110.307 278.772 111.485C280.117 112.663 281.378 113.841 282.471 115.103C283.564 116.365 284.657 117.712 285.582 119.058C286.59 120.488 287.431 122.003 288.188 123.602C288.944 125.116 289.533 126.715 290.205 128.314C292.223 128.23 293.988 128.146 295.838 128.062ZM313.745 127.977C313.745 127.304 313.408 126.715 313.156 126.126C307.523 111.485 299.285 98.5261 288.356 87.2504C285.75 84.6418 283.059 82.1174 280.285 79.7613C280.033 79.5089 279.781 79.0881 279.192 79.3406C279.108 80.4345 278.688 81.5284 278.94 82.6223C281.294 84.8101 283.732 86.8296 286.002 89.0175C288.272 91.2053 290.457 93.4772 292.475 95.8334C294.493 98.1895 296.426 100.714 298.276 103.238C300.125 105.763 301.723 108.455 303.404 111.148C305.001 113.841 306.515 116.618 307.776 119.479C309.037 122.34 310.214 125.201 311.475 128.146C312.147 128.146 312.904 128.23 313.745 127.977ZM288.44 128.314C288.02 123.434 279.613 112.579 274.484 110.222C274.4 110.307 274.316 110.391 274.316 110.391C273.56 112.999 272.803 115.692 272.046 118.301C272.046 118.385 272.046 118.469 272.13 118.721C275.998 121.077 278.604 124.612 279.949 128.903C281.042 128.987 287.011 128.567 288.44 128.314ZM279.024 140.768L287.095 148.593C287.179 148.593 287.263 148.593 287.431 148.678C287.935 147.752 288.272 146.826 288.608 145.817C290.205 140.936 290.542 135.971 289.365 130.923C289.281 130.586 289.112 130.334 288.944 129.913C286.086 130.081 283.228 130.249 280.369 130.67C280.369 131.848 280.453 133.026 280.453 134.12C280.369 135.298 280.285 136.392 280.033 137.486C279.781 138.58 279.36 139.674 279.024 140.768ZM276.418 100.041C276.838 100.377 277.091 100.546 277.343 100.798C286.59 107.698 293.316 116.365 297.351 127.22C297.435 127.557 297.603 127.809 297.771 128.146C298.864 128.146 299.789 128.146 300.798 128.146C300.966 128.146 301.218 128.062 301.386 128.062C301.386 127.893 301.47 127.809 301.386 127.725C301.218 127.22 301.05 126.715 300.882 126.21C297.771 118.216 293.316 111.148 287.599 104.753C284.657 101.555 281.546 98.6102 278.015 96.0016C277.763 95.8334 277.511 95.4968 277.006 95.7492C276.838 97.0114 276.586 98.5261 276.418 100.041ZM256.662 104.837C256.662 104.921 256.578 104.921 256.578 105.005C258.427 108.708 260.277 112.41 261.79 116.197C261.79 116.281 261.874 116.281 261.874 116.281C261.874 116.281 261.958 116.365 261.874 116.281C263.387 116.365 264.817 116.365 266.246 116.618C267.675 116.87 269.02 117.291 270.365 117.627C271.122 116.197 272.635 110.559 272.719 109.044C268.852 106.268 260.781 104.08 256.662 104.837ZM273.98 147.079C273.98 147.331 273.98 147.5 274.064 147.584C275.577 151.791 276.67 156.167 277.511 160.542C277.511 160.711 277.679 160.963 277.847 161.131C281.042 158.944 285.666 153.222 286.59 150.276C284.825 148.004 279.865 143.292 278.268 142.367C277.847 142.871 277.511 143.46 277.006 143.965C276.586 144.47 276.082 145.059 275.661 145.564C275.073 146.069 274.568 146.49 273.98 147.079ZM309.457 127.977C308.532 123.349 301.807 110.559 296.342 103.07C291.382 96.2541 281.967 86.493 278.688 84.726C278.183 85.904 278.268 87.1662 278.183 88.3443C280.033 89.9431 281.967 91.4577 283.732 92.9724C285.497 94.5712 287.263 96.2541 288.86 97.937C290.542 99.7041 292.055 101.471 293.568 103.322C294.997 105.174 296.426 107.025 297.771 108.96C299.117 110.896 300.378 112.999 301.555 115.019C302.732 117.123 303.824 119.226 304.833 121.414C305.842 123.602 306.683 125.79 307.607 127.977C308.196 128.146 308.784 128.23 309.457 127.977ZM277.343 93.4772C289.449 102.481 298.192 113.841 303.152 127.893C304.581 128.146 304.665 128.146 305.674 127.809C305.422 127.22 305.254 126.631 305.001 125.958C299.957 113.168 292.139 102.313 281.798 93.3089C280.706 92.3833 279.613 91.4577 278.436 90.5321C278.268 90.3638 278.015 90.3638 277.763 90.2797C277.679 91.4577 277.511 92.4675 277.343 93.4772ZM248.843 138.917C249.432 141.441 251.702 144.554 253.719 145.732C253.803 145.648 253.972 145.564 254.056 145.48C256.914 141.862 259.772 138.243 262.631 134.625C262.715 134.541 262.967 134.288 262.631 134.12C258.007 135.635 253.383 137.234 248.843 138.917ZM278.268 129.24C277.763 126.042 274.653 121.835 271.542 120.32C271.458 120.404 271.374 120.404 271.29 120.488C269.945 123.938 268.516 127.388 267.002 130.838C267.002 130.838 267.002 130.923 267.002 131.007L267.086 131.091C267.17 131.091 267.255 131.175 267.339 131.175C270.785 130.586 274.232 129.997 277.595 129.408C277.847 129.324 278.015 129.24 278.268 129.24ZM262.294 132.353C258.091 131.091 253.888 130.249 249.684 129.324C249.348 129.24 248.928 129.24 248.591 129.24C247.919 130.502 247.751 131.848 247.751 134.12C247.751 135.214 247.835 136.392 248.339 137.486C252.879 135.887 257.418 134.288 261.874 132.774C262.042 132.69 262.126 132.521 262.294 132.353ZM254.98 146.742C257.418 148.509 261.033 149.435 262.967 148.93C262.967 148.762 263.051 148.593 263.051 148.341C263.724 144.134 264.144 139.842 264.396 135.551C264.396 135.467 264.312 135.298 264.144 135.13C261.117 139.085 258.091 142.871 254.98 146.742ZM271.962 146.574C271.962 146.406 271.962 146.237 271.962 146.153C270.533 142.451 268.768 138.917 266.582 135.551C266.498 135.382 266.33 135.298 266.078 135.214C265.573 139.842 265.153 144.386 264.648 149.014C265.657 149.182 266.582 148.846 267.591 148.593C269.188 148.089 270.617 147.5 271.962 146.574ZM267.591 132.69C267.843 132.858 277.595 139.59 277.595 139.59C278.268 138.664 278.772 136.981 278.94 135.13C279.108 132.858 279.024 131.848 278.52 130.838C274.905 131.259 271.374 131.848 267.591 132.69ZM254.14 121.246C254.14 121.33 254.14 121.414 254.224 121.498C257.418 124.275 260.529 126.968 263.724 129.66C263.724 129.66 263.808 129.66 263.892 129.66C264.06 128.903 263.724 128.23 263.555 127.473C262.799 124.359 262.042 121.246 260.865 118.216C258.595 118.385 255.569 119.731 254.14 121.246ZM262.463 117.964C263.724 121.751 264.732 125.453 265.573 129.24C265.573 129.324 265.573 129.324 265.657 129.408C265.657 129.408 265.741 129.408 265.909 129.492C266.414 128.987 266.582 128.23 266.918 127.641C267.255 126.968 267.507 126.295 267.843 125.621C268.095 124.948 268.347 124.359 268.6 123.686C268.852 123.013 269.188 122.34 269.44 121.582C269.693 120.909 270.029 120.236 270.029 119.394C267.591 118.216 265.237 117.712 262.463 117.964ZM262.294 130.502C261.286 129.492 260.193 128.567 259.184 127.641C255.401 124.275 253.804 123.013 252.711 122.424C251.029 123.77 249.6 125.958 249.18 127.557L249.264 127.641C253.467 128.651 257.755 129.66 261.958 130.67C262.042 130.67 262.042 130.586 262.294 130.502ZM268.011 135.046C270.197 138.58 271.794 141.946 273.307 145.396C274.821 144.554 276.502 142.535 276.838 141.104C275.157 139.506 270.029 135.887 268.011 135.046Z" fill="black" fill-opacity="0.5"/>
</g>
<defs>
<clipPath id="clip0_7_7801">
<rect width="362" height="362" fill="white"/>
</clipPath>
</defs>
</svg>
