<svg xmlns="http://www.w3.org/2000/svg" viewBox="0 0 436.33 256.41"><defs><style>.cls-1{fill:#fff;}</style></defs><title>elipse</title><g id="Calque_2" data-name="Calque 2"><g id="Layer_1" data-name="Layer 1"><path class="cls-1" d="M218.11,256.4c-7.88,0-15.76-.26-23.62-.75-7-.44-14.05-1.11-21.05-2a321.86,321.86,0,0,1-61.8-13.58,247.5,247.5,0,0,1-45.47-19.92,176.19,176.19,0,0,1-30.89-22.05,122.41,122.41,0,0,1-20.72-23.79A89.8,89.8,0,0,1,2.43,147.42,76.72,76.72,0,0,1,.26,121.86a81.77,81.77,0,0,1,10-32.71A111.71,111.71,0,0,1,29,64.23,162.18,162.18,0,0,1,59,40.45a231.17,231.17,0,0,1,40.75-20A298,298,0,0,1,142.31,7.93c7.52-1.64,15.09-3,22.71-4.13,5.27-.76,10.56-1.38,15.86-1.92q7.69-.79,15.41-1.29C204,.1,211.79,0,219.56,0c3.79,0,7.58,0,11.37.17s7.34.34,11,.57,7.45.51,11.16.85c3.48.32,7,.69,10.42,1.13,3.76.48,7.51,1.06,11.25,1.61C281.91,5.4,289,6.78,296,8.36a296.92,296.92,0,0,1,39.63,11.75,231.52,231.52,0,0,1,43.08,21.26A161.41,161.41,0,0,1,407,63.93a111.94,111.94,0,0,1,19.16,25.48,83.9,83.9,0,0,1,8.94,25.17,77,77,0,0,1,1,19.47,83.37,83.37,0,0,1-12,36.62A116.88,116.88,0,0,1,404,195.43,167.74,167.74,0,0,1,375.57,217a235.22,235.22,0,0,1-42.42,20.19,301,301,0,0,1-42,11.87c-7.13,1.48-14.3,2.77-21.51,3.76-5.51.75-11,1.35-16.58,1.92C241.45,255.92,229.79,256.36,218.11,256.4ZM233.51,1.74l-.15,0-.09.06.28-.12c0,.15,0,.41.15.45a7.78,7.78,0,0,0,1.17.43,60.53,60.53,0,0,1,11.2,4.89A65.52,65.52,0,0,1,256.85,15a3,3,0,0,0,2.91.72c1.55-.36,3.13-.6,4.69-1,4-.92,7.94-1.88,11.9-2.82.38-.09.77-.14,1-.64-.53-.2-1-.38-1.41-.52-3.55-1.11-7.08-2.31-10.66-3.32a154.07,154.07,0,0,0-21.69-4.5C240.23,2.46,236.87,2.12,233.51,1.74ZM203,1.86c-.94,0-1.9,0-2.83.1-3.23.4-6.46.8-9.67,1.28a165.71,165.71,0,0,0-28.23,6.83c-1.12.37-2.22.78-3.6,1.27a12,12,0,0,0,1.32.55c5.2,1.39,10.43,2.6,15.73,3.58,1.75.72,3.05.07,4.45-1.1A63.38,63.38,0,0,1,197,4.23c1.75-.71,3.55-1.29,5.33-1.92.28-.1.59-.12.67-.48a.38.38,0,0,0,.15,0,.23.23,0,0,0,.12-.06ZM66,127.44c.06-1.52.12-2.87.17-4.23a105.75,105.75,0,0,1,2-16.73A112.14,112.14,0,0,1,74.5,86c.2-.47.35-1,.55-1.53-.64-.13-1.15-.27-1.68-.33-2.17-.27-4.35-.51-6.52-.78-5-.63-10.1-1.24-15.15-1.91-4.69-.62-9.37-1.3-14.06-2-5.32-.78-10.64-1.6-16-2.4a5.3,5.3,0,0,0-2.1-.11c-.17.21-.33.38-.47.56C9,91,2.55,106,1.28,123a20.32,20.32,0,0,0,0,4.41,1.85,1.85,0,0,0,.54.19q31.71,0,63.42,0A5.58,5.58,0,0,0,66,127.44ZM361.27,84.63a110.57,110.57,0,0,1,9,42.67,4,4,0,0,0,2.37.32h60.22c.48,0,.95,0,1.42,0a5.52,5.52,0,0,0,.94-.23,77.69,77.69,0,0,0-4.91-26.24c-3.06-8.27-10.36-21.15-13.87-24.36-17.74,2.76-35.6,5.3-53.53,7.34a10.09,10.09,0,0,0-1.22.23C361.57,84.38,361.49,84.48,361.27,84.63ZM1.34,128.93c-.81,4.5,1.41,17.2,4.48,25.71s10.78,22.14,14.09,24.93l9.6-1.46q6.77-1,13.52-2c3.87-.55,7.74-1.06,11.61-1.58,3.23-.43,6.45-.85,9.68-1.25s6.59-.77,9.88-1.17a3.12,3.12,0,0,0,.77-.29c-1.27-3.54-2.55-7-3.72-10.44a92.94,92.94,0,0,1-2.82-10.63,92.75,92.75,0,0,1-1.72-10.87c-.34-3.64-.51-7.3-.76-10.95a2.11,2.11,0,0,0-.55-.17H1.81A1.61,1.61,0,0,0,1.34,128.93Zm360,42.76a1.79,1.79,0,0,0,.18.27.4.4,0,0,0,.16.08q27.41,3.28,54.69,7.5a.38.38,0,0,0,.17,0l.22-.09a5.8,5.8,0,0,0,.42-.49,92.68,92.68,0,0,0,14.42-27.57,78.67,78.67,0,0,0,3.58-20.76,2.29,2.29,0,0,0-.31-1.8c-.63,0-1.34,0-2,0H372.62c-.42,0-.83,0-1.24,0s-.67.1-1,.15c-.14,2.52-.22,4.94-.42,7.35s-.45,4.95-.79,7.41-.76,4.8-1.26,7.17-1.08,4.73-1.74,7.06-1.45,4.76-2.27,7.1S362.18,169.52,361.36,171.69ZM217.47,92.92a3.11,3.11,0,0,0-1.72-.25c-10.43-.16-20.86-.28-31.28-.47-5-.1-9.95-.25-14.92-.48-9.29-.43-18.58-1-27.87-1.42-.34,0-.69,0-1,0-2,5.37-4.56,32-3.62,37.08a4.81,4.81,0,0,0,2.26.2h75.9c.53,0,1.06,0,1.59,0a3.57,3.57,0,0,0,.66-.18,2.53,2.53,0,0,0,.14-.56q0-16.71,0-33.42A2.39,2.39,0,0,0,217.47,92.92Zm1.26,34.5a7.9,7.9,0,0,0,2.52.21H297c.47,0,.95,0,1.42,0a7.09,7.09,0,0,0,1-.2c.74-6.67-1.95-33.08-3.78-37.09-.21,0-.44,0-.67,0-5.91.31-11.83.66-17.75.93-7.1.34-14.2.7-21.31.9-8.7.25-17.41.35-26.12.49-3,.06-6,0-9.06.08a3,3,0,0,0-1.82.27,5.57,5.57,0,0,0-.11.79C218.73,104.93,218.73,116.12,218.73,127.42Zm-78,38.63c.56,0,1.15,0,1.73,0,.77,0,1.53-.13,2.3-.17,5.56-.29,11.12-.6,16.68-.84,7.69-.33,15.38-.72,23.07-.9,10.06-.24,20.13-.31,30.19-.45.6,0,1.19,0,1.78,0,.33,0,.67-.09,1.11-.16,0-.79.06-1.49.06-2.19v-30.2c0-.42,0-.83,0-1.25a9.88,9.88,0,0,0-.22-1.08l-2.18,0h-76c-.41,0-.83,0-1.24,0a8.82,8.82,0,0,0-1,.18C136.27,135.92,138.84,161.41,140.72,166.05ZM295.83,166c1-4.68,1.7-9.29,2.23-13.94q.53-4.5.88-9c.35-4.37.57-8.74.55-13.13a7.6,7.6,0,0,0-.19-1.09l-2.18,0h-76c-.42,0-.83,0-1.25,0a9.65,9.65,0,0,0-1.05.18c0,.67-.06,1.26-.06,1.84V161.7a8.77,8.77,0,0,0,0,.89c0,.33.13.66.22,1.07q38.22,0,76.21,2.45A2.82,2.82,0,0,0,295.83,166Zm73.32-38.5A110.37,110.37,0,0,0,365.94,102c-1.56-6.36-4.67-15.21-6.17-17.48Q329,88,297.93,90.07a3.07,3.07,0,0,0-.53.07c-.06,0-.11,0-.16.08l-.19.16c.49,3,1,6,1.47,9.05s.85,6.22,1.16,9.34.53,6.14.68,9.22.2,6.25.29,9.35c.27.11.43.24.59.24l66.83,0A8.52,8.52,0,0,0,369.15,127.46ZM76.4,84.59a32.25,32.25,0,0,0-2,4.6,108.47,108.47,0,0,0-6.36,25.06,90.45,90.45,0,0,0-.84,11.86,14.53,14.53,0,0,0,.14,1.46c.86,0,1.63.06,2.39.06h63.42c.47,0,.95,0,1.42,0a6.05,6.05,0,0,0,1-.22c.08-2.16.15-4.22.24-6.29s.17-4.14.31-6.21.29-4.13.49-6.19.44-4.12.7-6.18.62-4.09.9-6.14.83-4,1-6.14c-10.55-.87-21-1.66-31.41-2.59S87,85.63,76.4,84.59Zm292.74,44.34a6.27,6.27,0,0,0-.88-.16l-67,0a2.5,2.5,0,0,0-.67.25,182.71,182.71,0,0,1-.9,18.53c-.59,6.18-1.52,12.31-2.68,18.36.21.13.3.24.4.24,20.67,1.54,41.33,3.22,61.91,5.64a2.85,2.85,0,0,0,.51,0c1.46-2.24,4.55-11.06,6.11-17.39A109.72,109.72,0,0,0,369.14,128.93Zm-301.83-.11c0,.73-.07,1.3-.06,1.88a100.48,100.48,0,0,0,1.41,15.19,109.38,109.38,0,0,0,7.2,24.83c.16.37.37.72.6,1.15,20.75-2.41,41.5-4.19,62.28-5.65a1.87,1.87,0,0,0,.53-.22c-.07-.53-.12-1.05-.2-1.57-.48-2.92-1-5.83-1.43-8.76a169.65,169.65,0,0,1-1.73-19.09c-.08-2.19-.13-4.38-.22-6.57a9,9,0,0,0-.2-1.19ZM217.44,56.66c-3.09,0-6.16,0-9.22-.08s-6.16-.18-9.23-.3-6.16-.26-9.23-.44-6.15-.4-9.22-.64-6.14-.49-9.2-.78-6.12-.66-9.19-1-6.08-.83-9.07-1.08C149.41,58,141.16,82.92,141,89c.44.07.89.18,1.35.21,3.07.19,6.14.39,9.22.55q5,.27,9.94.49c4.43.2,8.87.43,13.31.57,6.63.22,13.26.43,19.89.54,7.17.13,14.34.16,21.5.21.45,0,1,.14,1.43-.43V57.5A4.58,4.58,0,0,0,217.44,56.66Zm0,108.13-1.83,0c-13.51,0-27,.36-40.51.77-3.13.09-6.27.23-9.41.38q-6.3.28-12.59.62c-3.85.21-7.69.46-11.53.7a3.23,3.23,0,0,0-.68.21c.07.48.1.89.2,1.29.76,3.16,1.47,6.34,2.32,9.48A153,153,0,0,0,152,202.07a5,5,0,0,0,1.12,1.91c.58,0,1.23-.09,1.87-.16,4.17-.48,8.34-1,12.52-1.44,6.19-.61,12.38-1.21,18.58-1.62s12.54-.61,18.81-.84c3.79-.14,7.58-.17,11.37-.26.4,0,.79-.09,1.27-.15,0-.6.09-1.12.09-1.64C217.76,182.62,217.67,166.29,217.42,164.79Zm78,2.54c-.55-.06-1-.12-1.48-.15-4.67-.27-9.34-.56-14-.79-6.86-.33-13.72-.68-20.59-.91-7.28-.24-14.56-.38-21.85-.52-5.56-.1-11.13-.14-16.7-.19a4.39,4.39,0,0,0-1.93.16,5.27,5.27,0,0,0-.16,2v18.66c0,4.15,0,8.29,0,12.44a2.19,2.19,0,0,0,.32,1.64l1.85,0c7.81.24,15.62.46,23.44.72,2.25.07,4.49.24,6.74.41q5.57.44,11.15.92c2.95.25,5.9.52,8.84.84,3.47.39,6.93.86,10.4,1.26a3.71,3.71,0,0,0,1.9,0C287.15,197.66,294.18,176.46,295.45,167.33ZM218.79,56.79c0,.73-.06,1.36-.06,2V78.16c0,3.91,0,7.82,0,11.73a2.07,2.07,0,0,0,.33,1.63c.56,0,1.2,0,1.85,0,8.11-.1,16.23-.18,24.34-.32,5.86-.11,11.72-.28,17.58-.47,3.67-.11,7.34-.29,11-.47s7.22-.36,10.82-.55c2.84-.15,5.68-.3,8.52-.48a5.53,5.53,0,0,0,2.24-.37c-1.06-8.47-8.65-31.28-12.15-36.47-7.09.75-14.2,1.61-21.33,2.24s-14.28,1.12-21.44,1.47S226.2,56.57,218.79,56.79Zm-67.21-4.63c-4-.62-7.84-1.19-11.69-1.81s-7.72-1.25-11.56-2-7.67-1.5-11.5-2.25-7.61-1.7-11.35-2.4c-4.79,3.85-13.9,14.54-19.18,22.51a111.84,111.84,0,0,0-9.36,17,6.45,6.45,0,0,0,1,.27c20.19,2.32,40.42,4.09,60.7,5.46a6,6,0,0,0,.91-.06,45.89,45.89,0,0,0,1.15-4.66c.39-1.55.76-3.1,1.17-4.65s.86-3.2,1.33-4.79.92-3.06,1.42-4.58,1-3,1.57-4.53,1.09-3,1.68-4.5,1.29-3.05,1.9-4.59A36.08,36.08,0,0,0,151.58,52.16ZM359.25,83.28c-.74-2.72-5.21-11-9.13-16.9A130.18,130.18,0,0,0,331,43.7c-3.85.8-7.65,1.7-11.47,2.46S311.84,47.7,308,48.4s-7.7,1.33-11.56,2-7.69,1.19-11.5,1.78c-.22.69.16,1.13.38,1.6a162.27,162.27,0,0,1,11,33.5c.12.56.3,1.11.44,1.62,3.27.31,50.2-3.74,61.13-5.25A13.38,13.38,0,0,0,359.25,83.28ZM284.66,204.1c.65.15,1.15.31,1.67.39,5.43.85,10.88,1.66,16.3,2.55,8.29,1.35,16.52,3,24.73,4.84,1.2.27,2.41.51,3.56.75.45-.4.81-.71,1.15-1a129,129,0,0,0,18.35-22.08,116.29,116.29,0,0,0,8.3-14.87c.24-.5.66-1,.46-1.7-6.95-.83-13.88-1.57-20.83-2.21s-13.8-1.21-20.69-1.86c-10.28-1-19.33-1.55-21-1.28A190.83,190.83,0,0,1,291.77,186,168.65,168.65,0,0,1,284.66,204.1Zm-133.06.07c-.15-.44-.24-.77-.37-1.08-.47-1.09-1-2.16-1.45-3.25a166,166,0,0,1-9.9-31.25,8.86,8.86,0,0,0-.36-1.1c-5-.24-58.63,4.53-62.44,5.62.87,3.09,6,12.42,10.39,18.72a128.59,128.59,0,0,0,17.89,20.79c5.2-1.08,10.28-2.19,15.38-3.18s10.23-1.93,15.36-2.81S146.37,205,151.6,204.17Zm264-128.41a3,3,0,0,0-.95-1.64A127.21,127.21,0,0,0,401.37,60a180.23,180.23,0,0,0-35.05-24.73,3,3,0,0,0-2.53-.22c-10,3-20.18,5.62-30.37,8-.27.06-.61,0-.79.5.3.34.62.74,1,1.1a126.11,126.11,0,0,1,26.57,37.47,11.8,11.8,0,0,0,.63,1.06C379.13,81.14,397.3,78.65,415.58,75.76Zm-394.76,105c0,.2,0,.34.06.42.31.43.62.86,1,1.27a130.78,130.78,0,0,0,15.27,15.86,181,181,0,0,0,33.26,23c.31.17.64.28.91.4,2.75-.79,5.42-1.58,8.1-2.33s5.36-1.48,8.05-2.19,5.5-1.42,8.25-2.12,5.38-1.23,8.17-2c-2.88-3.1-5.69-6-8.41-9.07a110.11,110.11,0,0,1-7.51-9.46,106.28,106.28,0,0,1-6.63-10.31c-2-3.56-3.81-7.2-5.72-10.82-2.73-.2-40.94,4.83-54,7.13A4.91,4.91,0,0,0,20.82,180.72Zm344.27,40.94c.63-.32,1.17-.57,1.68-.87,2.82-1.63,5.66-3.21,8.44-4.91a166.44,166.44,0,0,0,28.22-21.48,124.61,124.61,0,0,0,11.08-12,4.08,4.08,0,0,0,1.06-1.6c-.2-.11-.34-.25-.5-.27q-26.31-4.17-52.77-7.24a12.89,12.89,0,0,0-1.65,0c-.88,1.8-1.73,3.63-2.65,5.41s-1.94,3.67-3,5.46-2,3.47-3.14,5.16-2.22,3.36-3.4,5-2.45,3.34-3.74,5-2.53,3.13-3.85,4.65-2.79,3.07-4.18,4.6-2.9,2.76-4.13,4.31c.11.13.13.2.17.21C343.55,215.72,354.35,218.4,365.09,221.66ZM20.83,75.58c.06.08.09.15.13.16,16.88,2.79,33.83,5,50.82,7.07,1.17.14,2.35.25,3.53.37a.36.36,0,0,0,.17,0l.24-.14c.17-.34.39-.76.59-1.18a124.45,124.45,0,0,1,22.58-33.2c1.47-1.55,3-3,4.47-4.58a2.14,2.14,0,0,0,.32-.7,2.52,2.52,0,0,0-.45-.18c-10.32-2.41-20.56-5.09-30.71-8.12a3.24,3.24,0,0,0-2.68.34A202.89,202.89,0,0,0,50.42,47.54,148.53,148.53,0,0,0,26.79,68.21c-1.83,2-3.56,4.12-5.32,6.21C21.19,74.75,20.75,75.05,20.83,75.58Zm157.9-58.4c-5.18,3.73-13.82,14.13-19.43,23.33-3.43,5.62-5.3,9.24-5.53,10.73,1.88.26,3.74.55,5.62.75,5.06.54,10.12,1.1,15.2,1.55,5.6.49,11.21,1,16.83,1.26,7.45.36,14.92.51,22.38.75.89,0,1.78,0,2.66,0a7.9,7.9,0,0,0,1.12-.16c0-.73,0-1.37.06-2V22.81a9.51,9.51,0,0,0,0-1.07,9,9,0,0,0-.23-1.09A232.62,232.62,0,0,1,178.73,17.18Zm-25,188a2.68,2.68,0,0,0,.09.56c.14.33.29.65.45,1A123.13,123.13,0,0,0,164,223a97.57,97.57,0,0,0,13.49,15.29,2.57,2.57,0,0,0,2.39.73c5.3-1,10.64-1.65,16-2.17s10.5-.91,15.77-1c1.6,0,3.2,0,4.8-.08a5.83,5.83,0,0,0,1-.19c.29-1.69.39-20.35.19-33.11,0-.46-.07-.92-.11-1.41a3.24,3.24,0,0,0-.73-.2,484.85,484.85,0,0,0-62,4.09C154.46,205,154.13,205.09,153.69,205.19ZM257.88,17.26a3.26,3.26,0,0,0-.55,0c-5.31.91-10.64,1.72-16,2.18-4.25.37-8.5.7-12.76.95-2.89.18-5.8.19-8.7.29a8.09,8.09,0,0,0-1.07.17c0,.74-.06,1.38-.06,2V53.42a9.37,9.37,0,0,0,0,1.06,10.54,10.54,0,0,0,.24,1.09,497,497,0,0,0,63.63-4.32c-.47-2.09-4.37-9.12-8.17-14.81A96.42,96.42,0,0,0,257.88,17.26Zm-39,218.42c.69,0,1.28.08,1.86.09,2.9.08,5.8.08,8.7.24,5,.26,9.93.59,14.86,1.25,3.81.51,7.63,1,11.43,1.6,2.47.39,2,.33,3.6-1.07.53-.47,1-1,1.55-1.47a110,110,0,0,0,21.53-30.24,5.71,5.71,0,0,0,.27-.85,10.59,10.59,0,0,0-2.9-.48c-3.52-.45-7-.87-10.58-1.25q-4.59-.48-9.19-.85c-4.31-.35-8.62-.68-12.93-1-3.37-.22-6.74-.4-10.12-.5-5.62-.16-11.24-.25-16.87-.36a10.53,10.53,0,0,0-1.26.14c0,.43-.1.77-.11,1.11C218.55,209.2,218.65,233.84,218.89,235.68Zm-112.1-22c.16.62.71.92,1.13,1.3a153.32,153.32,0,0,0,47.26,28.72,4.13,4.13,0,0,0,2.75.15q8.82-2.44,17.81-4.14a10.82,10.82,0,0,0,1.26-.41,98.48,98.48,0,0,1-14-15.78,129.35,129.35,0,0,1-10.71-18.11C147,205.51,111.19,212,106.79,213.7ZM259.39,17c.48.5.83.89,1.21,1.24a94.31,94.31,0,0,1,8.82,9.5,119.41,119.41,0,0,1,13.73,21.53c.29.57.61,1.13.91,1.69a8.49,8.49,0,0,0,1.13,0c2.58-.37,5.16-.71,7.73-1.13,5.31-.88,10.63-1.72,15.92-2.73,6.57-1.25,13.11-2.64,19.66-4,.37-.08.82-.07,1.08-.56a13.71,13.71,0,0,0-1.91-1.82,154,154,0,0,0-46.6-28.11,3.84,3.84,0,0,0-2.57-.13c-5.82,1.6-11.69,3-17.63,4.1C260.43,16.64,260,16.8,259.39,17ZM106.62,42.63c5.1,1.83,41.7,8.42,45.69,8.26.91-1.74,1.82-3.53,2.78-5.29s2-3.52,3-5.24,2.12-3.42,3.25-5.08,2.23-3.21,3.41-4.77,2.47-3.18,3.77-4.71,2.69-3,4-4.48,2.89-2.74,4.34-4.35c-.62-.18-1-.34-1.5-.42-5.88-1.08-11.69-2.47-17.44-4.06a4.28,4.28,0,0,0-2.91.18,165.77,165.77,0,0,0-20.83,9.86,147.55,147.55,0,0,0-26.1,18.64C107.66,41.6,107.21,42.06,106.62,42.63ZM259.33,239.34a10.69,10.69,0,0,0,1.1.37c6,1.09,11.93,2.5,17.8,4.11a4.68,4.68,0,0,0,3.09-.15,157.12,157.12,0,0,0,38-21.17c3.31-2.51,6.5-5.15,9.56-8,.28-.25.73-.45.54-1-8.59-2.36-41.77-8.27-45.47-8.07C277.8,218.06,270,229.57,259.33,239.34ZM154.43,11.72a10.79,10.79,0,0,0-1.13-.55c-2.49-.78-5-1.53-7.45-2.34a3.86,3.86,0,0,0-2.1-.09l-4,.91A289.91,289.91,0,0,0,95.71,23.24q-10.8,4.32-21.15,9.66c-.49.26-1.08.41-1.41,1,2,1.12,26.49,7.63,32,8.51A154.56,154.56,0,0,1,154.43,11.72Zm209,22.11c-.48-.29-.77-.49-1.08-.65-1.43-.72-2.85-1.46-4.28-2.16-20.82-10.28-42.73-17.35-65.38-22.26a4.14,4.14,0,0,0-2.26.1c-2.42.8-4.85,1.53-7.28,2.29-.33.11-.64.27-1,.42.12.15.17.26.26.3.54.25,1.08.49,1.63.71a153.56,153.56,0,0,1,46.28,29c.34.32.72.59,1,.83C339.38,40.74,360.65,35.09,363.4,33.83ZM282.25,244.55l0,.34c.27.1.53.2.8.28,2.26.71,4.54,1.36,6.77,2.15a5.77,5.77,0,0,0,3.29.18,319.18,319.18,0,0,0,32.17-8.78,253.66,253.66,0,0,0,36.31-15.2c.57-.29,1.13-.61,1.91-1-.67-.24-1.09-.43-1.53-.55-5.07-1.41-10.14-2.86-15.23-4.2-4.57-1.21-9.19-2.25-13.77-3.44a2.83,2.83,0,0,0-3,.75,118,118,0,0,1-9.93,8.33,155.93,155.93,0,0,1-35.89,20.34C283.53,244,282.89,244.27,282.25,244.55Zm-128,0a164.3,164.3,0,0,1-25.94-12.94,149.5,149.5,0,0,1-23.06-17.55c-2.63.16-21.43,4.94-31.08,7.89-.36.11-.71.3-1.27.53.69.39,1.19.7,1.7,1,5.73,3,11.59,5.69,17.54,8.18a285.72,285.72,0,0,0,42.31,13.82c2.93.72,5.87,1.38,8.82,2a4.4,4.4,0,0,0,2.44.08c2.65-.87,5.3-1.68,8-2.53C153.79,245,153.9,244.85,154.24,244.57ZM217.47,237a7.58,7.58,0,0,0-.94-.11c-4.74,0-9.48.17-14.2.53-4.24.33-8.48.79-12.71,1.27-2.76.31-5.51.77-8.26,1.17a2.79,2.79,0,0,0-.69.17c-.19.07-.51,0-.5.46.2.19.44.44.71.66a66.91,66.91,0,0,0,15.37,9.45,53.25,53.25,0,0,0,19.22,4.57,1.22,1.22,0,0,0,2.15-.79C217.75,252.53,217.64,238.28,217.47,237ZM217.42,1.14a52.38,52.38,0,0,0-19.59,4c-6.27,2.5-15.24,8.07-17.71,11a2.58,2.58,0,0,0,.63.3,221.15,221.15,0,0,0,35.32,3.07,12.65,12.65,0,0,0,1.43-.13c.05-.49.12-.89.13-1.29C217.8,10.46,217.72,3,217.42,1.14ZM218.85,255c3.46.7,12.65-.92,19.09-3.48s16.35-8.62,18.32-11.36c-.67-.14-1.3-.29-1.94-.38-2.16-.34-4.32-.71-6.49-1q-5.82-.68-11.66-1.2c-2.53-.23-5.07-.38-7.62-.49-2.89-.12-5.79-.16-8.69-.22a4.93,4.93,0,0,0-1,.14c-.2,1.49-.3,13.49-.15,17.13C218.75,254.45,218.82,254.73,218.85,255Zm0-253.78c-.2,1.6-.29,13.56-.15,17.22,0,.28.07.56.1.81,3.52.75,22.17-.57,34.32-2.45a7.09,7.09,0,0,0,3.15-.77c-.38-.34-.66-.63-1-.88A69.74,69.74,0,0,0,244.58,8a56.77,56.77,0,0,0-21.72-6.67A20.9,20.9,0,0,0,218.89,1.2Zm-60,243.65c5.26,3.33,34.55,9.73,44.74,9.72-.79-.3-1.26-.5-1.74-.66a63.29,63.29,0,0,1-15.34-7.28A69.87,69.87,0,0,1,179,241a1.94,1.94,0,0,0-1.78-.47c-5.75,1.11-11.46,2.38-17.13,3.86C159.7,244.52,159.33,244.69,158.89,244.85Zm74,9.71a5.31,5.31,0,0,0,.81.06c2.29-.23,4.59-.43,6.88-.72,5.86-.77,11.69-1.76,17.45-3.1a167.53,167.53,0,0,0,18.21-5.27c.42-.15.88-.21,1.14-.73-.32-.11-.59-.24-.87-.31-5.77-1.53-11.6-2.82-17.46-4a1.69,1.69,0,0,0-1.62.45,9,9,0,0,1-.82.68A65.67,65.67,0,0,1,234.17,254,12.59,12.59,0,0,0,232.85,254.56ZM148,248l0,.34a2.5,2.5,0,0,0,.6.28,328.68,328.68,0,0,0,38.25,5.27,15,15,0,0,0-2.18-.6,162.83,162.83,0,0,1-18.23-4.52c-3-.94-5.94-2-8.91-3a2.32,2.32,0,0,0-1.54-.2C153.27,246.39,150.61,247.18,148,248Zm140.57.16a6.33,6.33,0,0,0-.7-.28c-2.15-.67-4.31-1.29-6.43-2a4.36,4.36,0,0,0-3.08.12,161.54,161.54,0,0,1-21.79,6.31l-6.92,1.48a300,300,0,0,0,38.46-5.23C288.22,248.49,288.33,248.3,288.53,248.13Zm-141-240c.67.26,1,.43,1.42.55,2.1.64,4.21,1.23,6.29,1.91a3.54,3.54,0,0,0,2.4-.07c3.3-1.13,6.61-2.25,10-3.28A172.43,172.43,0,0,1,184.84,3a9.11,9.11,0,0,0,1-.33C180.29,2.54,153.86,6.31,147.55,8.13Zm141.11,0c-4.25-1.55-34.25-5.88-38.23-5.39.43.13.64.2.84.24,4.33,1,8.67,1.88,13,3a125.5,125.5,0,0,1,14,4.44,4.58,4.58,0,0,0,3.26.07c1.9-.64,3.84-1.18,5.76-1.78C287.72,8.56,288.14,8.35,288.66,8.14ZM186.89,2.4l0,.08.1,0Z"/></g></g></svg>