<svg viewBox="0 0 317 316" fill="none" xmlns="http://www.w3.org/2000/svg">
<path d="M316.015 158.58C316.089 161.921 315.941 165.781 315.645 169.642C314.533 184.936 311.274 199.71 305.867 214.039C289.496 257.175 255.126 290.956 211.867 306.621C203.719 309.591 195.348 311.818 186.756 313.377C181.941 314.268 177.052 314.936 172.163 315.382C165.645 315.976 159.126 316.124 152.533 315.902C147.348 315.753 142.089 315.308 136.904 314.565C75.2742 306.324 25.5705 262.966 7.42232 205.873C5.05195 198.374 3.2001 190.727 2.01492 182.931C1.27418 178.254 0.755659 173.502 0.385288 168.751C-0.0591563 162.143 -0.13323 155.461 0.23714 148.854C1.27418 131.332 4.97788 114.479 11.6445 98.2938C29.6445 54.2673 66.5334 20.635 111.941 6.75142C118.385 4.74684 124.978 3.26197 131.645 2.14832C136.311 1.33164 141.052 0.811934 145.719 0.440716C151.2 -0.00474543 156.756 -0.078989 162.311 0.0694982C166.015 0.143742 169.645 0.366472 173.348 0.73769C182.311 1.62861 191.126 3.26197 199.867 5.63777C241.126 16.9228 276.756 44.9869 297.422 83.5193C304.533 96.8089 309.645 110.841 312.756 125.615C313.719 130.144 314.459 134.747 314.978 139.425C315.793 146.404 316.015 151.972 316.015 158.58ZM136.163 313.229C136.311 313.229 136.459 313.229 136.607 313.229C136.459 313.229 136.311 313.229 136.163 313.229C136.089 313.08 136.089 312.932 136.015 312.932C135.793 312.783 135.496 312.783 135.274 312.635C127.867 310.408 120.83 307.141 114.237 303.058C113.941 302.909 113.645 302.761 113.274 302.538C111.274 303.577 109.2 304.691 107.2 305.73C107.052 305.805 106.978 305.953 106.83 306.176C116.459 309.517 126.163 311.818 136.163 313.229ZM47.7186 157.243C47.8668 155.684 47.7927 154.051 47.8668 152.492C47.9408 150.858 48.0149 149.225 48.089 147.591C48.1631 145.958 48.2371 144.251 48.3853 142.617C48.4594 140.984 48.6075 139.35 48.7557 137.717C48.9038 136.084 49.052 134.45 49.2742 132.891C49.4223 131.258 49.6446 129.625 49.8668 128.065C50.089 126.432 50.3112 124.873 50.6075 123.24C50.8297 121.606 51.126 120.047 51.4223 118.414C51.7186 116.78 52.0149 115.147 52.3853 113.514C52.6816 111.955 53.052 110.321 53.4223 108.762C53.7927 107.203 54.1631 105.644 54.5334 104.085C54.3853 104.011 54.3112 103.936 54.2371 103.862C41.2001 101.189 28.1631 98.2195 15.3483 94.7301C15.2001 94.7301 15.126 94.7301 14.9038 94.6558C14.7557 94.8785 14.6075 95.1013 14.5334 95.324C14.1631 96.1407 13.8668 96.9574 13.4964 97.774C9.27418 107.945 6.16307 118.488 4.08899 129.328C3.34825 133.188 2.75566 137.123 2.38529 141.058C2.16307 143.582 1.86677 146.107 1.71862 148.705C1.57047 151.229 1.4964 153.828 1.42233 156.352C1.42233 156.723 1.34825 157.095 1.64455 157.317C2.53344 157.317 46.3112 157.392 47.7186 157.243ZM314.608 157.243C314.682 157.02 314.756 156.946 314.756 156.872C314.756 156.501 314.756 156.204 314.756 155.833C314.756 149.299 314.163 142.84 313.348 136.381C312.533 130.218 311.274 124.131 309.719 118.191C307.719 110.544 305.126 103.12 302.015 95.918C301.793 95.4725 301.719 94.9528 301.274 94.6558C299.422 95.1755 297.57 95.621 295.719 96.1407C293.867 96.5862 292.015 97.1059 290.089 97.5513C288.237 97.9968 286.311 98.4422 284.459 98.9619C282.533 99.4074 280.608 99.8529 278.682 100.298C276.83 100.744 274.904 101.115 273.052 101.56C271.2 102.006 269.274 102.377 267.422 102.823C265.57 103.194 263.645 103.491 261.719 104.011C262.089 105.57 262.459 106.98 262.756 108.465C263.052 109.95 263.422 111.361 263.719 112.845C264.015 114.33 264.311 115.741 264.608 117.226C264.904 118.711 265.126 120.196 265.348 121.606C265.57 123.091 265.793 124.576 266.015 126.061C266.237 127.546 266.459 129.031 266.608 130.515C266.756 132 266.978 133.485 267.126 134.97C267.274 136.455 267.422 137.94 267.57 139.425C267.719 140.91 267.793 142.394 267.867 143.879C267.941 145.364 268.015 146.849 268.089 148.334C268.163 149.819 268.237 151.304 268.237 152.789C268.311 154.273 268.237 155.758 268.311 157.243C268.533 157.317 268.607 157.392 268.756 157.392C283.867 157.392 298.904 157.392 314.015 157.392C314.237 157.317 314.385 157.243 314.608 157.243ZM54.3853 212.109C54.2371 211.441 54.1631 210.996 54.0149 210.55C52.4594 204.239 51.2001 197.929 50.2371 191.544C49.4964 186.644 48.9038 181.818 48.5334 176.843C48.1631 171.795 47.8668 166.746 47.7927 161.698C47.7927 160.955 47.7927 160.213 47.7927 159.47C47.7927 159.248 47.7186 158.951 47.6446 158.654C32.3853 158.654 17.126 158.654 1.94084 158.654C1.7927 158.654 1.64455 158.728 1.42233 158.802C1.27418 159.322 1.27418 159.767 1.34825 160.287C1.4964 163.183 1.57047 166.078 1.71862 168.974C1.94084 173.354 2.45936 177.734 3.12603 182.115C4.31121 189.762 6.01492 197.335 8.38529 204.685C10.0149 209.956 11.9408 215.153 14.1631 220.276C14.3112 220.647 14.3853 221.093 14.9038 221.464C27.8668 217.826 40.9779 214.708 54.3853 212.109ZM301.422 221.241C307.57 207.358 311.496 192.954 313.496 177.883C314.163 172.537 315.052 160.881 314.533 158.654C314.015 158.654 313.496 158.58 312.978 158.58C298.608 158.58 284.311 158.58 269.941 158.58C269.645 158.58 269.348 158.58 269.052 158.58C268.83 158.58 268.533 158.654 268.311 158.728C268.237 160.733 268.237 162.737 268.163 164.742C268.089 166.746 268.015 168.677 267.941 170.681C267.793 172.686 267.645 174.69 267.496 176.769C267.348 178.774 267.126 180.704 266.904 182.709C266.682 184.639 266.459 186.644 266.163 188.574C265.867 190.504 265.645 192.509 265.274 194.439C264.978 196.444 264.608 198.448 264.237 200.379C263.867 202.309 263.422 204.239 263.052 206.17C262.682 208.1 262.089 209.956 261.719 211.886C261.867 212.035 261.941 212.109 262.015 212.109C275.052 214.782 288.089 217.752 300.904 221.241C301.052 221.241 301.2 221.241 301.422 221.241ZM157.348 157.169C157.496 155.758 157.496 115.37 157.348 114.33C156.904 114.033 156.459 114.108 155.941 114.108C149.867 113.959 143.719 113.885 137.645 113.736C135.274 113.662 132.904 113.514 130.533 113.439C126.978 113.217 123.348 112.994 119.793 112.771C117.274 112.623 114.682 112.4 112.163 112.177C109.126 111.88 106.015 111.583 102.978 111.286C102.756 111.286 102.459 111.286 102.237 111.286C101.052 116.483 99.4223 143.805 99.4964 156.13C99.4964 156.501 99.5705 156.872 99.5705 157.243C99.7927 157.317 99.8668 157.392 100.015 157.392C118.978 157.392 137.941 157.392 156.904 157.392C156.978 157.317 157.126 157.243 157.348 157.169ZM213.941 111.138C213.422 111.138 212.978 111.212 212.607 111.212C210.459 111.435 208.311 111.658 206.163 111.88C202.459 112.177 198.756 112.549 194.978 112.771C189.57 113.142 184.237 113.514 178.83 113.736C173.867 113.959 168.904 113.959 163.941 114.108C162.459 114.108 161.052 114.108 159.57 114.182C159.274 114.182 158.978 114.256 158.682 114.33C158.533 115.444 158.459 153.308 158.533 156.649C158.533 156.872 158.608 157.095 158.608 157.317C159.2 157.466 159.793 157.466 160.311 157.466C178.385 157.466 196.459 157.466 214.533 157.466C214.904 157.466 215.274 157.466 215.57 157.466C215.793 157.466 216.089 157.392 216.385 157.317C216.533 141.8 215.793 126.506 213.941 111.138ZM157.422 158.802C156.682 158.58 156.163 158.654 155.57 158.654C137.496 158.654 119.422 158.654 101.348 158.654C100.978 158.654 100.682 158.654 100.311 158.654C100.089 158.654 99.7927 158.728 99.4964 158.802C99.4964 159.396 99.4964 159.916 99.4964 160.436C99.4964 169.271 99.8668 178.031 100.459 186.792C100.83 192.138 101.348 197.483 101.867 202.829C101.941 203.497 101.941 204.165 102.237 204.759C102.533 204.759 102.756 204.759 102.904 204.759C104.015 204.685 105.052 204.536 106.163 204.462C108.459 204.239 110.756 204.017 113.126 203.868C115.867 203.645 118.533 203.348 121.274 203.2C124.83 202.977 128.459 202.754 132.015 202.606C135.867 202.383 139.719 202.235 143.57 202.161C147.793 202.012 152.089 202.012 156.311 201.938C156.608 201.938 156.904 201.864 157.274 201.864C157.274 201.567 157.348 201.344 157.348 201.121C157.422 186.941 157.422 172.909 157.422 158.802ZM158.682 158.802C158.682 159.396 158.682 159.916 158.682 160.436C158.682 173.651 158.682 186.792 158.682 200.007C158.682 200.304 158.682 200.601 158.682 200.898C158.682 201.121 158.756 201.418 158.83 201.715C160.756 201.715 162.533 201.715 164.385 201.789C166.237 201.789 168.089 201.864 169.941 201.938C171.793 202.012 173.645 202.012 175.496 202.086C177.348 202.161 179.2 202.235 181.052 202.309C182.83 202.383 184.682 202.457 186.459 202.606C188.311 202.68 190.163 202.829 191.941 202.903C193.793 203.051 195.645 203.2 197.422 203.348C199.274 203.497 201.126 203.645 202.904 203.794C204.756 203.942 206.607 204.165 208.385 204.314C210.237 204.462 212.015 204.759 213.941 204.759C214.682 199.191 215.126 193.622 215.57 188.054C216.237 178.477 216.607 168.899 216.607 159.322C216.607 159.173 216.533 159.025 216.459 158.802C216.089 158.802 215.719 158.728 215.422 158.728C201.719 158.431 160.163 158.505 158.682 158.802ZM260.311 104.085C257.2 104.679 254.237 105.198 251.2 105.792C248.237 106.312 245.2 106.832 242.237 107.277C239.274 107.723 236.237 108.242 233.274 108.688C230.311 109.133 227.274 109.505 224.311 109.876C221.348 110.321 218.311 110.544 215.348 110.989C215.2 111.732 215.348 112.4 215.422 113.068C215.719 116.186 216.089 119.305 216.385 122.423C216.608 125.244 216.83 128.065 216.978 130.812C217.274 135.341 217.496 139.87 217.645 144.399C217.793 148.334 217.793 152.195 217.867 156.13C217.867 156.501 217.719 156.946 218.163 157.317C218.607 157.317 219.126 157.317 219.645 157.317C234.83 157.317 250.015 157.317 265.2 157.317C265.496 157.317 265.793 157.317 266.089 157.317C266.311 157.317 266.608 157.243 266.83 157.169C267.052 152.64 266.533 138.385 264.533 125.17C263.496 118.117 262.163 111.138 260.311 104.085ZM55.8668 104.085C55.4223 104.753 55.4223 105.347 55.2742 105.941C53.7186 112.326 52.4594 118.785 51.4964 125.318C50.9038 129.402 50.3853 133.485 50.0149 137.643C49.7186 141.429 49.4964 145.29 49.2742 149.076C49.126 151.526 49.2001 153.902 49.126 156.352C49.126 156.649 49.2001 156.946 49.2742 157.317C49.9408 157.317 50.4594 157.317 51.052 157.317C66.089 157.317 81.126 157.317 96.2371 157.317C96.6075 157.317 96.9038 157.317 97.2742 157.317C97.4964 157.317 97.7927 157.243 98.0149 157.243C98.2371 156.723 98.1631 156.204 98.1631 155.758C98.2371 153.011 98.1631 150.19 98.3112 147.443C98.4594 142.469 98.6816 137.494 98.9779 132.52C99.126 129.55 99.3482 126.581 99.5705 123.537C99.9408 119.676 100.385 115.741 100.756 111.88C100.756 111.583 100.756 111.286 100.756 110.915C85.6445 109.282 70.7557 106.98 55.8668 104.085ZM266.978 158.802C266.756 158.654 266.682 158.654 266.608 158.654C266.459 158.654 266.237 158.58 266.089 158.58C250.163 158.58 234.237 158.58 218.311 158.654C218.237 158.654 218.237 158.654 218.163 158.654C218.089 158.654 218.089 158.728 217.941 158.877C217.941 160.955 217.941 163.108 217.867 165.336C217.793 167.563 217.793 169.716 217.719 171.943C217.645 174.171 217.57 176.324 217.422 178.551C217.274 180.778 217.126 182.931 217.052 185.159C216.904 187.386 216.756 189.539 216.607 191.766C216.459 193.994 216.163 196.147 216.015 198.3C215.867 200.453 215.496 202.68 215.348 204.908C215.867 204.982 216.237 205.13 216.682 205.13C219.867 205.501 223.126 205.873 226.311 206.318C231.422 207.061 236.533 207.729 241.645 208.62C247.57 209.585 253.496 210.699 259.422 211.738C259.719 211.812 260.015 211.812 260.385 211.812C262.608 203.126 264.237 194.365 265.348 185.53C266.385 176.621 266.978 167.712 266.978 158.802ZM49.2001 158.654C49.126 159.025 49.126 159.248 49.126 159.396C49.126 169.493 49.8668 179.516 51.2742 189.465C52.3112 196.815 53.7186 204.017 55.4964 211.218C55.5705 211.367 55.6445 211.515 55.7186 211.664C55.8668 211.664 55.9408 211.738 56.0149 211.738C70.6075 208.991 85.2001 206.689 99.9408 205.056C100.089 205.056 100.311 204.982 100.459 204.908C100.533 204.908 100.608 204.833 100.756 204.685C100.756 204.314 100.756 203.942 100.682 203.571C100.385 200.527 100.015 197.557 99.7927 194.513C99.5705 191.766 99.3482 189.094 99.2001 186.347C98.9038 181.892 98.6816 177.363 98.4594 172.909C98.3112 168.454 98.2371 163.999 98.1631 159.619C98.1631 159.322 98.089 159.025 98.089 158.728C97.8668 158.654 97.7186 158.654 97.4964 158.654C81.4964 158.654 65.4223 158.654 49.2001 158.654ZM157.348 246.038C157.348 245.519 157.348 245.073 157.348 244.554C157.348 231.264 157.348 217.9 157.348 204.611C157.348 204.314 157.348 204.091 157.348 203.794C157.348 203.571 157.274 203.274 157.2 202.977C148.015 202.977 138.83 203.274 129.645 203.794C120.682 204.314 111.793 205.056 102.904 205.947C102.756 205.947 102.608 206.021 102.385 206.095C102.385 206.467 102.311 206.912 102.385 207.283C102.756 209.882 103.052 212.48 103.422 215.153C104.237 220.647 105.2 226.067 106.237 231.487C107.496 237.797 108.978 244.108 110.682 250.345C110.756 250.642 110.904 251.013 111.052 251.384C112.237 251.31 113.274 250.939 114.311 250.79C115.422 250.567 116.533 250.345 117.645 250.122C118.756 249.899 119.793 249.676 120.904 249.528C122.015 249.305 123.052 249.157 124.163 249.008C125.274 248.86 126.311 248.637 127.422 248.488C128.533 248.34 129.645 248.117 130.83 247.969C131.941 247.82 132.978 247.746 134.089 247.598C135.2 247.449 136.237 247.301 137.348 247.226C138.459 247.078 139.645 247.004 140.756 246.929C141.867 246.855 142.978 246.781 144.015 246.707C145.126 246.632 146.237 246.558 147.274 246.558C148.385 246.484 149.496 246.484 150.533 246.41C151.645 246.335 152.83 246.41 153.941 246.335C155.126 246.187 156.237 246.335 157.348 246.038ZM157.274 112.697C157.496 112.177 157.422 111.583 157.422 111.064C157.422 97.8483 157.422 84.5587 157.422 71.3433C157.422 71.0464 157.422 70.7494 157.422 70.4524C157.422 70.2297 157.348 69.9327 157.274 69.71C155.052 69.6357 152.83 69.6357 150.608 69.5615C148.385 69.4872 146.163 69.3388 143.941 69.1903C141.719 69.0418 139.57 68.8933 137.422 68.6706C135.2 68.4478 132.978 68.1509 130.756 67.9281C128.608 67.6311 126.385 67.3342 124.237 66.963C122.015 66.5917 119.867 66.1463 117.645 65.7751C115.496 65.4038 113.348 64.8099 111.2 64.4387C111.052 64.8099 110.978 65.1069 110.904 65.3296C108.682 73.4964 106.83 81.6632 105.348 89.9785C104.608 94.0619 104.015 98.2195 103.348 102.303C103.052 104.382 102.756 106.461 102.533 108.539C102.459 108.911 102.311 109.356 102.682 109.653C112.756 111.212 146.978 113.142 156.756 112.697C156.83 112.845 157.052 112.771 157.274 112.697ZM213.719 206.318C213.274 205.873 212.83 205.947 212.385 205.947C211.126 205.798 209.867 205.724 208.608 205.576C206.237 205.353 203.793 205.13 201.422 204.908C198.607 204.685 195.719 204.462 192.904 204.314C189.052 204.091 185.2 203.794 181.348 203.645C176.682 203.423 172.015 203.348 167.422 203.2C164.904 203.126 162.311 203.126 159.793 203.126C159.422 203.126 159.052 203.051 158.756 203.423C158.756 203.868 158.756 204.388 158.756 204.908C158.756 218.123 158.756 231.264 158.756 244.479C158.756 244.776 158.756 245.073 158.756 245.37C158.756 245.593 158.83 245.89 158.904 246.187C160.533 246.261 162.015 246.261 163.57 246.335C165.126 246.41 166.756 246.41 168.311 246.484C169.867 246.558 171.348 246.632 172.904 246.781C174.459 246.929 175.941 247.004 177.496 247.152C179.052 247.301 180.533 247.449 182.089 247.672C183.645 247.82 185.2 248.043 186.756 248.266C188.311 248.489 189.793 248.711 191.274 248.934C192.756 249.157 194.311 249.454 195.793 249.676C197.348 249.973 198.904 250.27 200.459 250.567C201.941 250.864 203.422 251.31 204.904 251.384C205.793 249.379 207.719 241.51 210.015 230.299C211.57 222.355 212.83 214.336 213.719 206.318ZM213.719 109.727C213.719 109.505 213.719 109.43 213.719 109.282C213.2 105.495 212.756 101.709 212.163 97.9225C211.126 91.4633 210.015 85.0042 208.533 78.6192C207.496 74.2388 206.385 69.9327 205.348 65.5523C205.274 65.1811 205.126 64.8099 204.978 64.4387C203.2 64.8099 201.57 65.1811 199.867 65.4781C198.163 65.8493 196.533 66.1463 194.83 66.4433C193.126 66.7402 191.348 67.0372 189.645 67.3342C187.941 67.5569 186.237 67.8539 184.533 68.0766C182.83 68.2993 181.126 68.5221 179.422 68.6706C177.719 68.819 176.015 69.0418 174.311 69.116C172.533 69.2645 170.83 69.3388 169.052 69.4872C167.348 69.5615 165.645 69.6357 163.941 69.71C162.237 69.7842 160.533 69.71 158.83 69.8585C158.682 70.4524 158.682 70.9721 158.682 71.4918C158.682 84.7072 158.682 97.9968 158.682 111.212C158.682 111.509 158.682 111.806 158.682 112.103C158.682 112.326 158.756 112.623 158.83 112.845C165.348 113.514 207.274 111.138 213.719 109.727ZM109.719 251.681C109.052 249.157 108.459 246.707 107.793 244.257C107.2 241.732 106.608 239.208 106.015 236.684C105.496 234.159 104.978 231.709 104.459 229.185C103.941 226.661 103.496 224.062 103.126 221.538C102.682 219.014 102.385 216.49 101.941 213.965C101.496 211.441 101.348 208.842 100.83 206.318C96.3853 206.244 59.8668 211.812 56.089 213.149C56.089 213.223 56.0149 213.297 56.0149 213.371C56.089 213.743 56.1631 214.039 56.2371 214.411C58.4594 222.726 61.2001 230.893 64.6075 238.837C67.7927 246.41 71.4223 253.686 75.6445 260.664C75.9408 261.11 76.089 261.63 76.6075 262.001C77.9408 261.481 79.2742 260.961 80.6816 260.516C82.0149 259.996 83.4223 259.551 84.7557 259.031C86.089 258.586 87.4964 258.066 88.9038 257.62C90.2371 257.175 91.5705 256.73 92.9038 256.358C94.3112 255.913 95.6445 255.467 97.052 255.096C98.4594 254.725 99.8668 254.28 101.2 253.908C102.608 253.537 104.015 253.166 105.422 252.795C106.904 252.423 108.385 252.275 109.719 251.681ZM259.793 102.748C259.793 102.6 259.867 102.526 259.867 102.451C259.793 102.154 259.719 101.857 259.645 101.56C257.052 91.8346 253.719 82.3314 249.57 73.1252C246.756 66.8887 243.645 60.875 240.089 55.0097C239.867 54.6385 239.719 54.1188 239.2 53.8218C238.978 53.8961 238.682 53.9703 238.459 54.0446C228.163 57.9795 217.645 61.3204 206.83 63.8447C206.608 63.919 206.459 63.9932 206.237 64.1417C206.311 64.5129 206.385 64.8099 206.459 65.1069C207.348 68.5221 208.237 72.0115 209.052 75.4267C210.533 81.8117 211.793 88.1966 212.83 94.6558C213.57 99.1847 214.163 103.714 214.756 108.242C214.83 108.688 214.904 109.059 215.052 109.43C218.385 109.579 246.83 105.347 259.052 102.897C259.422 102.971 259.645 102.823 259.793 102.748ZM206.385 251.829C207.867 252.201 209.2 252.572 210.607 252.943C212.015 253.314 213.422 253.686 214.83 254.057C216.237 254.428 217.645 254.799 218.978 255.245C220.311 255.616 221.645 256.061 222.978 256.433C224.385 256.878 225.719 257.323 227.126 257.769C228.533 258.214 229.867 258.66 231.2 259.18C232.533 259.625 233.941 260.145 235.274 260.664C236.608 261.11 237.941 261.778 239.422 262.149C239.719 261.704 239.941 261.333 240.237 260.887C243.2 255.987 245.867 250.939 248.311 245.816C253.052 235.719 256.83 225.176 259.719 214.411C259.793 214.039 260.015 213.668 259.793 213.223C254.83 212.258 249.867 211.292 244.904 210.55C239.941 209.733 235.052 208.991 230.089 208.248C220.682 206.912 216.163 206.392 215.052 206.541C214.978 206.912 214.904 207.358 214.83 207.803C214.385 210.995 213.941 214.262 213.496 217.455C212.756 222.355 211.941 227.181 210.978 232.006C209.719 238.391 208.237 244.702 206.533 251.013C206.459 251.087 206.385 251.458 206.385 251.829ZM100.978 109.579C101.052 109.356 101.052 109.208 101.126 108.985C101.719 104.753 102.311 100.447 102.978 96.2149C103.719 91.1664 104.682 86.0436 105.793 81.0692C106.904 75.798 108.163 70.5266 109.57 65.3296C109.645 64.9584 109.941 64.5872 109.645 64.1417C109.496 64.0675 109.274 63.9932 109.052 63.919C107.126 63.3993 105.126 62.9538 103.2 62.4341C94.6075 60.1325 86.1631 57.3855 77.7927 54.1931C77.4223 54.0446 77.052 53.9703 76.6075 53.8218C71.7186 61.6917 67.6445 69.9327 64.1631 78.3965C60.9038 86.3405 56.5334 99.6301 56.2371 102.674C56.3853 102.748 56.6075 102.823 56.8297 102.897C67.5705 105.198 97.4223 109.653 100.978 109.579ZM75.2742 262.446C75.126 262.149 74.9038 261.778 74.7557 261.407C68.3853 250.864 63.2742 239.654 59.2742 227.997C57.7186 223.468 56.3112 218.865 55.052 214.262C54.9779 213.965 54.9779 213.52 54.5334 213.371C54.089 213.446 53.6445 213.52 53.126 213.594C48.0149 214.708 42.8297 215.821 37.7186 216.935C30.5334 218.494 23.4223 220.35 16.3112 222.206C16.0149 222.281 15.7186 222.429 15.3483 222.577C15.4223 222.726 15.4223 222.874 15.4223 222.949C15.5705 223.32 15.7186 223.691 15.8668 224.062C20.9038 234.902 27.052 244.925 34.3853 254.354C39.3483 260.739 44.7557 266.604 50.6075 272.172C50.9779 272.543 51.2742 272.989 51.8668 273.137C59.4223 269.351 67.126 265.862 74.9779 262.743C75.126 262.669 75.2001 262.595 75.2742 262.446ZM264.237 273.212C274.163 264.08 282.682 253.908 289.867 242.698C294.015 236.238 300.015 225.102 300.682 222.577C300.385 222.503 300.015 222.355 299.719 222.281C290.756 219.905 281.793 217.677 272.756 215.747C269.2 215.005 265.645 214.262 262.089 213.52C261.867 213.446 261.57 213.446 261.348 213.446C261.2 213.891 261.052 214.262 260.978 214.633C256.533 231.264 250.089 247.078 241.126 261.852C240.978 262.075 240.904 262.298 240.756 262.595C248.756 265.787 256.533 269.351 264.237 273.212ZM54.7557 102.451C55.2742 100.744 55.7186 99.0362 56.1631 97.4028C56.6816 95.6952 57.2001 93.9876 57.7186 92.2058C58.2371 90.4982 58.8297 88.8648 59.4223 87.2315C60.0149 85.5238 60.6075 83.8163 61.2742 82.1829C61.8668 80.5495 62.5334 78.9162 63.2001 77.2828C63.8668 75.6495 64.6075 73.9419 65.3483 72.3085C66.089 70.6751 66.8297 69.116 67.5705 67.5569C68.3853 65.9235 69.2001 64.3644 70.0149 62.7311C70.8297 61.172 71.7186 59.6128 72.5334 58.128C73.4223 56.5689 74.3853 55.084 75.2001 53.5249C75.126 53.3764 75.126 53.3021 75.052 53.3021C67.2001 50.1097 59.4964 46.6945 51.9408 42.8338C51.9408 42.8338 51.8668 42.8338 51.7927 42.8338C51.7186 42.8338 51.7186 42.8338 51.5705 42.8338C51.2742 43.0565 50.9779 43.3535 50.6075 43.6505C40.7557 53.0794 32.1631 63.5478 24.9038 75.204C21.4964 80.6238 18.5334 86.192 15.7927 91.983C15.5705 92.4285 15.2742 92.7997 15.3483 93.3937C28.089 96.8831 40.9779 99.8529 53.9408 102.451C54.2371 102.451 54.4594 102.451 54.7557 102.451ZM300.682 93.3194C300.385 91.983 299.126 89.3845 296.459 84.336C290.163 72.457 282.385 61.6174 273.348 51.743C269.57 47.6596 265.496 43.6505 264.163 42.7596C262.682 43.502 261.126 44.2444 259.57 44.9869C258.015 45.7293 256.459 46.4717 254.904 47.2142C253.348 47.9566 251.793 48.6248 250.237 49.293C248.682 49.9612 247.052 50.6294 245.496 51.2976C243.941 51.9658 242.311 52.4855 240.756 53.3021C240.83 53.8961 241.2 54.2673 241.422 54.6385C245.052 60.6523 248.237 66.8887 251.126 73.3479C255.052 82.2571 258.311 91.4633 260.83 100.892C260.978 101.412 261.052 101.932 261.348 102.377C264.311 102.303 295.719 95.027 300.682 93.3194ZM157.348 68.3736C157.348 67.7054 157.348 67.1857 157.348 66.666C157.348 53.4506 157.348 40.3095 157.348 27.0942C157.348 26.7972 157.348 26.5002 157.348 26.2032C157.348 25.9805 157.274 25.6835 157.2 25.4608C156.978 25.3866 156.83 25.3866 156.607 25.3866C155.2 25.3123 153.793 25.2381 152.385 25.1638C148.756 25.0153 145.2 24.5699 141.645 23.9759C137.719 23.3077 133.941 22.4168 130.089 21.3032C129.867 21.2289 129.57 21.2289 129.348 21.1547C129.126 21.4516 128.978 21.6001 128.83 21.8229C126.756 25.0153 124.83 28.3563 123.126 31.7715C118.163 41.5717 114.459 51.8915 111.422 62.3599C111.348 62.5826 111.348 62.8053 111.348 62.9538C111.496 63.028 111.645 63.1765 111.719 63.1765C118.83 64.8099 126.089 65.9978 133.348 66.8887C140.015 67.7054 146.682 68.1509 153.422 68.2993C154.83 68.4478 156.015 68.3736 157.348 68.3736ZM157.274 247.523C156.83 247.523 156.533 247.449 156.163 247.449C143.867 247.598 131.645 248.785 119.57 251.013C116.904 251.533 114.237 251.978 111.496 252.72C111.57 253.166 111.645 253.463 111.719 253.76C114.163 262.372 117.126 270.762 120.83 278.854C123.126 283.903 125.719 288.803 128.682 293.48C128.904 293.851 129.126 294.371 129.645 294.668C129.941 294.594 130.237 294.594 130.533 294.445C134.015 293.406 137.496 292.589 141.052 291.995C144.237 291.401 147.496 290.956 150.682 290.807C152.682 290.659 154.607 290.659 156.607 290.51C156.83 290.51 157.126 290.436 157.348 290.362C157.422 289.397 157.422 248.934 157.274 247.523ZM158.83 68.3736C159.348 68.3736 159.793 68.4478 160.163 68.4478C164.089 68.4478 167.941 68.2993 171.867 68.0024C174.533 67.7796 177.2 67.6312 179.867 67.3342C183.496 66.8887 187.2 66.369 190.83 65.8493C195.2 65.2554 199.496 64.3644 203.719 63.3993C204.015 63.325 204.237 63.1765 204.533 63.028C204.459 62.6568 204.385 62.3599 204.311 62.0629C202.015 54.0446 199.274 46.1748 195.867 38.5277C193.422 32.9594 190.608 27.4654 187.274 22.3426C187.052 21.9714 186.756 21.5259 186.459 21.1547C186.163 21.2289 185.867 21.3032 185.645 21.3032C183.2 21.8971 180.83 22.5653 178.385 23.085C174.756 23.9017 171.126 24.4956 167.496 24.7926C164.83 25.0153 162.163 25.0896 159.496 25.3123C159.274 25.3123 158.978 25.3866 158.756 25.4608C158.682 26.6487 158.607 67.0372 158.83 68.3736ZM158.682 247.672C158.682 248.117 158.682 248.637 158.682 249.082C158.682 262.372 158.682 275.736 158.682 289.025C158.682 289.322 158.682 289.545 158.682 289.842C158.682 290.065 158.756 290.362 158.83 290.585C159.052 290.585 159.274 290.659 159.422 290.659C161.422 290.733 163.348 290.807 165.348 290.956C168.015 291.104 170.682 291.476 173.348 291.847C177.496 292.515 181.496 293.406 185.496 294.594C185.793 294.668 186.163 294.742 186.459 294.742C188.904 291.698 193.941 282.195 197.126 274.548C199.941 267.792 204.237 255.17 204.459 252.795C204.163 252.72 203.793 252.572 203.496 252.498C191.941 249.899 180.163 248.34 168.311 247.746C165.274 247.598 162.163 247.598 159.126 247.523C159.052 247.523 158.904 247.598 158.682 247.672ZM113.496 14.844C104.385 20.7835 96.4594 27.9851 89.4964 36.1519C84.7557 41.7201 78.2371 50.7779 77.5705 52.7082C77.8668 52.8567 78.089 52.9309 78.3853 53.0794C88.3853 56.8658 98.5334 60.0583 108.904 62.5826C109.274 62.6568 109.719 62.8796 110.237 62.7311C110.608 61.3947 111.052 60.0583 111.422 58.7219C111.793 57.3855 112.237 56.1234 112.682 54.8613C113.126 53.5249 113.57 52.1885 114.015 50.8521C114.459 49.5157 114.978 48.1793 115.422 46.9172C115.867 45.6551 116.385 44.3929 116.904 43.1308C117.422 41.7944 117.941 40.5322 118.533 39.2701C119.052 38.008 119.645 36.7458 120.237 35.5579C120.83 34.2958 121.422 33.0336 122.089 31.7715C122.756 30.5094 123.348 29.2472 124.015 28.0593C124.682 26.8714 125.348 25.6835 126.015 24.4956C126.682 23.3077 127.57 22.1941 128.163 20.8577C123.126 19.0016 118.311 17.1455 113.496 14.844ZM128.163 295.188C127.941 294.816 127.793 294.594 127.719 294.371C124.385 289.248 121.645 283.828 119.126 278.186C115.719 270.465 112.978 262.595 110.608 254.502C110.459 254.057 110.385 253.537 110.089 253.166C108.163 253.314 98.6075 255.913 90.7557 258.437C83.9408 260.664 78.6075 262.595 77.4223 263.337C77.4223 263.411 77.4223 263.486 77.4964 263.56C77.6445 263.857 77.7927 264.08 77.9408 264.377C82.2371 271.059 87.052 277.444 92.4594 283.234C98.3853 289.619 104.904 295.41 112.163 300.236C112.533 300.533 112.978 300.756 113.348 300.979C115.793 299.939 118.163 298.9 120.533 297.935C123.126 296.97 125.57 296.153 128.163 295.188ZM238.682 263.337C238.311 263.114 238.015 262.966 237.645 262.892C227.57 259.031 217.274 255.839 206.756 253.314C206.459 253.24 206.163 253.24 205.867 253.24C205.719 253.611 205.645 253.983 205.496 254.28C204.163 258.734 202.83 263.114 201.2 267.421C197.719 276.924 193.645 286.056 188.163 294.594C188.015 294.742 188.015 294.965 187.941 295.113C188.015 295.262 188.015 295.262 188.089 295.336C192.978 296.97 197.719 298.826 202.385 300.979C202.459 300.979 202.459 300.979 202.533 300.979C202.607 300.979 202.608 300.979 202.756 300.904C210.311 296.004 217.126 290.139 223.274 283.457C229.052 277.221 234.089 270.539 238.682 263.337ZM238.608 52.6339C238.385 52.2627 238.237 51.9658 238.089 51.6688C232.607 43.1308 226.385 35.261 219.2 28.2078C214.459 23.5305 209.348 19.3728 203.793 15.6606C203.422 15.3637 202.978 15.1409 202.607 14.9182C200.163 15.9576 197.793 16.997 195.348 17.9622C192.904 18.9274 190.459 19.8183 187.941 20.7092C188.089 21.0062 188.237 21.3032 188.385 21.5259C192.237 27.5396 195.422 33.9988 198.237 40.6065C201.126 47.4369 203.496 54.4158 205.57 61.4689C205.719 61.9144 205.867 62.2856 205.941 62.6568C210.607 62.2114 233.274 55.2325 238.608 52.6339ZM53.052 274.177C54.9038 276.478 65.4964 284.719 72.089 289.025C82.3853 295.782 93.3483 301.276 104.904 305.433C106.533 304.765 111.348 302.092 111.941 301.573C111.645 301.35 111.422 301.127 111.126 300.979C102.83 295.41 95.5705 288.729 89.0519 281.156C84.6075 276.033 80.6075 270.613 76.9038 264.896C76.6816 264.525 76.4594 264.005 76.089 263.783C72.8297 264.748 54.6075 272.84 53.052 274.177ZM263.052 41.6459C262.682 41.2747 262.311 40.9777 262.015 40.6807C250.533 30.5094 237.867 22.1941 223.941 15.6606C220.015 13.8788 216.089 12.1712 212.015 10.6863C211.348 10.4636 210.83 10.3894 210.163 10.7606C208.311 11.8 206.459 12.7652 204.608 13.7303C204.459 13.8046 204.311 13.953 204.089 14.0273C204.163 14.1758 204.163 14.1758 204.163 14.25C204.385 14.4728 204.608 14.6212 204.904 14.7697C212.459 19.8925 219.2 25.9063 225.274 32.6624C230.385 38.3049 234.904 44.3187 238.978 50.7036C239.274 51.1491 239.57 51.5945 239.793 51.9658C242.385 51.5945 260.978 43.205 263.052 41.6459ZM263.2 274.103C255.496 270.242 247.867 266.827 239.941 263.708C239.57 264.302 239.2 264.822 238.904 265.268C238.533 265.787 238.237 266.307 237.867 266.827C237.496 267.346 237.126 267.94 236.756 268.46C236.385 268.98 236.089 269.499 235.719 269.945C235.348 270.465 234.978 270.984 234.682 271.43C234.311 271.949 233.941 272.395 233.57 272.915C233.2 273.434 232.756 273.954 232.385 274.474C232.015 274.993 231.645 275.439 231.274 275.959C230.904 276.478 230.533 276.924 230.163 277.369C229.793 277.815 229.422 278.334 228.978 278.78C228.533 279.3 228.163 279.819 227.719 280.265C227.348 280.71 226.904 281.23 226.533 281.675C226.163 282.121 225.719 282.566 225.274 283.086C224.83 283.531 224.459 283.977 224.015 284.422C223.57 284.868 223.126 285.388 222.682 285.833C222.237 286.279 221.793 286.724 221.422 287.169C220.978 287.615 220.533 288.06 220.089 288.506C219.645 288.951 219.2 289.397 218.756 289.768C218.311 290.213 217.793 290.659 217.274 291.104C216.83 291.55 216.385 291.921 215.941 292.366C215.496 292.738 215.052 293.183 214.533 293.554C214.089 293.926 213.57 294.371 213.126 294.742C212.608 295.188 212.089 295.559 211.57 296.004C211.126 296.376 210.608 296.747 210.089 297.118C209.57 297.489 209.126 297.86 208.608 298.232C208.089 298.603 207.645 298.974 207.126 299.345C206.608 299.717 206.015 300.088 205.496 300.459C205.052 300.83 204.459 301.053 204.089 301.498C204.163 301.647 204.237 301.721 204.311 301.795C206.385 302.909 208.459 304.023 210.607 305.136C210.904 305.285 211.2 305.359 211.496 305.211C211.719 305.136 211.941 305.062 212.089 304.988C230.607 298.083 247.348 288.135 262.089 274.993C262.459 274.845 262.756 274.548 263.2 274.103ZM52.9779 41.8686C54.6816 42.6853 56.2371 43.4277 57.7927 44.2444C63.3483 46.9172 69.052 49.4415 74.7557 51.6688C75.2001 51.8173 75.5705 52.1885 76.1631 51.9658C76.7557 51.0748 77.2742 50.2582 77.8668 49.3672C83.2742 41.2004 89.3483 33.6276 96.3853 26.7972C100.904 22.4168 105.719 18.4077 110.978 14.9182C111.274 14.6955 111.719 14.6212 111.793 14.1015C111.422 13.8788 111.126 13.7303 110.756 13.5076C109.274 12.6909 107.719 11.8742 106.237 11.1318C104.682 10.3151 105.2 10.3151 103.422 10.9091C90.1631 15.8091 77.8668 22.4168 66.3853 30.6579C62.0149 33.7761 57.8668 37.117 53.8668 40.6807C53.6445 41.052 53.2742 41.2747 52.9779 41.8686ZM157.422 23.8274C157.422 16.4773 157.422 9.20146 157.422 1.85134C157.422 1.70286 157.348 1.55437 157.348 1.40588C157.2 1.33164 157.126 1.2574 157.052 1.2574C156.904 1.2574 156.682 1.2574 156.533 1.2574C154.978 1.33164 153.496 1.62861 152.015 1.99983C148.311 3.03924 144.978 4.89533 141.941 7.27112C137.57 10.6863 134.015 14.844 130.83 19.2986C130.682 19.4471 130.682 19.6698 130.608 19.9668C137.2 21.9714 143.867 23.085 150.682 23.679C153.422 23.9759 156.163 24.0502 157.422 23.8274ZM157.348 314.64C157.348 314.046 157.422 313.6 157.422 313.08C157.422 308.923 157.422 304.839 157.422 300.682C157.422 298.157 157.422 295.633 157.422 293.183C157.422 292.812 157.496 292.366 157.126 291.995C155.645 291.995 154.163 291.995 152.608 292.069C148.978 292.292 145.348 292.663 141.793 293.332C138.237 293.926 134.682 294.742 131.126 295.782C130.904 295.856 130.682 296.004 130.459 296.153C130.682 296.45 130.756 296.673 130.904 296.895C132.682 299.42 134.682 301.87 136.83 304.097C138.83 306.176 140.978 308.106 143.422 309.814C146.608 312.041 150.015 313.674 153.793 314.417C154.904 314.491 156.015 314.788 157.348 314.64ZM185.645 19.8183C185.496 19.5956 185.422 19.4471 185.348 19.2986C182.607 15.4379 179.57 11.8742 176.015 8.756C173.496 6.52869 170.756 4.6726 167.645 3.33622C165.052 2.22256 162.385 1.40588 159.57 1.2574C159.348 1.2574 159.052 1.18315 158.756 1.48013C158.756 1.85134 158.682 2.29681 158.682 2.81651C158.682 6.52869 158.682 10.1666 158.682 13.8788C158.682 16.8485 158.682 19.744 158.682 22.7138C158.682 23.085 158.533 23.5305 158.904 23.8274C163.57 24.5699 180.83 21.9714 185.645 19.8183ZM185.57 296.004C185.274 295.856 185.052 295.782 184.83 295.707C183.126 295.262 181.348 294.742 179.645 294.371C175.719 293.48 171.793 292.812 167.867 292.441C165.2 292.144 162.533 291.995 159.867 291.995C159.496 291.995 159.2 292.069 158.83 292.069C158.83 292.366 158.756 292.589 158.756 292.812C158.756 299.865 158.756 306.918 158.756 313.897C158.756 314.12 158.83 314.417 158.904 314.64C159.348 314.64 159.719 314.714 160.163 314.64C161.645 314.491 163.126 314.194 164.533 313.749C168.015 312.709 171.052 311.002 173.941 308.849C178.533 305.359 182.237 301.053 185.57 296.376C185.496 296.301 185.496 296.227 185.57 296.004ZM168.089 1.99983C168.459 2.22256 168.607 2.29681 168.83 2.44529C172.089 4.00441 174.978 6.15747 177.645 8.60751C180.83 11.503 183.57 14.844 186.089 18.3334C186.385 18.7046 186.682 19.0759 186.904 19.4471C188.83 19.1501 194.904 16.9228 199.645 14.7697C200.089 14.547 200.533 14.4728 200.904 14.1015C198.904 12.2454 189.719 7.79083 183.793 5.71201C178.608 3.78168 170.385 1.85134 168.089 1.99983ZM115.052 301.87C115.274 302.315 115.719 302.464 116.089 302.686C123.719 307.289 131.867 310.705 140.533 312.709C142.83 313.229 145.052 313.674 147.422 313.971C147.57 313.971 147.793 314.12 147.793 313.823C147.719 313.749 147.645 313.674 147.57 313.674C144.015 312.041 140.83 309.739 137.941 307.067C134.904 304.245 132.237 301.053 129.867 297.712C129.57 297.341 129.274 296.97 129.052 296.598C127.052 296.673 117.274 300.459 115.052 301.87ZM128.978 19.5213C129.274 19.1501 129.57 18.7789 129.793 18.4077C131.57 15.8834 133.57 13.4333 135.719 11.1318C139.126 7.5681 142.904 4.44987 147.422 2.29681C147.57 2.22256 147.793 2.07407 147.941 1.92559C147.126 1.85134 146.311 1.99983 145.57 2.07407C139.57 3.11348 133.793 4.74684 128.163 7.04839C123.867 8.83024 119.793 10.9091 115.867 13.2849C115.57 13.4333 115.2 13.5076 115.2 14.0273C119.57 16.2546 124.163 18.0364 128.978 19.5213ZM168.311 313.823C170.163 314.046 178.385 312.19 183.422 310.408C189.348 308.329 198.607 303.874 201.052 301.795C200.756 301.647 200.533 301.498 200.237 301.35C196.163 299.494 192.015 297.86 187.719 296.524C187.496 296.45 187.2 296.45 186.978 296.376C186.682 296.747 186.459 297.044 186.237 297.341C184.459 299.865 182.533 302.241 180.459 304.468C177.052 308.106 173.274 311.15 168.756 313.377C168.682 313.526 168.607 313.6 168.311 313.823ZM209.126 9.86965C208.163 9.2757 204.533 8.0878 198.533 6.45445C192.015 4.6726 181.867 2.74227 179.645 2.81651C183.645 4.07865 187.645 5.48928 191.422 7.19688C195.274 8.97873 199.052 10.9833 202.607 13.2106C204.015 12.8394 208.163 10.6121 209.126 9.86965ZM180.089 312.932C184.385 313.08 204.533 308.255 209.274 306.027C208.163 305.285 207.126 304.765 206.015 304.245C204.904 303.651 203.793 303.058 202.607 302.612C195.496 307.067 188.015 310.482 180.089 312.932ZM106.83 9.94389C107.274 10.1666 107.57 10.3894 107.867 10.5378C109.274 11.2803 110.756 12.0227 112.163 12.7651C113.57 13.5076 113.274 13.4333 114.533 12.6909C121.126 8.68175 128.015 5.48928 135.422 3.26197C135.793 3.18773 136.163 3.03924 136.682 2.81651C134.459 2.74227 125.57 4.44987 119.719 5.93474C113.941 7.34537 108.237 9.12721 106.83 9.94389Z" fill="black" fill-opacity="0.5"/>
</svg>
