<svg xmlns="http://www.w3.org/2000/svg" viewBox="0 0 428.88 417.59"><defs><style>.cls-1{fill:#fff;}</style></defs><title>lignes</title><g id="Calque_2" data-name="Calque 2"><g id="Layer_1" data-name="Layer 1"><path class="cls-1" d="M428.49,38.6a2.42,2.42,0,0,1,.09,1.87,5.37,5.37,0,0,1-1,.15c-5.68-.15-11.36-.46-17-1.15-6.05-.74-12.1-1.49-18.15-2.29-4.58-.61-9.13-1.36-13.71-2s-9.18-1.08-13.77-1.58c-3.88-.43-7.79-.63-11.7-.77-4.15-.16-8.29-.1-12.43.15a88.67,88.67,0,0,0-21.77,4c-7.38,2.38-14.77,4.73-22.25,6.76a126.47,126.47,0,0,1-15.62,3.31,57.07,57.07,0,0,1-30.78-4,119.71,119.71,0,0,1-17.83-9.55c-5.18-3.33-10.27-6.8-15.36-10.26C211,19,204.72,14.87,198.15,11.2a89.86,89.86,0,0,0-15-6.86,41.14,41.14,0,0,0-10.76-2.17A32.47,32.47,0,0,0,160,4,51.15,51.15,0,0,0,151.27,8c-3.25,1.83-6.48,3.71-9.65,5.66C134.26,18.16,127,22.82,119.41,27q-4.51,2.49-9.07,4.88a82.23,82.23,0,0,1-21.2,7.49,133.14,133.14,0,0,1-18.45,2.56,228.2,228.2,0,0,1-25.22.4c-4.62-.18-9.24-.31-13.85-.51-6-.27-12.07-.63-18.11-.88-3.79-.16-7.58-.18-11.37-.28a3,3,0,0,1-1.8-.27V38.76a6.3,6.3,0,0,1,1.15-.21c4.26.09,8.53.16,12.79.31,4,.14,8,.37,12.07.57,3.61.17,7.22.39,10.83.52,8.23.29,16.46.68,24.69.31,3.26-.15,6.52-.25,9.76-.52,10.67-.85,21.14-2.66,31.12-6.7,2.09-.85,4.13-1.8,6.14-2.81,8.51-4.3,16.71-9.16,24.81-14.19,4.78-3,9.58-5.91,14.42-8.77a59.77,59.77,0,0,1,11.4-5.33A34.3,34.3,0,0,1,172.8.07a45,45,0,0,1,11.95,2.57,98.5,98.5,0,0,1,16.33,7.78c6.57,3.78,12.88,8,19.1,12.32,5.2,3.62,10.45,7.17,15.87,10.46A117.18,117.18,0,0,0,251,41a55.53,55.53,0,0,0,16.24,4.32,55.91,55.91,0,0,0,11.35-.06c8.23-.85,16.17-3,24.06-5.34,5.67-1.7,11.3-3.5,16.95-5.26a84.44,84.44,0,0,1,14.74-3.13,120.1,120.1,0,0,1,19.33-.77q9.07.33,18.06,1.47c6.1.79,12.2,1.64,18.3,2.46,5.75.77,11.5,1.54,17.26,2.27a185.17,185.17,0,0,0,19.83,1.51C427.58,38.49,428.05,38.56,428.49,38.6Z"/><path class="cls-1" d="M428.87,119.15c-.12.72-.21,1.24-.31,1.83a7.13,7.13,0,0,1-1,0,99.28,99.28,0,0,1-28.06-9.25c-4.4-2.17-8.8-4.36-13.26-6.42a91.27,91.27,0,0,0-18.61-6.36,60.85,60.85,0,0,0-19.08-1,117.12,117.12,0,0,0-20.31,4.25c-10.82,3-21.64,6.11-32.46,9.15a164.76,164.76,0,0,1-17.3,4,81.26,81.26,0,0,1-18.75,1.13,85.06,85.06,0,0,1-21.35-4.32,92.19,92.19,0,0,1-17.17-7.64c-2.46-1.42-4.94-2.81-7.46-4.13a38.87,38.87,0,0,0-10.46-3.83,42.1,42.1,0,0,0-10.07-.84,102.68,102.68,0,0,0-15.33,1.86,219.34,219.34,0,0,0-25.65,7.08c-7.65,2.5-15.28,5.07-22.95,7.49a180.74,180.74,0,0,1-27.67,6.28c-6.21.93-12.45,1.63-18.7,2.14-13.6,1.1-27.22,1.28-40.85,1.15-13.39-.13-26.78-.33-40.16-.5-.47,0-.93,0-1.52-.07,0-.64-.06-1.21-.09-1.89a13.83,13.83,0,0,1,1.45-.14c5.51,0,11,0,16.53.15,15.46.28,30.92.53,46.38.16,5.87-.14,11.72-.47,17.57-.93,5.08-.39,10.15-.9,15.19-1.59a188.53,188.53,0,0,0,32.72-7.23c7.94-2.57,15.85-5.22,23.79-7.8,6.69-2.19,13.45-4.17,20.33-5.71a108.15,108.15,0,0,1,18.27-2.55,41.7,41.7,0,0,1,21,4.27c1.85.93,3.66,1.94,5.48,2.94,1.24.68,2.47,1.39,3.71,2.1a90.86,90.86,0,0,0,28.57,10.37,70.53,70.53,0,0,0,18.75,1A122.4,122.4,0,0,0,292.48,110c11-3,22-6.19,33-9.28,5.19-1.46,10.39-2.85,15.68-3.87a71.1,71.1,0,0,1,18.92-1.18,66.75,66.75,0,0,1,14.59,3,118.19,118.19,0,0,1,16.78,6.77c4.42,2.14,8.8,4.36,13.26,6.41a88.7,88.7,0,0,0,22.5,7C427.7,118.84,428.21,119,428.87,119.15Z"/><path class="cls-1" d="M428.85,92.34c-.11.61-.21,1.16-.3,1.69A3.29,3.29,0,0,1,426.7,94a234.37,234.37,0,0,1-28.3-7.49c-6.59-2.12-13.18-4.24-19.8-6.28a101.43,101.43,0,0,0-17.34-3.73,88.26,88.26,0,0,0-12.59-.6,109.9,109.9,0,0,0-26.78,4.21c-7.36,2-14.72,4.06-22.09,6a102.26,102.26,0,0,1-15.51,3,52.68,52.68,0,0,1-26.76-4,86.65,86.65,0,0,1-15.14-8.53,82.94,82.94,0,0,0-10.2-6.12,63.11,63.11,0,0,0-18.86-6A68.27,68.27,0,0,0,199,63.74a113.63,113.63,0,0,0-25.57,4.95c-7.66,2.3-15.15,5.07-22.64,7.84C142.87,79.45,135,82.36,127,84.92a189.21,189.21,0,0,1-27.6,6.62c-5.08.82-10.19,1.44-15.33,1.93-11.21,1.06-22.46,1.47-33.72,1.41-8.77,0-17.54-.19-26.31-.28l-21.5-.25A4.55,4.55,0,0,1,.33,94.1c0-.49,0-1-.07-1.61.38-.1.71-.2,1-.26a3.36,3.36,0,0,1,.71,0c8.47.11,16.94.17,25.41.35,11.5.23,23,.31,34.49.08,6.45-.14,12.9-.47,19.34-1a207.08,207.08,0,0,0,37.06-6.34c8.22-2.27,16.26-5.08,24.27-8,7.85-2.85,15.68-5.73,23.56-8.49a149.73,149.73,0,0,1,19.31-5.38,91.91,91.91,0,0,1,15.67-1.91,66.64,66.64,0,0,1,36.94,9.71c2,1.21,4,2.54,6,3.87a87.2,87.2,0,0,0,13.74,7.76,49.85,49.85,0,0,0,14.84,4.08,60.84,60.84,0,0,0,7.27.25,77.51,77.51,0,0,0,18-2.81c7.33-1.9,14.64-3.91,21.94-5.94a135.76,135.76,0,0,1,16.81-3.68,96.63,96.63,0,0,1,16.83-1A101.16,101.16,0,0,1,380,78.38c6.68,2,13.31,4.22,20,6.36a230.53,230.53,0,0,0,25.2,6.75c1,.19,2,.37,3,.58A5.81,5.81,0,0,1,428.85,92.34Z"/><path class="cls-1" d="M428.64,360.65v1.9a7.12,7.12,0,0,1-1.17.19c-1.84,0-3.67,0-5.51,0-6.28-.05-12.56-.08-18.84-.18-10.37-.16-20.73-.37-31.1-.57-22.39-.43-44.79-.73-67.18-.4-7.94.12-15.88.4-23.81.73q-9,.38-18.09,1.06-9.84.74-19.64,1.76c-6.83.72-13.65,1.58-20.43,2.67-4.33.69-8.65,1.4-13,2a140.1,140.1,0,0,1-28.35,1.5,119.34,119.34,0,0,1-31.45-6.14c-7.71-2.55-15.2-5.65-22.65-8.84-9.3-4-18.56-8.08-28-11.75C95.2,343,91,341.24,86.59,340a56,56,0,0,0-17-2.25,63.38,63.38,0,0,0-17.1,3,126,126,0,0,0-16.32,6.49c-6.21,2.92-12.39,5.91-18.62,8.81a143.69,143.69,0,0,1-15,6c-.6.21-1.22.37-1.94.6-.22-.66-.41-1.2-.61-1.81a4.05,4.05,0,0,1,.63-.37A207.6,207.6,0,0,0,26.1,349.61c5.92-2.85,11.82-5.74,17.93-8.17a84.83,84.83,0,0,1,15.09-4.62,58.79,58.79,0,0,1,16.43-1,65.32,65.32,0,0,1,16.91,3.87c9.73,3.56,19.28,7.58,28.79,11.69,7.71,3.33,15.41,6.71,23.29,9.63A138.2,138.2,0,0,0,165,367a119,119,0,0,0,14.58,2.05c4,.31,8.05.34,12.08.27,4.33-.07,8.63-.47,12.93-.95,5.48-.6,10.88-1.65,16.33-2.47,4.68-.7,9.38-1.32,14.07-1.93q5.46-.71,10.94-1.28c3.12-.33,6.25-.59,9.38-.85,3.83-.32,7.67-.61,11.51-.9,2.13-.16,4.26-.31,6.39-.4,6.62-.29,13.25-.59,19.88-.81,18.72-.63,37.44-.46,56.17-.28,9.36.09,18.71.38,28.07.52q24.43.35,48.88.61Z"/><path class="cls-1" d="M.31,67.4V65.53a9.36,9.36,0,0,1,1.23-.15c2.73,0,5.45,0,8.18,0,7.46.16,14.92.36,22.39.52,12,.27,24,.42,36.08.06,6.27-.19,12.53-.64,18.79-1.24a191.94,191.94,0,0,0,36.19-7.08c8.85-2.62,17.66-5.39,26.48-8.12,6.44-2,12.91-3.93,19.51-5.36a94.25,94.25,0,0,1,18.48-2.28,78.53,78.53,0,0,1,26,4.09,113.32,113.32,0,0,1,18.51,8.12c5.05,2.74,10.11,5.47,15.32,7.88a92.72,92.72,0,0,0,17.86,6.39,74.71,74.71,0,0,0,21.35,1.74,184.91,184.91,0,0,0,18.48-2.4q7.1-1.15,14.24-2c4.41-.54,8.84-.9,13.26-1.3,2.07-.19,4.14-.3,6.21-.39,10.78-.46,21.56-.59,32.34-.22,5.63.2,11.25.33,16.88.53,5.27.18,10.54.45,15.81.59,7.52.19,15,.3,22.57.44.64,0,1.29,0,1.94,0a2.87,2.87,0,0,1,.2,2c-.54,0-1,.1-1.46.1-5-.07-10-.12-14.93-.24-5.51-.12-11-.31-16.52-.49-5-.17-10-.41-14.92-.55-11.73-.35-23.46-.77-35.19-.26-3.85.16-7.7.25-11.54.53-4.54.32-9.09.74-13.62,1.27s-9.15,1.2-13.72,1.88c-3.22.48-6.42,1.12-9.64,1.59a98.48,98.48,0,0,1-18.95,1.13,77.67,77.67,0,0,1-25.35-5.72,175.68,175.68,0,0,1-18.7-9,150.07,150.07,0,0,0-14.17-7,86.5,86.5,0,0,0-18-5.41,74.72,74.72,0,0,0-18.05-1,113.56,113.56,0,0,0-24.2,4.6c-7.73,2.27-15.39,4.72-23.08,7.12-8.42,2.62-16.87,5.11-25.47,7.1-5.71,1.32-11.49,2.3-17.3,3.08s-11.66,1.3-17.51,1.65c-8.94.53-17.88.69-26.83.56-12.2-.19-24.41-.48-36.61-.71-3.55-.07-7.11-.08-10.66-.12C1.63,67.47,1.05,67.43.31,67.4Z"/><path class="cls-1" d="M.53,416.16a2.29,2.29,0,0,1-.21-1.82c.47-.1,1-.22,1.48-.32a242.92,242.92,0,0,0,25.09-6.46c7.82-2.37,15.63-4.74,23.47-7a157.41,157.41,0,0,1,17.28-4A95.11,95.11,0,0,1,89.4,395c9,.5,17.71,2.39,25.78,6.62,3,1.6,6.07,3.22,9.13,4.78,2.42,1.23,4.87,2.43,7.34,3.56a50.93,50.93,0,0,0,13.64,3.83,167.78,167.78,0,0,0,30.3,1.58c5.39-.14,10.78-.28,16.17-.53,16.4-.75,32.82-.53,49.23-.55q78-.06,156.07,0l29.33,0c.7,0,1.41,0,2.06,0a2.33,2.33,0,0,1,.14,1.87,3,3,0,0,1-1.71.22H416.4q-78,0-156.08,0-24.43,0-48.88.07c-8.24,0-16.47.38-24.7.7-9.65.38-19.3.67-29,.09a114.11,114.11,0,0,1-18.12-2.39A49.75,49.75,0,0,1,129,411.1c-2.83-1.35-5.6-2.84-8.4-4.26-3.27-1.66-6.52-3.37-9.84-4.94a52.69,52.69,0,0,0-14.83-4.12A76.55,76.55,0,0,0,83,397a98.81,98.81,0,0,0-13.08,1.25,213.79,213.79,0,0,0-28.76,7.12c-7.42,2.25-14.83,4.51-22.27,6.7a167.77,167.77,0,0,1-16.57,4A3.19,3.19,0,0,1,.53,416.16Z"/><path class="cls-1" d="M.78,389.48c-.67-.52-.43-1.19-.73-1.79a5.94,5.94,0,0,1,1-.45,190.7,190.7,0,0,0,24.32-7.81c6.86-2.59,13.71-5.22,20.61-7.72a118.43,118.43,0,0,1,17.94-5,73.75,73.75,0,0,1,20.86-1.19,66.19,66.19,0,0,1,15.4,3.34c9.81,3.34,19.49,7,29.18,10.67,7.75,2.93,15.52,5.79,23.48,8.12A138.35,138.35,0,0,0,172.76,392a121.14,121.14,0,0,0,14.86,1.18,166.2,166.2,0,0,0,16.7-.43c4-.35,7.89-.81,11.84-1.22,2.65-.28,5.29-.58,7.94-.85,3.3-.32,6.61-.63,9.91-.93,1.71-.16,3.42-.32,5.13-.43,7.27-.49,14.54-1,21.81-1.4,7.52-.38,15-.62,22.56-.86,17.41-.54,34.83-.68,52.24-.53,13.27.11,26.54.32,39.81.46q25.33.27,50.66.47l2.39,0c0,.68.07,1.24.11,1.93-.55.05-1,.13-1.46.13q-13.77-.07-27.55-.17c-5.45,0-10.9-.13-16.35-.19-16.94-.2-33.88-.48-50.83-.55-13.74-.05-27.49.11-41.23.29-7.46.1-14.92.4-22.38.71-6.57.27-13.14.64-19.7,1.07q-9,.58-18.06,1.41c-6.14.57-12.25,1.26-18.37,2a180.18,180.18,0,0,1-29.28,1.07,134.39,134.39,0,0,1-31.06-5.42c-8-2.36-15.85-5.23-23.66-8.17C119.21,378,109.64,374.33,100,371a67,67,0,0,0-15.22-3.37,68,68,0,0,0-13.31.09,105,105,0,0,0-25,6.06c-7,2.5-13.85,5.18-20.77,7.79-6.71,2.53-13.45,4.93-20.38,6.78C3.79,388.77,2.24,389.12.78,389.48Z"/><path class="cls-1" d="M.36,174.72v-1.87c.54,0,1-.1,1.46-.08,3.38.17,6.75.33,10.12.52q3.9.22,7.8.5c4.44.31,8.87.64,13.3,1,2,.14,3.9.3,5.85.42,5.55.35,11.11.74,16.67,1,8.11.4,16.22.63,24.34.39,6.52-.19,13-.61,19.49-1.41,5.12-.63,10.18-1.6,15.24-2.55,9.71-1.82,19.41-3.71,29.14-5.45,5.77-1,11.59-1.75,17.43-2.33a165.42,165.42,0,0,1,22.37-.57c4.38.16,8.74.63,13.09,1.2a233.65,233.65,0,0,1,25.9,5.32c6.26,1.55,12.56,2.94,18.93,4A86.63,86.63,0,0,0,262,175.91a70.47,70.47,0,0,0,15.49-3,134.28,134.28,0,0,0,19.42-7.83c3.35-1.62,6.69-3.28,10.19-4.6a81.82,81.82,0,0,1,18-4.53,102.06,102.06,0,0,1,18.08-.76,164.84,164.84,0,0,1,24.46,3.16c10.4,2,20.64,4.78,30.9,7.42,8.48,2.19,17,4.35,25.56,6.05l3,.57a3.43,3.43,0,0,1,1.73.58c-.11.54-.22,1.1-.34,1.75a18.9,18.9,0,0,1-2.85-.44c-9.2-1.75-18.26-4-27.32-6.37-8.6-2.21-17.18-4.48-25.85-6.39-6.19-1.36-12.42-2.53-18.7-3.32a113.66,113.66,0,0,0-22.88-.75,80.06,80.06,0,0,0-29.68,7.89c-4.94,2.43-9.92,4.79-15.05,6.79a90.64,90.64,0,0,1-17,5,72.55,72.55,0,0,1-14.86,1.06,122.11,122.11,0,0,1-22.84-3.2c-6.47-1.44-12.9-3-19.36-4.53a177,177,0,0,0-18-3.17,148.39,148.39,0,0,0-25-.9c-4.61.18-9.21.66-13.8,1.23-9.17,1.14-18.24,2.86-27.31,4.58-7.62,1.45-15.23,2.93-22.87,4.27-4.61.81-9.27,1.25-13.93,1.62a241.13,241.13,0,0,1-24.34.6c-4.62-.09-9.23-.32-13.85-.56s-9.46-.53-14.19-.85c-4-.27-8-.61-12-.9s-8.15-.58-12.23-.82c-4.44-.26-8.88-.46-13.31-.7A6.42,6.42,0,0,1,.36,174.72Z"/><path class="cls-1" d="M.43,335.78c-.08-.59-.17-1.16-.27-1.84.57-.15,1.06-.33,1.57-.41,8-1.18,15.84-2.87,23.7-4.61q13.51-3,27.05-5.92,9.83-2.12,19.79-3.33a150.08,150.08,0,0,1,18.6-1.19,97.91,97.91,0,0,1,29.39,4.43c9,2.83,17.83,6,26.67,9.25,6.11,2.24,12.24,4.42,18.55,6.07a98.63,98.63,0,0,0,20.15,3.12A130.9,130.9,0,0,0,202,341c5.61-.44,11.17-1.28,16.74-2.09,4-.59,8.1-1.08,12.15-1.57q5.73-.69,11.48-1.28c3.18-.32,6.37-.59,9.56-.84q6.19-.5,12.4-.92,4-.27,8-.47,6-.27,11.9-.48c5.92-.2,11.84-.43,17.77-.53,6.93-.12,13.86-.13,20.79-.16,18.55-.08,37.09.28,55.64.53q24.17.33,48.34.6l1.78.06a2.62,2.62,0,0,1,.15,1.75c-.38.44-.89.29-1.34.29q-12.35-.08-24.7-.17c-4.39,0-8.77-.12-13.16-.19-11.25-.18-22.51-.39-33.76-.55-17.9-.26-35.79-.33-53.68,0q-11.21.18-22.39.68c-7.16.32-14.31.79-21.46,1.27q-7.36.5-14.7,1.2T229,339.72c-6,.76-12,1.66-17.94,2.46a157.85,157.85,0,0,1-19.66,1.45,104.12,104.12,0,0,1-32.34-5c-6.83-2.16-13.53-4.69-20.26-7.14-7.4-2.69-14.84-5.26-22.4-7.46a85.23,85.23,0,0,0-13.92-2.73,108.51,108.51,0,0,0-15.08-.63c-4.26.1-8.51.45-12.76.92a316.47,316.47,0,0,0-33.19,6c-9.25,2-18.49,4.1-27.75,6.06-4.11.86-8.27,1.48-12.41,2.2A5.46,5.46,0,0,1,.43,335.78Z"/><path class="cls-1" d="M.33,148V146.1a7.69,7.69,0,0,1,1.06-.19c1.24,0,2.49,0,3.73,0,13.51.25,27,.55,40.52.72q14.13.17,28.26,0c5.56-.06,11.13-.33,16.69-.66,6-.36,11.93-.88,17.87-1.62,7.7-.95,15.35-2.18,23-3.54,8.1-1.44,16.19-2.9,24.31-4.25q8.94-1.49,18-2.35a159.53,159.53,0,0,1,24.14-.53,128.72,128.72,0,0,1,25,3.92,154.09,154.09,0,0,0,17.91,3.67,115.23,115.23,0,0,0,21.09,1,157.57,157.57,0,0,0,29.61-4.6c6.9-1.68,13.74-3.57,20.62-5.33a130.27,130.27,0,0,1,16.75-3.1,122,122,0,0,1,20.76-.57,133.27,133.27,0,0,1,16.05,1.88c10.28,1.77,20.35,4.41,30.41,7.11,9.26,2.48,18.51,5,27.87,7.1l4.16.92a6.86,6.86,0,0,1,.74.28l-.33,1.66a2.35,2.35,0,0,1-1.66,0c-9.14-2-18.18-4.34-27.21-6.76-7.84-2.1-15.66-4.23-23.57-6a187.49,187.49,0,0,0-18.52-3.31,120.72,120.72,0,0,0-47.86,3.67c-7.42,2-14.86,4-22.38,5.65a160.76,160.76,0,0,1-17.15,2.92,117.7,117.7,0,0,1-19.33.62,141.9,141.9,0,0,1-27.65-4.49,136.59,136.59,0,0,0-19.55-3.57,140.38,140.38,0,0,0-15.61-.73,172.21,172.21,0,0,0-20.55,1.44c-8.17,1-16.27,2.45-24.38,3.88-8.39,1.48-16.78,3-25.2,4.29-5.73.89-11.5,1.57-17.28,2.13-6.72.66-13.46,1-20.21,1.24-11.14.42-22.28.34-33.42.2-7.76-.1-15.51-.36-23.27-.5-7.11-.12-14.22-.17-21.33-.26C1.78,148,1.13,148,.33,148Z"/><path class="cls-1" d="M428.59,199.69a2.62,2.62,0,0,1-.07,1.83,15.5,15.5,0,0,1-3.21-.12c-4.36-.44-8.72-.88-13.08-1.37s-8.93-1.07-13.4-1.6l-10.41-1.22c-3.71-.42-7.41-.87-11.12-1.25-3.12-.33-6.25-.59-9.38-.86-5.19-.46-10.4-.78-15.61-.87q-6-.1-12.08,0c-3.25.08-6.51.28-9.76.54-4.19.34-8.35.89-12.51,1.56a175.84,175.84,0,0,0-27.47,7.08,116.35,116.35,0,0,1-17.74,4.38,98.59,98.59,0,0,1-17,1.27A112.57,112.57,0,0,1,235.12,207c-5.46-1.07-10.89-2.31-16.32-3.47a163.39,163.39,0,0,0-17.18-2.76,176.66,176.66,0,0,0-22.18-.94c-5.45.12-10.89.37-16.32.92-5.06.5-10.13,1-15.19,1.56-4.12.47-8.22,1.06-12.33,1.6l-12.16,1.58c-3.28.42-6.57.87-9.86,1.26q-6.89.8-13.8,1.24c-6.45.39-12.91.44-19.37.3-4.85-.1-9.7-.35-14.55-.61q-6-.33-12.06-.85c-4.36-.36-8.72-.82-13.08-1.25l-8.49-.84c-2.83-.28-5.65-.58-8.48-.87s-5.89-.6-8.84-.88c-3.54-.33-7.08-.63-10.62-.94-.82-.07-1.65-.1-2.48-.17-.46,0-.92-.12-1.33-.17a2.77,2.77,0,0,1-.11-1.88,9,9,0,0,1,1.09-.08c2.54.18,5.08.36,7.62.58,3.24.28,6.49.59,9.73.91l8.83.9,8.49.87,8.66.84c3.12.31,6.24.64,9.37.89,4,.32,8,.57,12,.85q8.79.6,17.58.65c5.69,0,11.38,0,17-.44,4.31-.32,8.61-.77,12.91-1.25s8.34-1,12.51-1.55c3.94-.51,7.87-1,11.8-1.56,3.41-.45,6.81-.89,10.22-1.29,3.82-.45,7.65-.89,11.48-1.26,3.3-.32,6.6-.63,9.91-.78,4.8-.22,9.6-.34,14.39-.41a147.62,147.62,0,0,1,16.15.78,163.85,163.85,0,0,1,23.27,3.92,192.45,192.45,0,0,0,19.35,3.7,102.52,102.52,0,0,0,20.57.71,100.64,100.64,0,0,0,22-4c3.92-1.15,7.79-2.46,11.69-3.65a156.43,156.43,0,0,1,24.77-5.46,179.52,179.52,0,0,1,32.44-1.47c3.37.16,6.74.29,10.11.52s6.85.57,10.27.89c2.71.25,5.42.54,8.12.84,3.59.4,7.18.82,10.77,1.24s6.93.85,10.4,1.25,7.06.83,10.59,1.22c2.94.32,5.89.63,8.83.93,1.53.15,3.07.27,4.6.42A3.43,3.43,0,0,1,428.59,199.69Z"/><path class="cls-1" d="M.41,308.9a2.71,2.71,0,0,1,0-1.82A7.53,7.53,0,0,1,3,306.82c9.41-.16,18.83-.3,28.25-.2,9.6.11,19.2.17,28.8.13q10.56,0,21.14-.41c6.15-.22,12.3-.66,18.43-1.25,8.56-.82,17-2.23,25.44-3.88,7.73-1.52,15.47-3,23.23-4.24a153.24,153.24,0,0,1,26.88-2.21c4.86.06,9.7.39,14.54.89,7.9.82,15.69,2.31,23.48,3.81,5.87,1.13,11.76,2.13,17.67,3.06,4.91.77,9.84,1.41,14.78,2,4,.49,8,.86,12,1.21,5.31.47,10.63.88,15.94,1.28,2.48.18,5,.31,7.45.42q14.48.65,29,.88c17.24.28,34.47,0,51.71-.35,8.06-.15,16.11-.35,24.17-.47,13.5-.21,27-.37,40.52-.55a5.66,5.66,0,0,1,2.09.14,2.32,2.32,0,0,1,0,1.79,3.91,3.91,0,0,1-1.89.2c-6.22.06-12.44.06-18.66.16-10.13.16-20.26.38-30.39.57-11.13.2-22.27.35-33.4.58q-22.32.44-44.61-.15c-7.46-.19-14.92-.58-22.37-.94q-6.57-.32-13.12-.84c-4.49-.36-9-.8-13.44-1.28s-8.83-.95-13.23-1.55c-5-.69-10-1.43-14.92-2.3-6.35-1.11-12.67-2.41-19-3.57q-6.81-1.23-13.71-2c-4.07-.45-8.14-.68-12.23-.85a125.8,125.8,0,0,0-14.91.43,258,258,0,0,0-28.61,4.28c-6.22,1.19-12.43,2.44-18.67,3.52-3.85.67-7.73,1.17-11.61,1.59-4.71.51-9.43.9-14.15,1.28-2.72.21-5.44.33-8.17.43q-12.78.48-25.58.42c-11.73-.07-23.46-.15-35.19-.15-6.28,0-12.56.16-18.84.24C1.38,309,.92,308.93.41,308.9Z"/><path class="cls-1" d="M.33,255.32v-1.8a5.26,5.26,0,0,1,1-.16c3.31.18,6.62.35,9.93.59,3.9.28,7.79.61,11.69.94,3.3.28,6.6.61,9.9.9s6.37.58,9.56.82c4,.31,7.92.56,11.88.85,8.39.61,16.8.87,25.21.7q6.14-.11,12.25-.5,6.83-.46,13.58-1.58c5.2-.87,10.4-1.7,15.59-2.62,5.48-1,10.94-2,16.41-3,6.53-1.17,13.05-2.35,19.59-3.42q7.09-1.16,14.25-2c4.93-.58,9.89-1,14.86-1.24,4.45-.22,8.89-.37,13.33-.26s8.88.33,13.31.54c2.55.11,5.09.28,7.63.43,6.57.39,13.13.76,19.69,1.19,5.85.39,11.7.86,17.54,1.28,5.68.41,11.35.78,17,1.2s11.1.86,16.65,1.27c4.14.31,8.27.56,12.41.85l12.94.92q3,.21,6,.38,7.62.43,15.26.83,9.32.48,18.63.9c3.91.17,7.82.32,11.73.4,13.44.27,26.89.59,40.34.17,6.1-.19,12.2-.35,18.3-.52h1.65a6.62,6.62,0,0,1,.16.92,6.71,6.71,0,0,1-.06.82,2.13,2.13,0,0,1-1.57.36c-3,.13-5.92.27-8.88.35-13.69.34-27.37.58-41.06.18-6.39-.19-12.79-.27-19.18-.51s-13-.59-19.53-.92c-5.09-.26-10.17-.53-15.26-.84-4.55-.27-9.1-.6-13.65-.91l-6-.42L284.17,251c-4-.28-7.92-.54-11.88-.83s-7.91-.62-11.87-.91-7.92-.56-11.87-.83l-13.3-.92c-2.19-.15-4.37-.31-6.56-.43-5.15-.3-10.29-.56-15.44-.86-5.38-.31-10.76-.61-16.16-.61-6.64,0-13.26.37-19.87.95-9.44.84-18.81,2.23-28.13,3.92-9,1.63-17.92,3.35-26.9,4.94-6.53,1.16-13.06,2.28-19.62,3.23A186.61,186.61,0,0,1,73,260.33c-5.51-.09-11-.31-16.52-.59-4.08-.2-8.15-.58-12.22-.89Q39,258.44,33.78,258c-3.31-.29-6.61-.62-9.91-.9s-6.84-.59-10.27-.84c-4.08-.29-8.16-.53-12.23-.8C1.08,255.44.79,255.39.33,255.32Z"/><path class="cls-1" d="M.31,282.19v-1.91a7,7,0,0,1,1.18-.18c2.79,0,5.57-.07,8.36-.07,10.13,0,20.25.33,30.38.66,10.54.33,21.08.59,31.62.72,5.69.07,11.38-.1,17.06-.32,6.87-.27,13.72-.83,20.53-1.76,6.57-.9,13.1-2,19.61-3.29,8.48-1.67,16.94-3.41,25.43-5,5.46-1,11-1.81,16.51-2.36a136,136,0,0,1,17.93-.58c4.68.15,9.33.61,14,1.22,6.81.9,13.5,2.43,20.22,3.86,5.62,1.2,11.26,2.24,16.94,3.08,4.74.7,9.49,1.41,14.24,2,3.88.49,7.77.83,11.66,1.2,3.54.34,7.08.63,10.62.92,2,.16,4,.31,6,.39,6.93.29,13.85.58,20.78.82,11.13.4,22.27.38,33.41.25,8.82-.11,17.65-.33,26.47-.52l21.15-.48c8.11-.19,16.22-.4,24.34-.54,6.22-.11,12.44-.11,18.66-.16.35,0,.7,0,1.07.06a2.82,2.82,0,0,1,.14,1.86c-.32.06-.64.15-1,.18s-.82,0-1.24,0q-18.3.28-36.61.59c-7.1.13-14.21.32-21.32.48-8,.18-16,.4-24,.53-12.92.21-25.83.3-38.75-.07-5.27-.16-10.54-.27-15.8-.52-5-.23-10.06-.58-15.08-.93-3.48-.24-7-.51-10.45-.85-3.83-.37-7.65-.81-11.47-1.28-3.64-.45-7.28-1-10.91-1.49-6.45-.91-12.85-2.09-19.22-3.42-4.47-.92-8.92-1.88-13.39-2.76-4.07-.8-8.18-1.33-12.31-1.73a134.52,134.52,0,0,0-14.19-.66,144.72,144.72,0,0,0-14.71,1c-8.24.93-16.37,2.54-24.49,4.19-8.88,1.8-17.75,3.62-26.69,5.07-6.31,1-12.65,1.82-19,2.3a350.19,350.19,0,0,1-35.34.79q-9.94-.26-19.9-.53c-5.62-.17-11.24-.45-16.87-.54-7.82-.12-15.64-.12-23.46-.17Z"/><path class="cls-1" d="M428.62,226.54v1.88c-.5,0-1,.11-1.42.12-6.93.26-13.86.44-20.78.78-6.74.33-13.48.82-20.22,1.24l-13.83.85c-4.85.29-9.7.61-14.55.89-2.66.16-5.32.28-8,.4-11.54.5-23.09.68-34.65.37q-9.68-.25-19.32-1.26c-6.66-.69-13.27-1.73-19.86-2.83-7.89-1.32-15.76-2.7-23.66-3.91-5.5-.85-11-1.55-16.55-2.14a162.25,162.25,0,0,0-23.43-.73c-4.86.2-9.69.62-14.52,1.24-6.4.82-12.81,1.56-19.22,2.29-5.18.58-10.36,1.14-15.55,1.63-4.84.46-9.68.84-14.52,1.2q-9,.67-18.08,1.27c-3.19.2-6.39.34-9.59.47-5.09.22-10.18.49-15.27.61-8.53.2-17.06.4-25.59.4q-15.64,0-31.28-.4c-7.46-.16-14.92-.55-22.37-.88-5.45-.25-10.89-.54-16.33-.84-3.19-.18-6.37-.44-9.58-.66a3.1,3.1,0,0,1-.1-1.94,5.18,5.18,0,0,1,2-.05c3.31.2,6.62.43,9.93.62,5.5.31,11,.62,16.5.9,3.2.17,6.39.31,9.59.41,5.8.18,11.61.32,17.41.47,10.31.27,20.62.4,30.93.23,9.24-.16,18.48-.37,27.71-.7,7-.24,14-.64,21-1.07,6.38-.39,12.76-.88,19.13-1.41,5.67-.48,11.33-1.05,17-1.64,6.71-.71,13.42-1.48,20.12-2.25,3.3-.38,6.58-.89,9.87-1.23,3-.32,6-.56,9-.7a153.21,153.21,0,0,1,17.41.07c3.6.24,7.2.51,10.8.88q4.86.49,9.69,1.23c5.5.83,11,1.74,16.48,2.64,4.67.77,9.34,1.58,14,2.34,5.61.91,11.23,1.75,16.88,2.34a310,310,0,0,0,34.61,1.41q10.85-.08,21.67-.66c5.44-.28,10.89-.54,16.33-.86,4.55-.26,9.1-.62,13.65-.91s9.22-.56,13.84-.83c5.32-.31,10.64-.65,16-.89,5.14-.22,10.3-.34,15.45-.49A12.58,12.58,0,0,1,428.62,226.54Z"/></g></g></svg>