<svg xmlns="http://www.w3.org/2000/svg" viewBox="0 0 422.32 195.24"><defs><style>.cls-1{fill:#fff;}</style></defs><title>plan</title><g id="Calque_2" data-name="Calque 2"><g id="Layer_1" data-name="Layer 1"><path class="cls-1" d="M205.85,10.24a.85.85,0,0,0,.15-.18c.17-.42.18-1,.83-1s.53.55.91.9c1.86-.05,3.78-.39,5.71-.61s3.77-.4,5.65-.64,3.86-.4,5.82-.73V6.4A.81.81,0,0,1,226,6.2c.12.45.26,1,.43,1.56a52.64,52.64,0,0,0,5.78-.61c1.89-.21,3.76-.47,5.65-.67s3.88-.39,5.88-.75a10.46,10.46,0,0,0-.18-2.21l1-.31c.25.8.47,1.52.69,2.2,1.47.08,15.65-1.5,17-1.89.18-.62-.36-1.2-.22-1.94l1-.24c.28.72.54,1.37.84,2.11,2.75-.13,5.43-.51,8.13-.74s5.3-.5,7.81-.74c.6-.36.17-1.41,1.28-1.23L282,1.79C292.93.91,303.91.22,315,0c.24.29.48.54.67.82q10.8,16.73,21.58,33.45c4.48,7,8.7,14.12,12.6,21.44a3.22,3.22,0,0,0,1.43,1.59,4.37,4.37,0,0,0,.76,2.62c2.36,4.64,4.58,9.36,6.51,14.2a23.58,23.58,0,0,1,1.54,3.73,34.56,34.56,0,0,0,1.38,3.84c.46,1.28.91,2.56,1.34,3.86s.82,2.59,1.22,3.9a246.55,246.55,0,0,0,28.87,61.75c7.23,11.22,15.11,22,23.31,32.47,1.75,2.25,3.52,4.47,5.28,6.71.27.35.5.75.86,1.29-.71.11-1.22.22-1.73.26-6,.46-11.93,1-17.9,1.36q-7.44.51-14.9.83c-7.46.33-14.92.64-22.38.87-5,.16-10,.23-14.93.24-8.88,0-17.77,0-26.66-.08-6.81-.08-13.62-.37-20.43-.59-3.79-.13-7.58-.28-11.36-.49-4.91-.27-9.82-.6-14.72-.93-3.84-.26-7.68-.53-11.52-.84-3.31-.27-6.61-.6-9.91-.91-2.77-.27-5.54-.53-8.31-.83-3.82-.42-7.65-.84-11.47-1.31q-6-.72-12-1.54c-4.46-.62-8.91-1.29-13.35-2-5-.76-10.06-1.58-15.1-2.33q-6.84-1-13.71-2c-3.4-.46-6.81-.86-10.23-1.22-4.3-.46-8.6-.87-12.91-1.27-1.88-.17-3.78-.29-5.67-.41q-13.32-.81-26.65-.35c-5.62.2-11.23.64-16.83,1.24-5,.53-9.9,1-14.84,1.57s-10.1,1.3-15.15,2q-7.12.94-14.26,1.93c-4.75.65-9.5,1.33-14.25,2-3.17.43-6.34.82-9.51,1.2-3.58.44-7.16.89-10.75,1.28-2.88.32-5.77.6-8.66.86-3.54.31-7.08.63-10.63.87s-7.09.39-10.64.57a8.83,8.83,0,0,1-1-.09,9.23,9.23,0,0,1,.41-.9c8.22-13.85,16-28,24.49-41.66,4.42-7.1,9-14.06,14-20.76a166.11,166.11,0,0,1,26.86-29c3.32-2.76,6.83-5.29,10.26-7.93,2.58-2,5.18-4,7.76-5.94a57.26,57.26,0,0,0,19.13-26.61c.38-1.06.65-2.15,1-3.22A2.73,2.73,0,0,1,104,55c1.62-3.27,2.23-6.85,3.31-10.28.2-.64-.26-1.17,0-1.72a12,12,0,0,0,.85-1.51c.71-2.62,1.37-5.27,2-7.92.13-.54-.07-1.16,0-1.72s.71-.87.86-1.49c.63-2.64,1.24-5.3,2-7.91.85-2.82,1.89-5.6,2.85-8.39,0-.05.09-.08.25-.21s.68-.06,1.09,0c4.2.18,8.4.4,12.6.57,7.11.29,14.22.26,21.33,0,4.5-.14,9-.3,13.49-.55s8.87-.59,13.29-.93c3.67-.27,7.32-.59,11-.92,2.77-.25,5.54-.56,8.31-.84l7.77-.83Zm62.33,180.88a6.17,6.17,0,0,0,.71.15c4.73.35,9.45.74,14.18,1,6.86.4,13.72.82,20.59,1,9.83.33,19.66.53,29.5.71,11.14.2,22.28-.12,33.41-.32,3.56-.07,7.11-.23,10.66-.35a5.26,5.26,0,0,0,.89-.05,10.47,10.47,0,0,0,1-.32c-5.51-11.74-11.19-23.26-16.7-34.77a3.46,3.46,0,0,0-.66-.12l-28.55,1.94a2.19,2.19,0,0,0-.5.14c-.05,0-.07.09-.2.26a10.09,10.09,0,0,0,.26,1.06c.82,2.28,1.66,4.56,2.47,6.85q3.9,11,7.77,21.93a3.89,3.89,0,0,1,.45,1.9c-.25.07-.51.24-.68.17a1.33,1.33,0,0,1-.57-.58,6.25,6.25,0,0,1-.37-1q-5.14-14.46-10.31-28.94c-.18-.49-.39-1-.6-1.5-.41,0-.76-.07-1.1-.06l-29.82,1.19c.66,3.32,1.49,6.51,2.28,9.71s1.62,6.43,2.45,9.64,1.68,6.39,2.55,9.67l-1.09.44c-.23-.73-.44-1.33-.6-1.94q-3.5-12.77-6.5-25.65c-.15-.62-.35-1.23-.53-1.88-.63,0-1.15-.06-1.68-.06-10.55.09-21.09.12-31.64-.15a4.47,4.47,0,0,0-1,.16c-.08,2.56.45,6.76,3.56,28.27C268,190.14,268.07,190.59,268.18,191.12Zm95.88-33.19c-.05.18-.08.24-.07.3a1.05,1.05,0,0,0,.08.34c.11.27.23.54.36.8l16.11,33.45a.5.5,0,0,0,.12.13l.29.2c1.81-.06,3.76-.1,5.71-.21q7.62-.42,15.25-.91c4-.25,8-.54,12.06-.82,1.48-.11,2.95-.23,4.42-.37.44-.05.95,0,1.33-.53-.26-.36-.53-.74-.81-1.1-1.35-1.73-2.71-3.44-4.06-5.17-7.79-10-15.3-20.22-22.21-30.86a250.45,250.45,0,0,1-26.19-52.31c-.14-.38-.31-.76-.45-1.1-2.81.24-5.58.4-8.35.53s-5.56.31-8.33.51-5.54.14-8.35.62c.1.48.15.89.27,1.28q3.35,10.77,7.52,21.26c.15.37.38.71.62,1.16l25.18-2.36c.05.4.09.73.14,1.15-.9.12-1.71.23-2.53.32s-1.65.15-2.47.24-1.65.19-2.48.28l-2.47.25-2.48.19c-.83.08-1.65.18-2.47.27l-2.48.22-2.48.19c-.83.07-1.65.15-2.48.26a6.19,6.19,0,0,0-2.42.35,4.21,4.21,0,0,0,.13.77c3.92,9.66,8.21,19.16,12.69,28.57a5.09,5.09,0,0,0,.46.71c.41,0,.77,0,1.12,0,3.48-.29,7-.55,10.44-.88,5.37-.51,10.73-1.08,16.09-1.61a10.82,10.82,0,0,1,1.39,0v1.12c-4.74.53-9.45,1-14.15,1.43S368.71,157.42,364.06,157.93ZM39.07,187c5.16-10.41,10.28-20.74,15.39-31.08,0-.08,0-.22,0-.34-1-.15-10.49.24-16.42.59-5.49.33-11,.57-16.51.85-6.47,10.82-12.62,21.75-19,32.57a2.48,2.48,0,0,0-.14.57,3.25,3.25,0,0,0,.7.11c11.6-.43,23.13-1.67,34.65-3C38.21,187.24,38.66,187.09,39.07,187Zm190.26-27.68c-.05.47-.11.76-.12,1l-.3,25.59a8.53,8.53,0,0,0,.15,1.09c.76.12,1.45.25,2.15.34,2.35.29,4.7.58,7,.85,3.7.43,7.41.87,11.11,1.26,3.3.35,6.6.66,9.9,1,2.06.19,4.13.35,6.2.5a7.8,7.8,0,0,0,1.18-.08c-1.29-9.84-2.56-19.57-3.83-29.31a.24.24,0,0,0-.07-.16s-.09-.08-.31-.25c-10.52-.39-21.21-.9-31.88-1.84C230.21,159.29,229.86,159.32,229.33,159.32ZM89.3,154c-2.76-.07-5.45.21-8.16.29s-5.56.21-8.34.33-5.45.26-8.17.35-5.55.19-8.39.47C50.88,165.48,46.06,175.77,41.07,186a4.84,4.84,0,0,0-.19.69,2.15,2.15,0,0,0,.57.12c11.93-1.41,23.82-3.17,35.68-4.79,4.07-9.19,8.09-18.28,12.1-27.37A2.44,2.44,0,0,0,89.3,154Zm171.75-23.36c.17,2,.32,4,.5,5.9s.4,3.89.6,5.84.37,3.89.56,5.83.34,3.89.61,5.83a38.41,38.41,0,0,0,.81,5.88c.67,0,1.31.08,2,.09,3.49.06,7,.16,10.48.16,6.63,0,13.26,0,19.9-.05a2.39,2.39,0,0,0,1.7-.29,4.23,4.23,0,0,0,0-.72q-3.12-14.4-6.26-28.8a2.38,2.38,0,0,0-.23-.45C290.44,129.68,262.72,130.36,261.05,130.62Zm-33.13,28.77a2.22,2.22,0,0,0-.43-.26l-27.89-2.95c-1.47-.15-2.95-.23-4.42-.35a.37.37,0,0,0-.17,0,1.76,1.76,0,0,0-.24.21c0,.23-.11.57-.15.91-.4,3.35-.79,6.7-1.19,10.05-.52,4.46-1.06,8.93-1.58,13.4a6.37,6.37,0,0,0,.06,1,4.27,4.27,0,0,0,.6.22l11.75,1.8c5.14.79,10.28,1.6,15.43,2.37,2.28.34,4.57.62,6.86.91a5.73,5.73,0,0,0,1.07,0C227.72,177.53,227.82,168.49,227.92,159.39Zm2.31-28.51a2.05,2.05,0,0,0-.16.35,6.59,6.59,0,0,0-.1.88q-.3,12.69-.61,25.38a.44.44,0,0,0,.06.16,2.86,2.86,0,0,0,.17.28c.73.08,1.54.21,2.36.26,4.25.3,8.5.61,12.75.84,5.62.31,11.23.55,16.85.8a4.6,4.6,0,0,0,1.06-.18c-1-9.73-1.94-19.37-2.91-29a2.29,2.29,0,0,0-.59-.19l-28.41.25A1.54,1.54,0,0,0,230.23,130.88Zm89.6-2.52c-1.57.09-3,.21-4.39.27l-20.06.84c-.41,0-.83,0-1.24.07a6.88,6.88,0,0,0-1,.29c2.08,10.12,4.19,20.11,6.55,30.14,5.19.2,10.26-.22,15.33-.32,8-.15,14.08-.56,15.32-1l-10.08-29.35C320.14,129,320,128.78,319.83,128.36Zm28.6-1.77a8.07,8.07,0,0,0-1,0q-12.86.88-25.7,1.8a.33.33,0,0,0-.14.1,1.17,1.17,0,0,0-.14.21,9,9,0,0,0,.24,1q4.89,14.08,9.81,28.18a6.54,6.54,0,0,0,.52,1c3.79.05,27.38-1.67,29.48-2.14,0-.12.06-.25,0-.34C357,146.5,352.46,136.73,348.43,126.59ZM115.29,177.65c.24-.57.43-1,.59-1.44q3.91-10.94,7.83-21.88a6.62,6.62,0,0,0,.19-1.12c-5.56,0-11,0-16.44.24s-11,.1-16.41.54c-2.07,3.78-11.59,25.63-12,27.56.11,0,.23.13.33.12C91.27,180.16,103.18,178.61,115.29,177.65Zm75,3.6a12.16,12.16,0,0,0,.34-1.39c.17-1.29.3-2.59.45-3.89l1.29-11.11c.31-2.71.62-5.41.92-8.12a6.65,6.65,0,0,0-.06-1.06c-.79-.09-1.49-.21-2.2-.26-3.19-.25-6.38-.52-9.57-.7-6.62-.37-13.25-.69-19.87-1a7.86,7.86,0,0,0-1.19.11c-.12.31-.22.52-.28.74q-2.64,11-5.28,21.93a3.72,3.72,0,0,0,0,.82c6,.58,11.91,1.08,17.78,1.74S184.38,180.5,190.33,181.25Zm-37.07-4c.13-.35.26-.61.33-.88q2.66-11.06,5.29-22.1a2,2,0,0,0,0-.57c-.42,0-.83-.1-1.23-.11-10.07-.36-20.13-.42-30.2-.38a3.62,3.62,0,0,0-1.9.2c-1,2.2-7.59,20.39-8.4,23.21a5.64,5.64,0,0,0-.12.82c4.09-.2,8.1-.48,12.11-.58s8.05-.12,12.08,0S149.2,177.09,153.26,177.24Zm45.38-46.69a6.3,6.3,0,0,0-.35,1c-1.28,7.34-2.35,14.72-3.26,22.11a2.8,2.8,0,0,0,.06.66c.15.09.25.19.36.2l31.23,3.24c.3,0,.59,0,.89,0a.49.49,0,0,0,.16-.05,3.28,3.28,0,0,0,.25-.22c0-.46.08-1,.1-1.62.08-3,.15-6,.24-9.06q.21-7.27.41-14.55a13.68,13.68,0,0,0-.09-1.4,4,4,0,0,0-.76-.16ZM39.91,129.09c-.51.67-.94,1.23-1.36,1.81-4.4,6-8.51,12.25-12.45,18.59C25,151.2,24,152.91,23,154.64a4.52,4.52,0,0,0-.31,1c.37,0,.6,0,.84,0l8.33-.41,11-.56c3.48-.17,7-.31,10.47-.48.76,0,1.51-.14,2.23-.22.35-.63.62-1.15.92-1.66,2.6-4.52,5.14-9.06,7.83-13.53,1.77-2.93,3.76-5.74,5.64-8.62.2-.31.64-.58.3-1.09ZM57.26,154l11.16-.46c3.61-.16,7.22-.32,10.83-.5s7.32-.07,11-.51c1.29-2.54,2.53-5,3.81-7.49q4-7.65,8.67-14.87a1.87,1.87,0,0,0,.15-.32.3.3,0,0,0,0-.16,1.3,1.3,0,0,0-.08-.25,3.59,3.59,0,0,0-.62-.12c-9.93-.23-19.87-.25-29.71-.26C69.22,132.69,58.43,150.36,57.26,154Zm110.39-23.77c-.24.53-.46.95-.62,1.38-2.37,6.51-4.31,13.16-6.07,19.85a3.82,3.82,0,0,0,0,.9c.48,0,.89.13,1.29.15,5,.24,9.94.44,14.9.74s9.69.68,14.53,1a3.09,3.09,0,0,0,1.94-.12c.1-.51.22-1,.29-1.55Q195.18,142,197,131.49a7.16,7.16,0,0,0,0-.93Zm-62.86-.85a176.7,176.7,0,0,0-12.57,22,11,11,0,0,0-.36,1.1c.73,0,1.31,0,1.89,0,3.43-.1,6.86-.24,10.29-.31,6.45-.13,12.91-.22,19.36-.33.4,0,.8-.07,1.23-.1.17-.38.33-.69.46-1a180.55,180.55,0,0,1,9.3-20.13,4.42,4.42,0,0,0,.23-.88C124.61,129.51,114.74,129.35,104.79,129.36Zm21.46,22.35a3,3,0,0,0,.57.15c10.67-.07,21.32.23,32,.43a2.79,2.79,0,0,0,.64-.18c1.89-7,3.82-14,6.35-20.8a3,3,0,0,0,.14-.51,1.37,1.37,0,0,0,0-.35,1.15,1.15,0,0,0-.06-.17c-1.35-.18-28.12-.55-29.57-.39A145.48,145.48,0,0,0,128,147.07,25.31,25.31,0,0,0,126.25,151.71Zm160.46-47c-.66,0-1.13,0-1.59,0l-14.17.84c-3.67.22-7.33.43-11,.67a7.36,7.36,0,0,0-1.08.25c.33,3.79.62,7.5,1,11.21s.58,7.51,1.07,11.18a2.33,2.33,0,0,0,.45.18c.54,0,1.07,0,1.6,0l28-.76c.06,0,.11-.05.16-.08l.25-.19C289.88,120.36,288.33,112.61,286.71,104.73Zm34.1,22.18a57.38,57.38,0,0,0,6.92-.3c2.18-.1,4.36-.25,6.55-.39s4.49-.25,6.72-.49,4.47-.09,6.71-.69c-.1-.36-.16-.66-.26-.92q-4.24-10.73-7.66-21.74a6.44,6.44,0,0,0-.42-.92c-.55,0-1,0-1.48,0l-8.33.53c-2.77.17-5.55.31-8.32.47-2,.12-4,.24-6,.38-.45,0-1,0-1.29.57C315.94,111.24,318.26,119.05,320.81,126.91ZM256.64,82.23c.24,2.67.46,5.15.69,7.62s.42,5.07.71,7.6.31,4.93.79,7.39a23.9,23.9,0,0,0,4.16-.07c2.9-.18,5.8-.38,8.69-.55,4.55-.26,9.11-.51,13.66-.79a4.78,4.78,0,0,0,1-.23,4.43,4.43,0,0,0,0-.64Q284,91.34,281.74,80.11a4.7,4.7,0,0,0-.36-.84C273.13,80,265,80.88,256.64,82.23Zm-25.83,25.55c-.22,1.23-.75,17.81-.68,20.61a6.6,6.6,0,0,0,.11.81c2,.36,27.05.13,29.24-.27,0-.33,0-.67,0-1q-.37-4.33-.76-8.67-.52-5.93-1.07-11.85a7.17,7.17,0,0,0-.26-1Zm57.36-3.08c0,.38,0,.79.08,1.18q2.1,10.44,4.21,20.89c.11.5.31,1,.46,1.46,1,0,1.88,0,2.76,0,1.24,0,2.49-.13,3.73-.18l11.72-.48q3.47-.15,6.92-.36c.45,0,1,.07,1.24-.35q-3.37-11.76-6.72-23.42a.36.36,0,0,0-.1-.14l-.14-.11C310.78,103.06,289.92,104.36,288.17,104.7ZM339,100c-.2-.77-.33-1.34-.48-1.9-.68-2.51-1.35-5-2.05-7.54q-1.59-5.73-3.21-11.45c-.15-.56-.39-1.09-.62-1.71-8.25.08-16.41,0-24.65.45.07.53.1.94.19,1.33.41,1.79.85,3.57,1.27,5.36q1.77,7.61,3.51,15.23a6.14,6.14,0,0,0,.64,1.86c8.09-.48,16.12-1,24.16-1.44C338.15,100.2,338.49,100.12,339,100ZM198.91,129.09a4.63,4.63,0,0,0,2,.23l20.77.09c2,0,3.91,0,5.86,0a7.24,7.24,0,0,0,1.15-.17,3.68,3.68,0,0,0,.12-.63q.27-9.94.52-19.88a3.06,3.06,0,0,0-.22-.81c-.44,0-.79,0-1.14,0l-12.42.54c-3.49.15-7,.28-10.47.44a2.53,2.53,0,0,0-1.79.42c-1.76,6.17-3.15,12.52-4.36,18.91A4.19,4.19,0,0,0,198.91,129.09Zm89-25.92c.4,0,.8,0,1.21,0l9.4-.53,3.54-.22c3-.2,6-.39,9-.61a5.53,5.53,0,0,0,1.05-.28c-2-7.88-3.48-15.78-5.58-23.65-.56,0-1,0-1.49,0-5.32.26-10.64.51-16,.79-1.54.08-3.07.2-4.61.33-.51,0-1.08,0-1.53.53,1.53,7.59,3.07,15.24,4.62,22.89A6.07,6.07,0,0,0,287.88,103.17ZM71.5,127.68a2.23,2.23,0,0,0,.38-.3c.51-.65,1-1.31,1.51-2a132.22,132.22,0,0,1,13-14.8c.3-.29.79-.52.7-1.2-.89-.06-1.76-.14-2.64-.19-2.72-.14-5.44-.24-8.16-.39-5.61-.32-11.22-.65-16.82-1a2.37,2.37,0,0,0-2,.77,181.29,181.29,0,0,0-15.8,18.22,6.07,6.07,0,0,0-.41.77,2.8,2.8,0,0,0,.61.19Zm47.31-17.4c-.9,0-1.37-.07-1.83-.08-3.72-.08-7.45-.15-11.18-.25-5-.14-10-.28-15.08-.47a2.81,2.81,0,0,0-2.21.84A128.69,128.69,0,0,0,74,126.79a6,6,0,0,0-.37.76c1.68.26,29.13.52,30.64.3,1.09-1.5,2.19-3,3.33-4.56s2.24-2.9,3.41-4.31,2.45-2.89,3.72-4.29S117.25,111.94,118.81,110.28ZM334.24,77.57c.14.55.24,1,.37,1.45,1,3.42,1.93,6.83,2.88,10.25.86,3.13,1.69,6.28,2.55,9.41a12.42,12.42,0,0,0,.55,1.35l24-1.41a6,6,0,0,0,.84-.17c-.5-2.81-5.86-18.76-7-20.87C357,77.38,336.39,77.35,334.24,77.57Zm-79,5.07c-1.45-.1-5.19.53-15.48,2.71a84.32,84.32,0,0,0-8.67,2.1,2.66,2.66,0,0,0-.12.49q-.15,8.79-.27,17.57a3.72,3.72,0,0,0,.23.92c8.63-.3,17.18-.88,25.74-1.32a2.1,2.1,0,0,0,.61-.21C257.37,103,255.65,84.33,255.21,82.64Zm-53.5,26.58c-1.58-.14-22.85.52-24.36.75-2.21,3-6.75,12.15-8.83,17.75a9.62,9.62,0,0,0-.27,1.09,13.79,13.79,0,0,0,1.5.16q13.22.15,26.44.28a8.17,8.17,0,0,0,1.24-.17c1.26-6.45,2.61-12.8,4.32-19.08a2.24,2.24,0,0,0,0-.52A1.07,1.07,0,0,0,201.71,109.22Zm-96,18.8c10.22,0,20,.43,29.85.36a9.09,9.09,0,0,0,.63-.88,106.55,106.55,0,0,1,11.7-16.28c.19-.2.45-.41.25-.8a1.57,1.57,0,0,0-.45-.12H120.74A115.82,115.82,0,0,0,105.7,128Zm31.63.29c.61.07,1.06.15,1.51.16l26.66.41a10.2,10.2,0,0,0,1.21-.14l.76-1.87A124.73,124.73,0,0,1,175,111.2c.21-.37.66-.72.3-1.32-.56,0-1.15,0-1.74,0-4.27.09-8.53.2-12.8.28-3,0-5.92.08-8.89.07a2.78,2.78,0,0,0-2.32,1,105.22,105.22,0,0,0-11.75,16A11.28,11.28,0,0,0,137.33,128.31Zm165.19-70.2c.46,2.16,1.18,4.16,1.73,6.21s1.09,4,1.67,6,1,4.12,1.72,6.18H309l22.38-.36a7.58,7.58,0,0,0,.81-.13c-.63-3.09-5.64-16.42-6.86-18.24-7.17-.23-14.38.07-21.6.21A8.79,8.79,0,0,0,302.52,58.11Zm-20,19.58a3.12,3.12,0,0,0,.66.14l22.49-1.32c.1,0,.19-.11.39-.24-.26-1.52-.73-3-1.14-4.56s-.78-3-1.19-4.45-.87-3.07-1.33-4.6A28.89,28.89,0,0,0,301,58.1c-4.91.15-9.74.48-14.56.92-2.41.23-4.82.55-7.22.82a.33.33,0,0,0-.14.1,2.3,2.3,0,0,0-.14.22,2.23,2.23,0,0,0,0,.45C280.11,66.27,281.33,71.93,282.56,77.69Zm67-19.33a1.1,1.1,0,0,0-.34-.1q-10.72-.25-21.47-.48A3.06,3.06,0,0,0,327,58c2.25,5.7,4.42,11.31,6.29,17,.11.33.28.65.41,1,1.43.19,22.5.2,24,0a2.79,2.79,0,0,0-.46-1.66C354.68,68,350.87,60.09,349.6,58.36ZM256.5,80.71a4.3,4.3,0,0,0,.72.07c7.61-1.06,15.23-2.07,22.89-2.67a3.26,3.26,0,0,0,.53-.09,1.79,1.79,0,0,0,.32-.13c.05,0,.08-.09.22-.26-.47-2.86-1.18-5.78-1.81-8.71s-1.17-5.88-2-8.73c-3-.13-19.6,2.89-22.59,4.08a2.85,2.85,0,0,0,0,.66C255.33,70.15,255.91,75.38,256.5,80.71ZM59.74,106.58c2.48.17,4.6.32,6.72.45,3.31.2,6.62.4,9.93.57,3.84.19,7.69.33,11.53.53a2.51,2.51,0,0,0,1.91-.71c1.79-1.55,3.6-3.08,5.45-4.56S99,100,100.9,98.53c.4-.32.93-.52,1.11-1.2a3.83,3.83,0,0,0-.62-.22c-1.82-.26-3.64-.48-5.45-.75l-13.69-2c-1.94-.29-3.87-.58-5.79-.9a2.08,2.08,0,0,0-1.67.35,144.37,144.37,0,0,0-14.36,11.88A11.06,11.06,0,0,0,59.74,106.58Zm144,.92a5.89,5.89,0,0,0,2.17.11c1.36-.06,2.72-.14,4.08-.19l18.08-.79a6.34,6.34,0,0,0,1.12-.23c.26-1.56.52-14.08.37-17.65a4.86,4.86,0,0,0-.16-.83c-1.2.16-20.27,5.34-21.6,5.86C206.51,98.29,205.18,102.81,203.79,107.5Zm51.27-26.56a17.67,17.67,0,0,0-.29-4c-.09-1.36-.25-2.71-.39-4.07s-.24-2.83-.48-4.23-.07-2.7-.62-4c-.51.09-.91.12-1.3.22A201.57,201.57,0,0,0,232,71a11,11,0,0,0-1.09.54v4.86c0,1.6,0,3.19,0,4.79a26.71,26.71,0,0,0,.16,4.86c7.83-1.92,15.65-3.47,23.51-4.82A1.82,1.82,0,0,0,255.06,80.94ZM77.3,92.08a7.62,7.62,0,0,0,1.1.36l20.9,3.14c1.28.19,2.58.31,3.87.47a1.85,1.85,0,0,0,1.49-.41A73.39,73.39,0,0,0,114,87.16a10,10,0,0,0,.68-1c-4.23-.79-8.29-1.52-12.33-2.32s-8.09-1.67-12.06-2.49C88.79,82.7,87.44,84,86,85.13s-2.86,2.31-4.29,3.46S78.79,90.72,77.3,92.08ZM124,73.31c-.65,1.42-1.22,2.78-1.88,4.1s-1.48,2.69-2.22,4-1.74,2.35-2.34,3.72c4.4,1.13,21.78,3,24.74,2.64a17.08,17.08,0,0,0,2.07-4.06c.53-1.38,1-2.77,1.42-4.19a13.52,13.52,0,0,0,.87-4.54c-7.42-.3-14.73-.82-22-1.77A4,4,0,0,0,124,73.31ZM99.7,69.1a5.82,5.82,0,0,0-.4.54A52.72,52.72,0,0,1,92,79.49a5.09,5.09,0,0,0-.48.82c2.79.6,5.44,1.2,8.11,1.74s5.46,1.06,8.2,1.57,5.3,1.08,8,1.32a44.58,44.58,0,0,0,6.54-11.28,1.55,1.55,0,0,0,0-.57ZM91.26,108a3.54,3.54,0,0,0,2,.36c2.9.1,5.79.18,8.69.24l17,.35h.35a2.12,2.12,0,0,0,1.74-.69q1.75-1.64,3.58-3.18c1.71-1.46,3.46-2.87,5.18-4.31.23-.19.47-.39.21-.78l-1.36-.1c-3.42-.27-6.84-.49-10.26-.83q-6.52-.63-13-1.43a2.43,2.43,0,0,0-1.94.58c-2.2,1.7-4.42,3.37-6.61,5.08-1.59,1.24-3.13,2.52-4.68,3.8A10.82,10.82,0,0,0,91.26,108ZM147,73.49a4.29,4.29,0,0,0,.23-.63,100.78,100.78,0,0,0,1.3-12,3.32,3.32,0,0,0-.16-.71l-2-.06c-3.43-.11-6.86-.18-10.29-.32-2.25-.09-4.49-.29-6.73-.42-.46,0-.92,0-1.42.06-.32,1.41-.57,2.74-.93,4-.75,2.67-1.55,5.33-2.33,8a.37.37,0,0,0,0,.18s.06.09.1.14C127.32,72.64,143.94,73.92,147,73.49Zm42.91-3A191.56,191.56,0,0,1,169.82,74a7,7,0,0,0-.33,1.06,66,66,0,0,1-3.15,11.82.66.66,0,0,0,.17.89,150.15,150.15,0,0,0,21.18-3.18C188.81,81.7,190.17,73.07,189.89,70.49ZM319.26,43.78c-2.44-.35-18.61.06-21,.51a1.29,1.29,0,0,0,0,.51c1.26,3.94,2.53,7.87,3.82,11.88h1.29c1.72,0,3.44-.11,5.15-.12,4.91,0,9.82-.06,14.74-.09a2.42,2.42,0,0,0,1.48-.2A107.12,107.12,0,0,0,319.26,43.78ZM126.37,59.28c-.05,0-.1-.1-.15-.1-6.86-.88-13.73-1.68-20.55-2.87-.1,0-.22,0-.49.12l-.85,2.2c-.29.77-.59,1.55-.89,2.31s-.63,1.54-1,2.3-.71,1.5-1,2.26a6.23,6.23,0,0,0-.89,2.24c4.5,1.29,20.52,4,22.55,3.8C124.42,68.84,126.42,61.3,126.37,59.28ZM231.06,69.79a8.81,8.81,0,0,0,1-.22c.78-.27,1.55-.58,2.33-.85,5.59-1.92,11.24-3.66,17-5.1a3.81,3.81,0,0,0,1.76-.63,1.51,1.51,0,0,0,.07-.41q-.68-5.55-1.37-11.09a2.1,2.1,0,0,0-.25-.57c-3.72.53-18.34,4.94-20.9,6.28A114.36,114.36,0,0,0,231.06,69.79Zm117.75-13a11.22,11.22,0,0,0-.5-1.2c-2.16-4-4.34-8-6.74-11.76-3.15-.29-19-.34-20.73-.05.49,1.47,1.24,2.81,1.84,4.2s1.23,2.83,1.87,4.22a37.72,37.72,0,0,0,1.92,4.2l21.35.48A9,9,0,0,0,348.81,56.81ZM253.1,50.44c.22,3.89,1.19,11,1.63,12.12.11,0,.23.11.34.08,7-1.48,14-2.87,21.11-3.76a1.86,1.86,0,0,0,.51-.15,1.78,1.78,0,0,0,.27-.21c0-.11.08-.23.05-.33q-1.23-5.44-2.5-10.89a4,4,0,0,0-.41-.83A208.24,208.24,0,0,0,253.1,50.44ZM106.15,96.19a3.61,3.61,0,0,0,1.8.48q8.92.89,17.86,1.74c1.76.17,3.54.23,5.31.38a2.33,2.33,0,0,0,1.93-.66c.92-.84,1.88-1.63,2.8-2.47a34.27,34.27,0,0,0,4.89-5.39,7.11,7.11,0,0,0,.46-1c-8.42-.56-16.64-1.54-24.73-2.82-1.72,1.75-3.29,3.44-5,5S108,94.58,106.15,96.19ZM278.64,58.52c1.77-.18,3.58-.38,5.39-.55s3.65-.32,5.48-.46,3.65-.28,5.48-.4l5.59-.34c-.15-.63-.23-1.15-.39-1.64-1.16-3.58-2.19-7.21-3.51-10.67-3.06-.26-18.38,1.19-20.88,2A100.35,100.35,0,0,0,278.64,58.52ZM148.53,73.62a62.39,62.39,0,0,0,6.7,0c2.19-.05,4.38-.17,6.57-.29a48.77,48.77,0,0,0,6.74-.65,84.21,84.21,0,0,0,1-12.43,9.59,9.59,0,0,0-.11-1.18,3.1,3.1,0,0,0-.62-.1c-6.13.6-12.27,1-18.43,1.14-.11,0-.21.09-.34.16q-.78,6.3-1.55,12.63A5.11,5.11,0,0,0,148.53,73.62ZM170.93,59c-.18,1.43-.08,3-.18,4.49s-.23,2.95-.31,4.43a30.21,30.21,0,0,0-.37,4.58,11.25,11.25,0,0,0,1.65,0c4.32-.69,8.64-1.39,12.95-2.14,1.58-.27,3.13-.66,4.69-1,.7-.17.84-.37.94-1.1a4.58,4.58,0,0,0,0-.53q0-5.6.06-11.19a3.42,3.42,0,0,0-.22-.9c-6.3,1.28-12.54,2.31-18.82,3.14C171.25,58.73,171.16,58.83,170.93,59ZM164.6,87.76a59.35,59.35,0,0,0,3.69-13.4,10.1,10.1,0,0,0-1.28-.09c-1.35.09-2.7.25-4.06.33-4.37.27-8.74.48-13.11.41-.53,0-1.05,0-1.63.07-.38,1.54-.71,3-1.13,4.5s-.92,2.81-1.37,4.21S144.32,86.49,144,88C147.12,88.49,161.13,88.34,164.6,87.76ZM229.44,72c-3.33,1.08-6.37,2.53-9.5,3.76s-6.37,2.48-9.57,3.73c-.32,2.12-.61,4.17-1,6.21s-.78,4.15-1.2,6.34a5.38,5.38,0,0,0,.81,0c2.19-.46,19.57-5.37,20.46-5.77A139,139,0,0,0,229.44,72Zm-50.91,36.43c3.95.16,7.88-.21,11.81-.28s8-.24,12-.47C204,103,206,96,206.07,94.31c-.1,0-.22-.13-.31-.11-7.11,1.49-14.22,3-21.48,4a103.92,103.92,0,0,1-5.74,9.81C178.49,108,178.53,108.18,178.53,108.42Zm13-38.25c-.07.31-.12.48-.14.66a95.65,95.65,0,0,1-2,12.6,2,2,0,0,0,.09.63c3.86-.51,17.38-4.51,19.56-5.78.7-4,1.09-11.51.69-13.36a.55.55,0,0,0-.17,0c-5.76,1.77-11.5,3.59-17.35,5C192.05,70,191.83,70.07,191.54,70.17Zm19.07,7.72c1.75-.5,3.26-1.13,4.79-1.72s3.19-1.25,4.78-1.89,3.06-1.26,4.59-1.91,3.21-1.15,4.66-1.92A77,77,0,0,0,229,57.73a30.85,30.85,0,0,0-4.48,1.56c-1.44.54-2.87,1.11-4.31,1.65s-3,1.1-4.48,1.69a33.3,33.3,0,0,0-4.37,1.71c-.12,2.29-.29,4.48-.34,6.66S210.59,75.46,210.61,77.89Zm-82.36-20.1c3.27.73,17.91,1.31,20.31.83a2.34,2.34,0,0,0,.18-.64c.14-3.6.26-7.21.38-10.81a3.2,3.2,0,0,0-.17-.7c-.41,0-.75-.1-1.1-.09-5.62.14-11.23-.11-16.84-.3a6,6,0,0,0-1,.15C129.42,50.11,128.84,53.9,128.25,57.79Zm-1.4-.14c.8-3.29,1.14-6.69,1.64-10.07a2.06,2.06,0,0,0-.14-1.63l-1.15-.12c-2-.16-4-.27-6-.48-3.64-.38-7.28-.83-10.92-1.23a9.51,9.51,0,0,0-1.31,0,93.15,93.15,0,0,0-3,10.77C109.12,55.82,124.27,57.83,126.85,57.65ZM169.2,45.22c-.46,0-.81,0-1.16,0-2.89.22-5.78.49-8.68.68-2.48.16-5,.23-7.45.36a12.73,12.73,0,0,0-1.3.18,111.9,111.9,0,0,0-.42,12.28,39.16,39.16,0,0,0,4.72,0c1.65,0,3.31-.16,5-.26s3.19-.22,4.78-.36a20.43,20.43,0,0,0,4.83-.63A85.21,85.21,0,0,0,169.2,45.22ZM210,63.29c0-4,.05-7.95-.24-11.84a3.22,3.22,0,0,0-.28-.69l-5.87,1.57c-2,.52-4,1-6,1.55s-3.91.78-5.79,1.42c-.09,4.29-.18,8.48-.26,12.67a2.18,2.18,0,0,0,.14.6,2.91,2.91,0,0,0,.66,0C198.26,67.07,204.1,65.38,210,63.29Zm-20.6-20.83c-6,.82-12,1.63-18.07,2.46a1.66,1.66,0,0,0-.47.22,2.08,2.08,0,0,0-.13.52c0,3.66.1,7.33.16,11a2.29,2.29,0,0,0,.16.54,4.44,4.44,0,0,0,2.26,0c4.84-.79,9.67-1.59,14.5-2.43a7.06,7.06,0,0,0,2.39-.63,3.29,3.29,0,0,0,.09-.72q-.33-5.22-.69-10.44A1.75,1.75,0,0,0,189.41,42.46Zm-4.28,54.23c3.71-.43,7.25-1.09,10.78-1.77s7.18-1.41,10.76-2.37a102.65,102.65,0,0,0,2.16-11.38,9.37,9.37,0,0,0,0-1.21C202.37,82.15,196,84,189.46,85.53a1.83,1.83,0,0,0-.42.2C187.75,89.34,186.49,92.9,185.13,96.69Zm-28.08,4.12c-.12-.12-.15-.2-.19-.2-.53,0-1.05-.08-1.58-.07-5.8.06-11.61.12-17.41-.2-1.48-.09-3-.09-4.44-.16a2,2,0,0,0-1.46.49l-9,7.54a3.34,3.34,0,0,0-.46.69c.69.06,1.2.13,1.71.14l24.17,0c.24,0,.47,0,.71,0a1.63,1.63,0,0,0,1.25-.56,72.3,72.3,0,0,0,6.39-7.15A4.11,4.11,0,0,0,157.05,100.81Zm30.36-14.75c-.53,0-.76.06-1,.1-3.27.57-6.52,1.21-9.79,1.69-3,.45-6.11.73-9.17,1.08a6,6,0,0,0-2.1.42c-.37.79-.74,1.6-1.12,2.4-.31.63-.61,1.28-1,1.89-.94,1.65-1.91,3.27-2.86,4.91a.22.22,0,0,0,0,.16.61.61,0,0,0,.07.17c2.86.34,19.52-1.14,23-2.07A58.91,58.91,0,0,0,187.41,86.06Zm64.1-36.85c-.13-1-.25-2.14-.4-3.24s-.3-2.11-.48-3.16a9.3,9.3,0,0,0-.71-3.28c-6.47,1.28-12.82,2.89-19.12,4.67a4.08,4.08,0,0,0-.69.33c-.08.17-.12.22-.12.28.16,3.36.32,6.72.5,10.09a3.45,3.45,0,0,0,.25.72c6.63-2.22,13.21-4.29,19.92-5.91a1.63,1.63,0,0,0,.85-.5ZM163.76,89.36a44.37,44.37,0,0,0-5.2.17c-1.71,0-3.43,0-5.14,0s-3.55,0-5.33,0-3.41-.11-5.1-.17c-.3.4-.56.72-.79,1.06a34.35,34.35,0,0,1-4.26,5c-.93.9-1.91,1.76-2.86,2.66a5,5,0,0,0-.52.74c.58.07,1,.13,1.4.15,7.15.41,14.31.29,21.46.22a1.76,1.76,0,0,0,1.59-.9,55.65,55.65,0,0,0,4.51-8A5,5,0,0,0,163.76,89.36ZM229.23,56c-.15-3.18-.29-6.3-.44-9.43,0-.41-.07-.82-.11-1.24,0,0-.05-.1-.08-.15l-.24-.19a56.56,56.56,0,0,0-5.67,1.65c-2,.59-3.94,1.25-5.91,1.9s-3.85,1-5.68,1.83a6.42,6.42,0,0,0-.06.79c.1,3.61.2,7.21.32,10.82a2.06,2.06,0,0,0,.17.6A178.89,178.89,0,0,0,229.23,56ZM152,108.79c2.08.32,22.81-.08,24.74-.45.9-1.38,1.86-2.8,2.76-4.25s1.79-3.06,2.66-4.6a5.18,5.18,0,0,0,.3-1l-1.74.16c-2.64.3-5.27.67-7.92.88-4.13.32-8.26.57-12.39.79a2.42,2.42,0,0,0-2,1.11,58.55,58.55,0,0,1-5.54,6.45C152.54,108.1,152.33,108.37,152,108.79Zm57.54-59.43c.19-2.71-.39-9.51-.93-11-1.94.44-3.89.89-5.85,1.31s-3.95.78-5.91,1.22-3.94.64-5.93,1.25c.21,3.67.42,7.26.64,10.86a4,4,0,0,0,.21.69,4.45,4.45,0,0,0,.9,0C198.3,52.45,203.91,51,209.51,49.36ZM271.66,36c-3.44.31-6.75.9-10.07,1.39-6,.87-8.61,1.42-10.12,2.1q.57,4.17,1.15,8.39a6.28,6.28,0,0,0,.19.86c0,.1.14.18.31.37,6.33-1.41,12.74-2.74,19.24-3.63.29,0,.58-.11.87-.18a2.88,2.88,0,0,0,.49-.18s.09-.08.21-.19C273.22,42,272.58,39,271.66,36ZM169.2,43.65a2.08,2.08,0,0,0,.13-.52q-.17-4.69-.36-9.39a2.12,2.12,0,0,0-.23-.62l-17.41,1a2.07,2.07,0,0,0-.54.19,3.11,3.11,0,0,0-.14.66c-.06,3.14-.1,6.27-.14,9.4a1.4,1.4,0,0,0,.17.47c1.65.26,5.34.08,16.45-.79A5,5,0,0,0,169.2,43.65Zm-20-9.37a3.87,3.87,0,0,0-.59-.09c-5.44.17-10.88.13-16.32,0a3.35,3.35,0,0,0-.79.15,61.94,61.94,0,0,0-1.05,10.34c.38.05.77.14,1.17.16,1.3.06,2.6.13,3.9.15q6.12.1,12.24.17a1.62,1.62,0,0,0,1.4-.39c.09-3,.18-6.07.27-9.14a6.47,6.47,0,0,0,0-.88A1.79,1.79,0,0,0,149.16,34.28ZM189.27,41a48.09,48.09,0,0,0-1-10.26,4.34,4.34,0,0,0-.51,0l-16.72,2a4.78,4.78,0,0,0-.86.33c.12,3.29.23,6.54.35,9.78a3.58,3.58,0,0,0,.25.79C177,43,183.13,42.16,189.27,41ZM128.8,44.45a53.93,53.93,0,0,0,1-10.26L111.88,32.9a66.81,66.81,0,0,0-2.49,9.69,9.09,9.09,0,0,0,1.17.29c5.81.73,11.62,1.4,17.48,1.68A4.32,4.32,0,0,0,128.8,44.45Zm167.25-1.57a25,25,0,0,0-1.4-4.46A22.88,22.88,0,0,0,292.9,34c-6.39.27-12.68,1-19,1.64a3.28,3.28,0,0,0-.69.23,3.74,3.74,0,0,0,0,.89c.71,2.68,1.24,5.4,2.07,8.12Zm-84.88,5.88a4.82,4.82,0,0,0,.85-.11l16.43-5.13c.2-2.92-.33-5.72-.41-8.53a9.72,9.72,0,0,0-.25-1.24,22.52,22.52,0,0,0-4.38.91c-1.5.34-3,.76-4.46,1.14s-2.86.72-4.29,1.1a25.17,25.17,0,0,0-4.35,1.2A68.19,68.19,0,0,0,211.17,48.76ZM313.91,33c-6.35.2-12.8.35-19.23.81a51.42,51.42,0,0,0,3.07,9c.29,0,.64,0,1,0,1.36-.06,2.72-.14,4.09-.18,4.85-.13,9.71-.24,14.57-.36.32,0,.71.1.93-.28A58.55,58.55,0,0,0,313.91,33Zm-84,10.07c6.63-1.87,13.06-3.44,19.52-4.83.11,0,.19-.14.35-.25a15.07,15.07,0,0,0-.5-4.15,14.93,14.93,0,0,0-.84-4.19,2.29,2.29,0,0,0-.3-.08c-6.08.95-12.11,2.15-18.12,3.49a4.48,4.48,0,0,0-.82.38C229.42,36.65,229.65,39.77,229.9,43.11Zm85.73-9.93c1.56,3.12,2.94,6.1,4.42,9,.38,0,.67.07,1,.08.77,0,1.54,0,2.3,0l15.61.11c.49,0,1,.14,1.49-.21a70.72,70.72,0,0,0-5.52-9.1C333.3,32.87,318.37,32.9,315.63,33.18Zm-108-5.67-17.07,2.84a1.91,1.91,0,0,0-.45.23,47,47,0,0,0,.91,10.1c5.12-.79,10.17-2,15.23-3.09a5.16,5.16,0,0,0,2.33-.71A47.49,47.49,0,0,0,207.6,27.51Zm43.65,10.27c.63-.06,1.16-.06,1.66-.16q8.72-1.73,17.51-2.83a3.49,3.49,0,0,0,.83-.3,22.2,22.2,0,0,0-.9-3.86,14.26,14.26,0,0,0-1.19-3.76c-6.24.53-12.38,1.41-18.51,2.32a3.67,3.67,0,0,0-.74.29C250.29,32.25,250.7,35,251.25,37.78Zm-42.11-10.6c.2,3.26.54,6.3.89,9.34,1.46-.11,15.91-3.7,17.71-4.4-.15-2.71-.37-5.46-.78-8.23a3.24,3.24,0,0,0-.78-.05C220.55,24.85,215,26,209.14,27.18ZM170.42,31.5c3-.15,6-.61,9-.91a48.78,48.78,0,0,0,8.88-1.43,41.66,41.66,0,0,0-.64-8.37L170.28,22.7A35.12,35.12,0,0,0,170.42,31.5Zm-19.19-7.44c-.08.91-.19,1.84-.25,2.78s-.1,2-.11,3a12.1,12.1,0,0,0,0,2.88c3,.13,6-.17,8.91-.32,6.21-.31,7.31-.4,9-.95,0-1.4,0-2.81,0-4.22a21.9,21.9,0,0,0-.17-4.36l-16.76,1A2.76,2.76,0,0,0,151.23,24.06Zm-1.81,8.69c.15-2.81.3-5.46.43-8.12a2,2,0,0,0-.19-.61,4.62,4.62,0,0,0-.6-.09l-15.42.16a4.73,4.73,0,0,0-.8.15,35.07,35.07,0,0,0-1,8.44c1.74.39,3.65.46,12.54.35A23.91,23.91,0,0,0,149.42,32.75Zm79-9.3c-.21,2.06.33,4,.39,6a4.59,4.59,0,0,0,.43,2.35l18.67-3.54a.33.33,0,0,0,.14-.1s.07-.09.21-.27c-.36-2.09-.75-4.29-1.15-6.49a2.94,2.94,0,0,0-.35-.68C240.66,21.44,234.6,22.37,228.45,23.45Zm-97.1.71a16.87,16.87,0,0,0-3.41-.28c-1.12-.06-2.25-.05-3.37-.11s-2.36-.15-3.54-.22-2.24-.13-3.36-.17a13.52,13.52,0,0,0-3.38-.15,36.64,36.64,0,0,0-1.17,4.11,17.12,17.12,0,0,0-.89,4.15c.42.06.76.14,1.11.17,2.23.21,4.47.45,6.7.6,3,.21,6,.34,9,.49a6.88,6.88,0,0,0,1.17-.17C130.6,29.74,131,27,131.35,24.16ZM270.8,26.71a46.42,46.42,0,0,0,2,7.63l18.67-1.61a7.74,7.74,0,0,0,.84-.14,29.36,29.36,0,0,0-2.73-7.37C283.37,25.61,277.07,26,270.8,26.71Zm-64.13-8.62c-.49,0-1,0-1.53.1q-7.29,1.05-14.58,2.14a9.57,9.57,0,0,0-1.28.34,33.67,33.67,0,0,0,.74,8.46l5.91-1c1.93-.32,3.86-.62,5.78-1A44.59,44.59,0,0,0,207.52,26,36,36,0,0,0,206.67,18.09Zm1.5-.22c.31,2.7.38,5.28.89,7.93.74-.11,1.38-.19,2-.31q7.13-1.38,14.25-2.78c.5-.1,1.07-.08,1.42-.55a25.41,25.41,0,0,0-1-7.17,2.12,2.12,0,0,0-.5-.05l-16.08,2.61A8.41,8.41,0,0,0,208.17,17.87ZM313.41,31.66c-1.24-2.57-2.42-4.87-3.6-7.08-2.91-.27-16.68.33-18.5.81.86,2.38,1.7,4.74,2.65,7.1l18.35-.67C312.6,31.81,312.88,31.74,313.41,31.66Zm-63.53-3.73,18.92-2.44a28.32,28.32,0,0,0-1.91-6.73c-.3,0-.65,0-1,0-1.65.13-3.31.25-4.95.41q-5.65.55-11.29,1.17c-.45,0-1,0-1.26.51A28.87,28.87,0,0,0,249.88,27.93Zm79.2-3.82h-1.46c-3.08,0-6.15,0-9.23.09-2,0-4,.09-6,.16a5.53,5.53,0,0,0-1,.27c1.22,2.46,2.37,4.77,3.58,7,.46,0,.81.06,1.16.06l17.38-.12a.31.31,0,0,0,.16-.06.6.6,0,0,0,.08-.16A52.69,52.69,0,0,0,329.08,24.11ZM245.27,12.53a159.79,159.79,0,0,0-17.79,2.27,36.3,36.3,0,0,0,.8,7.14c.11,0,.22.13.32.11q8.85-1.29,17.7-2.61s.1-.07.14-.11a1.13,1.13,0,0,0,.1-.13A30,30,0,0,0,245.27,12.53Zm23.37,6.12a3,3,0,0,0,0,.84c.59,1.91.94,3.9,1.73,5.83L288.11,24a8.45,8.45,0,0,0,1-.21,29,29,0,0,0-2.41-6.3C284.92,17.36,270.94,18.22,268.64,18.65Zm-2.18-1.33a24.29,24.29,0,0,0-1.84-6.44c-1.05,0-2.17.06-3.27.15q-7,.59-14,1.21c-.16,0-.3.16-.44.23a29.24,29.24,0,0,0,1.24,6.66,4.51,4.51,0,0,0,.65.05ZM308.77,23a28,28,0,0,0-3.3-6.26c-.36,0-.77,0-1.18,0l-13.5.47c-.47,0-1,0-1.42.11a10.77,10.77,0,0,0-1.11.25c.83,2.15,1.62,4.18,2.41,6.21a5,5,0,0,0,.78.09q8.52-.34,17-.71C308.59,23.12,308.68,23,308.77,23ZM266.11,10.73c.7,2.29,1.19,4.39,2,6.49l17.07-1a7.7,7.7,0,0,0,.9-.19,10.61,10.61,0,0,0-1.05-3,13.08,13.08,0,0,0-1.4-3.08C277.85,10,272.13,10.37,266.11,10.73ZM131.64,22.6c.22-1.14.47-2.23.62-3.34s.76-2.21.41-3.48c-3-.12-5.95-.22-8.9-.35-2.18-.09-4.37-.21-6.55-.32a.35.35,0,0,0-.16.06.8.8,0,0,0-.16.08,29.72,29.72,0,0,0-2,6.39c.14.07.29.22.44.23q7.6.45,15.22.86A8.45,8.45,0,0,0,131.64,22.6Zm18.2-.11a2,2,0,0,0,.24-.61q.3-2.64.54-5.28a3.61,3.61,0,0,0-.14-.82c-.34,0-.57-.07-.8-.07l-14.52.1a3.67,3.67,0,0,0-.79.17,22.45,22.45,0,0,0-1.16,6.62A133.71,133.71,0,0,0,149.84,22.49Zm18.72-1.12a24.84,24.84,0,0,0,.12-6.41,31.91,31.91,0,0,0-4,.19c-1.42.08-2.84.11-4.26.17s-2.71.14-4.07.23a25.24,25.24,0,0,0-4.18.25,26.79,26.79,0,0,0-.63,6.55,1.29,1.29,0,0,0,.47.15q7.88-.43,15.75-.91A4.3,4.3,0,0,0,168.56,21.37Zm155.56-5h-5.74c-1.84,0-3.68,0-5.51.1a38.16,38.16,0,0,0-5.43.34,26.63,26.63,0,0,0,3.33,6.29,3,3,0,0,0,.52,0q8.08-.15,16.17-.32a2.59,2.59,0,0,0,.72-.24Zm-154,5c3.07-.28,5.95-.55,8.82-.89s5.75-.57,8.61-1.1a9.73,9.73,0,0,0,0-2.9c-.06-1,.2-2-.35-3-.68,0-1.33.07-2,.12-.94.08-1.89.19-2.83.26-3.54.27-7.09.53-10.63.81a2.11,2.11,0,0,0-1.61.53A59.41,59.41,0,0,0,170.15,21.37Zm134.56-6.16a27.36,27.36,0,0,0-3.12-5.93,2.84,2.84,0,0,0-.51-.06l-14.93.46a3.76,3.76,0,0,0-.78.21A32.87,32.87,0,0,0,287.78,16a6.81,6.81,0,0,0,.82.05l15.63-.64A1.81,1.81,0,0,0,304.71,15.21Zm18.18-.36a30.87,30.87,0,0,0-3.85-6c-1.72,0-3.44,0-5.15,0s-3.55,0-5.32.1a32.52,32.52,0,0,0-5.26.37c1.05,2.07,2.05,4,3.08,5.85C308.05,15.38,319.84,15.14,322.89,14.85ZM206.13,11.69a4.23,4.23,0,0,0-.7-.06l-16.2,1.68s-.1.07-.14.11a.63.63,0,0,0-.12.1,16.39,16.39,0,0,0,.33,5.69c1.9-.25,3.83-.48,5.75-.76s4-.6,5.94-.91a37.06,37.06,0,0,0,5.77-1c-.14-1.5-.26-2.91-.41-4.31A1.91,1.91,0,0,0,206.13,11.69ZM299.53,2a6,6,0,0,0,.28.79c.87,1.67,1.76,3.33,2.64,5,.36,0,.65.08.94.08l14.33-.42a.28.28,0,0,0,.16,0,.4.4,0,0,0,.08-.16,32.51,32.51,0,0,0-3.6-5.79A129.74,129.74,0,0,0,299.53,2ZM282.39,3.21c.84,1.87,1.41,3.6,2.26,5.21.73,0,1.38,0,2,0l5.84-.22,7.27-.28a10.36,10.36,0,0,0,1.2-.18c-1.12-2-1.95-3.93-3.09-5.63-1.78-.09-11.79.49-14.44.84A9.68,9.68,0,0,0,282.39,3.21Zm-1.37,0c-.46,0-.76,0-1,0-4.93.48-9.87.95-14.8,1.44a3.42,3.42,0,0,0-.8.32,21.56,21.56,0,0,0,1.53,4.44l16.85-.93a.33.33,0,0,0,.16-.07,3.11,3.11,0,0,0,.13-.34ZM208,16.42c5.68-.91,11.09-1.77,16.49-2.65.4-.07.78-.21,1.27-.35a15.28,15.28,0,0,0-.68-4.07c-2,.22-3.94.42-5.86.64s-3.88.4-5.81.7a34.7,34.7,0,0,0-5.8.85C207.76,13.14,207.88,14.66,208,16.42ZM246.54,11l17-1.34a4.54,4.54,0,0,0,.66-.15,12.92,12.92,0,0,0-1.36-4.41,12.89,12.89,0,0,0-1.39,0q-7.5.84-15,1.72a4.58,4.58,0,0,0-.84.28A18.8,18.8,0,0,0,246.54,11Zm-1.45.05-.79-3.68a2.87,2.87,0,0,0-1.86-.1c-1.65.19-3.29.4-4.93.6L227.82,9a8,8,0,0,0-1.17.34,13.86,13.86,0,0,0,.62,3.93l16.79-2A6.87,6.87,0,0,0,245.09,11Z"/></g></g></svg>