<svg xmlns="http://www.w3.org/2000/svg" viewBox="0 0 431.28 350.01"><defs><style>.cls-1{fill:#fff;}</style></defs><title>plat</title><g id="Calque_2" data-name="Calque 2"><g id="Layer_1" data-name="Layer 1"><path class="cls-1" d="M403.13,350a83,83,0,0,1-13.5-1.44,193.81,193.81,0,0,1-34-10,413.38,413.38,0,0,1-41.55-18.8c-19.25-9.88-37.9-20.79-56.15-32.39a1034.08,1034.08,0,0,1-96.33-69.56Q132.91,194.6,106,169.33c-16.13-15.2-31.71-31-46.47-47.51A464.56,464.56,0,0,1,27.22,81.71a234,234,0,0,1-17-27.29A110.22,110.22,0,0,1,2.48,36.13,53.28,53.28,0,0,1,.2,25.56a28,28,0,0,1,.89-11.44A17.72,17.72,0,0,1,8.75,4.23,26.31,26.31,0,0,1,18.2.75,54.08,54.08,0,0,1,31.65.17a133.08,133.08,0,0,1,28.5,5.69A290.7,290.7,0,0,1,94.84,19a544.39,544.39,0,0,1,50.52,26c24.15,13.9,47.44,29.13,70.16,45.25a1056.41,1056.41,0,0,1,98.37,78.91c19,17.19,37.27,35.09,54.54,54a479.22,479.22,0,0,1,33.47,40.55,243.85,243.85,0,0,1,17.81,27.81,118.32,118.32,0,0,1,8.53,19.31,58.62,58.62,0,0,1,2.89,13.34,29.86,29.86,0,0,1-.88,11.09,18.22,18.22,0,0,1-9.41,11.48,28.25,28.25,0,0,1-8.59,2.73A51.35,51.35,0,0,1,403.13,350ZM188.84,152.82l.3.31.12-.21-.46,0c.1-.5-.25-.51-.59-.56C188.17,152.82,188.44,152.9,188.84,152.82ZM417.92,346.38c5.11-2,8.72-5.34,10.55-10.47a26,26,0,0,0,1.31-10A50.05,50.05,0,0,0,428,315.26a113.72,113.72,0,0,0-10.46-24.63,2.71,2.71,0,0,0-1.14-1.06q-14.51-8.44-29-16.93l-22.55-13.17a5.8,5.8,0,0,0-1.85-.89,6.4,6.4,0,0,0,.24.78c.33.7.68,1.39,1,2.08a70.06,70.06,0,0,1,5.63,15.49,29.49,29.49,0,0,1,.57,11.46,14.44,14.44,0,0,1-7.07,10.55c-.33.2-.65.43-1.08.72.3.31.48.53.69.71ZM295.25,286.25a10.2,10.2,0,0,0,1.37,1.85q13.81,17.28,27.64,34.55a5.12,5.12,0,0,0,1.91,1.52c9.56,4.58,19.22,8.9,29.12,12.69a200.19,200.19,0,0,0,33.1,10,79.58,79.58,0,0,0,19.78,1.59,36.87,36.87,0,0,0,7-1.12,5.76,5.76,0,0,0,.94-.47c-4.72-4-9.36-7.85-14-11.73l-13.76-11.53-13.89-11.64c-4.62-3.87-9.23-7.76-13.87-11.61l-1.11.35a31.41,31.41,0,0,1-7.35,1.18,69.2,69.2,0,0,1-18.3-2,160.35,160.35,0,0,1-20.67-6.39c-5.54-2.08-11-4.37-16.39-6.81C296.35,286.43,295.92,286,295.25,286.25Zm-.4-110.6a5.24,5.24,0,0,0,1.36,1.58c5.52,5.53,11.12,11,16.56,16.61a412.36,412.36,0,0,1,30.92,35.5,211.16,211.16,0,0,1,16.69,24.72,6.61,6.61,0,0,0,2.57,2.57q18.58,10.81,37.13,21.68c4.65,2.71,9.3,5.44,14,8.15a4.71,4.71,0,0,0,.62.35c.19.08.4.31.68-.06-.21-.36-.44-.77-.68-1.17-2.74-4.64-5.66-9.17-8.71-13.62a416.06,416.06,0,0,0-29.48-37.6c-16-18.33-33-35.62-50.72-52.29-1.56-1.47-1.57-1.46-3.69-1.82l-26.24-4.54C295.55,175.66,295.28,175.68,294.85,175.65Zm-103.6,63.48c.48.38.88.72,1.3,1,20,15.05,40.41,29.43,61.45,43,17.88,11.51,36.14,22.39,55,32.31,3.72,2,7.47,3.85,11.21,5.77.32.16.65.45,1.15.21-.37-.49-.67-.92-1-1.33q-13.83-17.28-27.65-34.56a7.17,7.17,0,0,0-2.6-2.06c-7.91-3.76-15.67-7.83-23.33-12.09a637.61,637.61,0,0,1-55.9-35.21c-6-4.21-11.93-8.56-17.9-12.85a3.65,3.65,0,0,0-1.51-.9,2.07,2.07,0,0,0-.17.55Q191.25,231.06,191.25,239.13Zm130.19-60.52.2-.31c-.24-.25-.46-.5-.71-.73q-1.89-1.75-3.79-3.5A1061.36,1061.36,0,0,0,205,84.59c-4.09-2.83-8.22-5.61-12.34-8.39-.36-.24-.68-.7-1.31-.45V92.46c.59.42,1.16.83,1.75,1.23a810.34,810.34,0,0,1,88.66,70c3.29,3,6.52,6,9.77,9.07a3.7,3.7,0,0,0,2,1.09q12.24,2.1,24.49,4.24C319.11,178.26,320.28,178.42,321.44,178.61ZM76.78,13.44c.36.47.56.75.78,1Q88.27,27.84,99,41.24a5.06,5.06,0,0,0,2.27,1.6c8.22,3.19,16.25,6.83,24.16,10.72a493.59,493.59,0,0,1,44.25,24.88c6.16,3.87,12.23,7.89,18.35,11.84a2.89,2.89,0,0,0,1.64.79c0-.64.08-1.22.09-1.8,0-4.32,0-8.64,0-13,0-2.37.23-1.89-1.64-3.13q-19.25-12.75-39.15-24.45c-15.75-9.2-31.8-17.83-48.34-25.51-7.14-3.31-14.37-6.43-21.7-9.28A3.81,3.81,0,0,0,76.78,13.44Zm-.15,124.4a4.52,4.52,0,0,0,.43.72q22.82,23.82,47.47,45.75,31.07,27.83,64.29,53a6.27,6.27,0,0,0,.68.39,3.77,3.77,0,0,0,.21-.7c.19-2.84,0-14.94-.19-16.2l-1.22-1c-4.56-3.49-9.15-7-13.67-10.5a754.41,754.41,0,0,1-62-54.05c-4.28-4.18-8.46-8.47-12.66-12.72a4,4,0,0,0-2.27-1.22c-6.54-1.09-13.07-2.27-19.6-3.4C77.71,137.9,77.3,137.9,76.63,137.84ZM96.76,41c-.46-.64-.7-1-1-1.37l-11-13.73C81.36,21.59,77.9,17.3,74.48,13a4.33,4.33,0,0,0-2.11-1.51c-1.69-.55-3.34-1.18-5-1.75-10.73-3.6-21.6-6.63-32.9-7.82A57.55,57.55,0,0,0,19,2.11a27,27,0,0,0-7.45,2.27,7.63,7.63,0,0,0-.95.72c.32.22.53.34.72.49l36,30.09a.31.31,0,0,0,.16.06,1.8,1.8,0,0,0,.26,0c.31-.15.68-.33,1-.49a25.5,25.5,0,0,1,7-1.86,46.27,46.27,0,0,1,11.34.07,95.47,95.47,0,0,1,13.59,2.58c4.93,1.27,9.77,2.83,14.57,4.51C95.67,40.72,96.06,40.8,96.76,41Zm264,257.48a12.39,12.39,0,0,0,7.59-7.7,19.5,19.5,0,0,0,1-7.35,36.14,36.14,0,0,0-1-7,82.36,82.36,0,0,0-7.75-19,3,3,0,0,0-1.26-1.19c-1.64-.94-3.28-1.9-4.91-2.86l-32.18-18.8c-.55-.32-1.1-.61-1.73-.95a2.13,2.13,0,0,0,.43,1.61,59.48,59.48,0,0,1,3.56,9.27,27.63,27.63,0,0,1,1.19,8.76c-.21,4.18-1.68,7.72-5.34,10.08a7.23,7.23,0,0,0-.73.64ZM97.09,139.74c-.48-.59-.65-.82-.84-1q-1.95-2.07-3.89-4.15a396.14,396.14,0,0,1-28.53-34A186.24,186.24,0,0,1,47.38,74.61a4.1,4.1,0,0,0-1.75-1.68L28.6,63q-7.89-4.62-15.8-9.22a1.9,1.9,0,0,0-1.39-.49c.17.39.27.72.43,1,.87,1.61,1.74,3.23,2.65,4.83A261.85,261.85,0,0,0,31.83,85.55a538.25,538.25,0,0,0,41.73,49.37A4.09,4.09,0,0,0,76,136.13l15.74,2.72Zm-52-68.95c.12-.26.18-.32.16-.36-.18-.5-.35-1-.56-1.49A60.69,60.69,0,0,1,40.43,55.8a26.33,26.33,0,0,1-.22-9.53A14.23,14.23,0,0,1,45,37.62c.31-.27.61-.55,1-.92-.48-.43-.9-.83-1.35-1.21L31.37,24.31,10.82,7.09A4.8,4.8,0,0,0,9.06,5.87c-.24.15-.5.29-.74.47A15.84,15.84,0,0,0,2.84,13.6a22.21,22.21,0,0,0-1.36,7.3A39.86,39.86,0,0,0,2.69,31.27,91.78,91.78,0,0,0,9.13,48.91a4.66,4.66,0,0,0,2,2.16q16.34,9.49,32.65,19.05C44.16,70.35,44.59,70.55,45.06,70.79Zm314,228.39c-.35-.38-.53-.61-.74-.8-6.8-6-39-32.86-40.56-33.78l-.64.17a25.94,25.94,0,0,1-7.88,1.07A52.61,52.61,0,0,1,301,265a103,103,0,0,1-15.91-4.3c-4.53-1.57-9-3.36-13.37-5.26a2,2,0,0,0-1.38-.31c.39.53.69,1,1,1.38q10.1,12.62,20.19,25.24a6.63,6.63,0,0,0,2.45,2c5.65,2.59,11.33,5.09,17.13,7.34a155.54,155.54,0,0,0,26.8,8.09,61,61,0,0,0,13.94,1.25A26.5,26.5,0,0,0,359.08,299.18Zm-.82-45.35a2.91,2.91,0,0,0-.1-.63c-.28-.52-.57-1-.88-1.54a220.62,220.62,0,0,0-14-20.35c-15.31-20-32.63-38.15-50.79-55.54a3.56,3.56,0,0,0-2-1c-6.53-1.12-13.06-2.28-19.59-3.41-.25,0-.56-.2-.82.23.21.24.43.51.67.75,1.76,1.76,3.54,3.5,5.29,5.26a358.09,358.09,0,0,1,26,28.91,170.54,170.54,0,0,1,16,23.25,4.68,4.68,0,0,0,1.94,1.73l36.5,21.32C357,253.14,357.54,253.42,358.26,253.83Zm-167-33.69c.49.39.9.73,1.32,1,3.16,2.31,6.3,4.64,9.47,6.92a675.16,675.16,0,0,0,62,40.08c7.52,4.26,15.15,8.33,22.9,12.15a4.41,4.41,0,0,0,1.95.7c-.39-.54-.66-1-1-1.37Q277.8,267,267.64,254.27a5.82,5.82,0,0,0-2.06-1.62c-5-2.5-10.1-5-15.06-7.6a459,459,0,0,1-44.87-27.69c-4.33-3-8.6-6.1-12.9-9.14-.41-.29-.74-.81-1.51-.62C191.24,211.77,191.23,216,191.24,220.14Zm.07-112.84a2.37,2.37,0,0,0,.3.34l1.45,1a621.06,621.06,0,0,1,50.1,38.55q12,10.2,23.36,21.05a4.18,4.18,0,0,0,2.25,1.28c6.07,1,12.13,2.09,18.19,3.14.72.12,1.45.19,2.52.33-.6-.63-.94-1-1.32-1.37A803.13,803.13,0,0,0,192.24,95a6,6,0,0,0-.76-.39A94.18,94.18,0,0,0,191.31,107.3ZM102.22,45.15c.19.28.33.53.51.75Q111.16,56.45,119.6,67a4.39,4.39,0,0,0,1.84,1.31c3.43,1.45,6.87,2.89,10.26,4.44a350,350,0,0,1,36.08,19.46q10.17,6.2,20,12.87a4.89,4.89,0,0,0,1.78,1,53,53,0,0,0,.13-6.41c0-2.12,0-4.25,0-6.36-.57-.4-1-.75-1.53-1.08q-12.82-8.62-26-16.65A460.08,460.08,0,0,0,118,51.65c-4.61-2.14-9.31-4.11-14-6.13C103.47,45.31,103,44.9,102.22,45.15Zm87.41,173.6c0-.78.09-1.35.09-1.93,0-2.85,0-5.69,0-8.54,0-2.7.31-2.05-1.79-3.62A597.14,597.14,0,0,1,131.44,157c-3.72-3.57-7.34-7.24-11-10.89a3.9,3.9,0,0,0-2.27-1.21c-4.5-.73-9-1.56-13.47-2.34-.87-.16-1.74-.27-2.62-.4,0,.21,0,.37,0,.43a681.22,681.22,0,0,0,49.94,46.47C164.87,200,186.48,217,189.63,218.75ZM48.91,37C51,38.86,53,40.48,55,42.15s4,3.35,6,5l6,5q3,2.52,6,5c2,1.66,4,3.37,5.85,4.87,1.61-.48,3-1,4.44-1.3a27.39,27.39,0,0,1,7.06-.49,63.61,63.61,0,0,1,13.31,2.07c4.19,1,8.29,2.4,12.37,3.84a9,9,0,0,0,1.1.2,7.4,7.4,0,0,0-.48-.78L99.52,44.26A3.47,3.47,0,0,0,98,43.16c-9.17-3.4-18.46-6.34-28.16-7.81a56.55,56.55,0,0,0-12.93-.54,23.46,23.46,0,0,0-6.56,1.47A13.94,13.94,0,0,0,48.91,37Zm-1.47.77c-.47.3-.79.46-1.06.67a12.89,12.89,0,0,0-4.78,8.44,26.48,26.48,0,0,0,.58,10,69.09,69.09,0,0,0,5.16,14.33,4.56,4.56,0,0,0,2,2.15c4.31,2.47,8.59,5,12.88,7.5q6.66,3.9,13.33,7.78c.33.19.62.59,1.21.3l-.42-1.09c-.82-2.28-1.72-4.53-2.45-6.84a24.14,24.14,0,0,1-1.21-8c.11-3.76,1.25-7.09,4.31-9.54a3.66,3.66,0,0,0,.38-.44,3.87,3.87,0,0,0-.44-.53C67.13,54.28,57.33,46.08,47.44,37.78ZM49.8,75.55c-.11.67.31,1.07.55,1.51a169.14,169.14,0,0,0,9.54,15.39c11.61,16.81,25,32.16,39.05,46.94a3.32,3.32,0,0,0,2,1.05c4.55.76,9.09,1.58,13.64,2.37.86.14,1.73.25,2.69.4a3.79,3.79,0,0,0-1.21-1.64c-7.25-7.66-14.25-15.54-20.76-23.84A163.86,163.86,0,0,1,78.75,92.92a3.48,3.48,0,0,0-1.45-1.49c-1.8-1-3.58-2.08-5.37-3.12q-10.28-6-20.55-12A4,4,0,0,0,49.8,75.55ZM318.24,262.71A9.74,9.74,0,0,0,324,255a21.65,21.65,0,0,0-.54-8.63,60.1,60.1,0,0,0-5.23-13.36,4.61,4.61,0,0,0-1.91-2c-4.36-2.51-8.7-5.06-13-7.6l-14-8.15a6.21,6.21,0,0,0-.62-.35c-.18-.07-.39-.32-.66.07a9.35,9.35,0,0,0,.33.91,41.62,41.62,0,0,1,2.33,6.32,21,21,0,0,1,.86,6.49,9.31,9.31,0,0,1-3.75,7.51,2.73,2.73,0,0,0-.44.46C288.34,237.81,316.06,261.11,318.24,262.71Zm-2,.64a1.28,1.28,0,0,0-.07-.29c-.21-.2-.42-.41-.65-.6L285.8,237.61a.85.85,0,0,0-.17-.06l-.24,0a23.09,23.09,0,0,1-9.59.75,63.76,63.76,0,0,1-11.43-2.45,122,122,0,0,1-11.83-4.3c-.37-.16-.76-.54-1.29-.24a3.69,3.69,0,0,0,.29.5l15.63,19.55a3.79,3.79,0,0,0,1.54,1.15c1.2.51,2.37,1.08,3.57,1.59a150.64,150.64,0,0,0,24.07,8.44,61.45,61.45,0,0,0,11.91,1.81,27.39,27.39,0,0,0,6.88-.55A7.5,7.5,0,0,0,316.2,263.35ZM251,168.16a4.48,4.48,0,0,0,1.28,1.56,274.25,274.25,0,0,1,23,25.67,123.15,123.15,0,0,1,10.15,15,5.91,5.91,0,0,0,2.32,2.33q11.76,6.83,23.47,13.7c1.18.69,2.35,1.38,3.54,2a2,2,0,0,0,.63.12c0-.25,0-.38,0-.47-.25-.47-.51-.93-.79-1.39-3-4.85-6.21-9.52-9.64-14-11.23-14.82-23.95-28.29-37.26-41.22a3.28,3.28,0,0,0-1.86-.91c-4.49-.76-9-1.57-13.47-2.35A9.3,9.3,0,0,0,251,168.16Zm12.79,82a2.75,2.75,0,0,0,.26-.22c-.35-.46-.69-.93-1-1.39-4.36-5.45-8.78-10.87-13.07-16.38a13.86,13.86,0,0,0-5.3-4.23,282.67,282.67,0,0,1-32.77-18.45c-6.43-4.12-12.72-8.44-18.93-12.9a4.53,4.53,0,0,0-1.52-.91,2.35,2.35,0,0,0-.19.54c0,3,0,6,0,9,.6.45,1.11.86,1.63,1.24,9.8,7.16,19.78,14.06,30,20.59a398.15,398.15,0,0,0,39.18,22.27Zm.58-81.42a3.37,3.37,0,0,0-1.27-1.6A607.87,607.87,0,0,0,200,115.37c-2.5-1.79-5-3.55-7.56-5.31-.31-.22-.6-.61-1.09-.37a72.32,72.32,0,0,0,.07,9.6c.51.36,1,.74,1.57,1.11a456.54,456.54,0,0,1,54.37,44.52,5.06,5.06,0,0,0,2.77,1.39c3.39.58,6.76,1.18,10.15,1.75C261.61,168.29,263,168.49,264.41,168.73Zm-74.8-60.62-3-2A442,442,0,0,0,142,79.42c-5.73-3-11.56-5.71-17.5-8.22a2.86,2.86,0,0,0-1.8-.48,8,8,0,0,0,.5.77q6.43,8.06,12.86,16.1a4.14,4.14,0,0,0,1.67,1.26c1.8.75,3.6,1.5,5.38,2.31a264.07,264.07,0,0,1,31.33,17c4.62,2.89,9.14,5.93,13.71,8.89.41.27.77.72,1.35.67A65.55,65.55,0,0,0,189.61,108.11Zm-67.24,37.73c.46.52.78.92,1.14,1.29a581.24,581.24,0,0,0,65.34,56.34,4.31,4.31,0,0,0,.71.3,24.07,24.07,0,0,0,.15-4.85,26.25,26.25,0,0,0-.12-4.77L188,193q-17.15-12.7-33.08-26.88c-6.1-5.45-12-11-17.79-16.87a4.5,4.5,0,0,0-2.71-1.47c-3.11-.45-6.18-1.1-9.28-1.59A7.76,7.76,0,0,0,122.37,145.84ZM133.49,87a3.29,3.29,0,0,0-.25-.55q-6.66-8.32-13.31-16.66a3.54,3.54,0,0,0-1.59-1.07A124,124,0,0,0,99.68,63,48.9,48.9,0,0,0,86.8,61.8a19.56,19.56,0,0,0-5.56,1.07,4,4,0,0,0-.73.41,1.28,1.28,0,0,0,.08.24,1.39,1.39,0,0,0,.21.27l21.79,18.28c.55.45,1.1.9,1.66,1.34a.31.31,0,0,0,.16.06l.22,0a2.5,2.5,0,0,0,.47-.12,18.29,18.29,0,0,1,7.5-1.14,44.4,44.4,0,0,1,8.27,1.08,92.39,92.39,0,0,1,10.9,3.18A3.46,3.46,0,0,0,133.49,87Zm-31.17,17a12.13,12.13,0,0,0-.39-1.16c-.6-1.73-1.25-3.45-1.76-5.21a17.41,17.41,0,0,1-.61-6.85,8.8,8.8,0,0,1,2.63-5.5c.25-.24.48-.49.69-.71a.87.87,0,0,0-.06-.25,6.05,6.05,0,0,0-.63-.61L79,64.31a.85.85,0,0,0-.17-.06l-.3,0a8.64,8.64,0,0,0-3.85,5.2,17.2,17.2,0,0,0-.21,7.75,49,49,0,0,0,4.3,12.56,4.06,4.06,0,0,0,1.76,1.9c2.82,1.61,5.62,3.27,8.44,4.91l12,7C101.34,103.75,101.69,104.12,102.32,104Zm-21-10.09-.22.24c.27.52.51,1.06.82,1.55,1.64,2.68,3.24,5.38,5,8A227.06,227.06,0,0,0,103.14,125c5.13,6.06,10.5,11.91,16,17.65a4.14,4.14,0,0,0,2.57,1.38c2.4.33,4.77.83,7.16,1.24,1.57.27,3.14.52,4.8.79a3.17,3.17,0,0,0-1.16-1.64c-4.32-4.56-8.53-9.22-12.52-14.07a137.23,137.23,0,0,1-15.68-22.57,3.73,3.73,0,0,0-1.49-1.46l-20.55-12C82,94.17,81.64,94,81.34,93.89ZM262.49,216.11c.32.26.64.52.95.79l21.5,18a9.73,9.73,0,0,0,1,.66,7.09,7.09,0,0,0,3.88-5.29,14.76,14.76,0,0,0-.17-5.81,37,37,0,0,0-2.89-8.37c-1.46-3.13-1.46-3.13-4.35-4.82L264.79,201a3.24,3.24,0,0,0-1.67-.7c.23.61.4,1.1.59,1.58a22.7,22.7,0,0,1,1.72,6.67c.21,2.72-.33,5.19-2.54,7A3.36,3.36,0,0,0,262.49,216.11Zm21.57,20.06c-2-1.74-3.88-3.29-5.76-4.87l-5.85-4.91-5.72-4.79c-2-1.62-3.86-3.29-5.83-4.84a16.42,16.42,0,0,1-6.6.67c-1.76-.2-3.52-.47-5.25-.83a68.94,68.94,0,0,1-11-3.46,3.15,3.15,0,0,0-1.65-.42c.32.47.55.86.83,1.21,3.54,4.44,7.11,8.87,10.64,13.32a4.67,4.67,0,0,0,1.94,1.47c2.08.85,4.13,1.78,6.22,2.6a83.36,83.36,0,0,0,18.37,5.28,28.24,28.24,0,0,0,7.79.14A5,5,0,0,0,284.06,236.17ZM283,209.85l.28-.21c-.28-.5-.55-1-.85-1.49A139.19,139.19,0,0,0,273,194.84a276.29,276.29,0,0,0-23-25.35c-2.54-2.49-1.37-2-5-2.57l-.34-.08c-2.28-.4-4.54-.81-6.82-1.18a2.27,2.27,0,0,0-1.66,0c.45.48.84.91,1.24,1.32,4.33,4.37,8.51,8.89,12.45,13.62a106.65,106.65,0,0,1,11,15.45,5.36,5.36,0,0,0,2.08,2.09c6.25,3.61,12.47,7.26,18.7,10.9C282.06,209.35,282.53,209.59,283,209.85Zm-37.77,16.53c-.59-.79-.93-1.26-1.3-1.72-3-3.79-6.12-7.54-9.08-11.4a9.65,9.65,0,0,0-4.52-3.52,12.64,12.64,0,0,1-1.29-.61,230.24,230.24,0,0,1-27-15.66c-3.15-2.09-6.24-4.29-9.38-6.43-.36-.24-.67-.69-1.22-.53a34.45,34.45,0,0,0,0,7.05C204.05,203.53,236.62,223.47,245.22,226.38Zm.11-61.11a4.68,4.68,0,0,0-1.35-1.54,442.58,442.58,0,0,0-37.44-31.6c-4.53-3.42-9.17-6.71-13.76-10-.41-.29-.78-.73-1.37-.67a36.71,36.71,0,0,0,0,7.11c.36.26.73.56,1.11.83q9.74,6.84,19,14.35c7.41,6,14.58,12.28,21.42,18.93a3.6,3.6,0,0,0,2,1c3.1.5,6.18,1.08,9.27,1.61A7.2,7.2,0,0,0,245.33,165.27ZM189.6,119.92c-.29-.23-.52-.41-.76-.58a333,333,0,0,0-37.4-22.53c-3.65-1.85-7.38-3.51-11.07-5.24-.29-.14-.6-.45-1,0a5,5,0,0,0,.35.58c3.21,4,6.44,8,9.65,12.08a3.73,3.73,0,0,0,1.57,1.11A178.56,178.56,0,0,1,175.19,118c4.43,2.73,8.76,5.63,13.15,8.45.36.23.69.62,1.2.56A37.6,37.6,0,0,0,189.6,119.92ZM139,148.59c0,.22,0,.37.08.44.35.4.72.79,1.1,1.16a430.87,430.87,0,0,0,36.85,32.52c3.72,2.93,7.51,5.76,11.28,8.63.35.27.66.66,1.26.55,0-.27.1-.5.11-.72,0-1.72,0-3.44,0-5.15a1.66,1.66,0,0,0-.81-1.65,5.56,5.56,0,0,1-.57-.42,329.81,329.81,0,0,1-38.27-32.74,4,4,0,0,0-2.31-1.17L141.49,149C140.68,148.82,139.88,148.71,139,148.59ZM106,84.72a10.16,10.16,0,0,0,.72.77c6.16,5.16,12.31,10.34,18.4,15.41,1.15-.26,2.11-.53,3.1-.69a24.44,24.44,0,0,1,8.81.55,59.54,59.54,0,0,1,8.84,2.57c.25.09.54.27.79-.14a5,5,0,0,0-.39-.55c-3.21-4-6.44-8-9.64-12.07a4.07,4.07,0,0,0-1.81-1.34,92.53,92.53,0,0,0-16.3-4.85,35.42,35.42,0,0,0-8.66-.54A11.62,11.62,0,0,0,106,84.72Zm-1.74.89a6.38,6.38,0,0,0-2.88,3.83,12.64,12.64,0,0,0-.17,5.8,37.41,37.41,0,0,0,3.4,9.86,2.84,2.84,0,0,0,1.2,1.25q8.2,4.77,16.39,9.56c.23.13.46.4.86.07-.18-.51-.38-1-.57-1.59a20.63,20.63,0,0,1-1.3-5.69,7.77,7.77,0,0,1,2.19-6.49,1.64,1.64,0,0,0,.26-.42C122.34,100.45,105.43,86.33,104.22,85.61Zm2.69,23.23c-.24.59.14.89.34,1.21,1.51,2.41,3,4.84,4.59,7.18a185.06,185.06,0,0,0,15.28,19.15c2.8,3.13,5.71,6.16,8.58,9.24a2.91,2.91,0,0,0,1.55,1.12c3,.5,5.95,1,8.93,1.5.19,0,.49.11.55-.35-.34-.39-.73-.82-1.12-1.25-2.11-2.33-4.26-4.61-6.32-7A113,113,0,0,1,125,119.84a3.4,3.4,0,0,0-1.36-1.35l-15.79-9.21C107.53,109.11,107.22,109,106.91,108.84ZM243.44,200a9.89,9.89,0,0,0,.73.73l16.17,13.56a7.66,7.66,0,0,0,.84.52,4.87,4.87,0,0,0,2.7-4,12.6,12.6,0,0,0-.19-4.06,33.15,33.15,0,0,0-2.77-7.46,3.35,3.35,0,0,0-1.48-1.45l-14.24-8.32c-.28-.16-.6-.27-.89-.4-.24.47,0,.78.08,1.1a27.15,27.15,0,0,1,.8,2.72C245.66,195.48,245.66,197.93,243.44,200Zm-1.46.82a17.35,17.35,0,0,1-7.88.08,51.12,51.12,0,0,1-7.66-2.2c-.41-.15-.82-.54-1.39-.17.19.29.35.6.56.87,2.55,3.19,5.11,6.37,7.64,9.56a4.17,4.17,0,0,0,1.68,1.26,95.38,95.38,0,0,0,11,4.05,41.79,41.79,0,0,0,8.86,1.7,9.77,9.77,0,0,0,4.29-.47c0-.11,0-.27-.05-.32Zm-17.11-37.25c0,.57.38.78.65,1.07,1.45,1.56,2.95,3.08,4.37,4.66a93.46,93.46,0,0,1,12.28,16.25,3.16,3.16,0,0,0,1.24,1.22q7.13,4.15,14.25,8.31c.21.13.45.41.86.08-.29-.49-.54-1-.87-1.48-1.69-2.43-3.33-4.89-5.12-7.25A199.52,199.52,0,0,0,234,165.69a3.83,3.83,0,0,0-2.16-1.09c-2-.33-4-.69-5.94-1A6.53,6.53,0,0,0,224.87,163.57Zm5.54,44.33c-.28-.4-.4-.61-.55-.79-2.58-3.24-5.18-6.47-7.75-9.72a4.31,4.31,0,0,0-1.71-1.22,147.16,147.16,0,0,1-14.24-7.6c-4.62-2.77-9.12-5.74-13.54-8.83-.36-.25-.67-.7-1.31-.53a41.27,41.27,0,0,0,0,5C200.45,191.42,225,206.36,230.41,207.9Zm.29-45.06c-4.06-5.28-34.62-30.24-39.35-32.18a27.93,27.93,0,0,0,0,5.09l1.46,1.09c4.1,3.11,8.25,6.17,12.29,9.36a208.46,208.46,0,0,1,16.26,14.31,4.36,4.36,0,0,0,2.47,1.24c1.82.26,3.62.62,5.43.92C229.63,162.74,230,162.77,230.7,162.84Zm-90.44-47.25-14.3-12c-.23-.19-.47-.36-.71-.53a.34.34,0,0,0-.17,0h-.31a5,5,0,0,0-2.08,3.64,11.51,11.51,0,0,0,.15,3.7,30.58,30.58,0,0,0,2.42,6.84,2.74,2.74,0,0,0,1.2,1.25c4.19,2.43,8.37,4.89,12.56,7.33a4.8,4.8,0,0,0,.77.27c-.33-1.16-.66-2.1-.87-3.07-.56-2.5-.59-4.94,1.26-7A1.43,1.43,0,0,0,140.26,115.59Zm17,1.06a9.48,9.48,0,0,0-.51-.92c-2.36-3-4.74-5.9-7.09-8.87a3.51,3.51,0,0,0-1.56-1.1,71.08,71.08,0,0,0-11.84-3.65,26.36,26.36,0,0,0-7.41-.5,4.12,4.12,0,0,0-2.11.61c1.33,1.22,2.61,2.24,3.87,3.3l3.67,3.08c1.27,1.06,2.52,2.15,3.81,3.19a41,41,0,0,0,3.85,3.09,16.19,16.19,0,0,1,8.29-.08c2,.44,3.88,1,5.81,1.56C156.34,116.45,156.67,116.52,157.23,116.65Zm32.46,12.6c-.42-.31-.74-.57-1.07-.8a255.63,255.63,0,0,0-23.7-14.66c-3.7-2-7.5-3.79-11.26-5.65-.32-.16-.66-.54-1.17-.18a8.46,8.46,0,0,0,.5.73c2.26,2.82,4.53,5.63,6.76,8.47a4.78,4.78,0,0,0,2,1.45,115,115,0,0,1,11.12,5.52c5.13,2.84,10.09,6,14.95,9.24a4.84,4.84,0,0,0,1.78,1A28.22,28.22,0,0,0,189.69,129.25Zm-37.23,21.67-.2.31c.44.45.86.92,1.31,1.37q11,10.74,23,20.35c3.88,3.11,7.86,6.1,11.79,9.13.35.27.67.66,1.31.55,0-.44.07-.84.07-1.24,0-1.24,0-2.48,0-3.73L187.51,176a249.87,249.87,0,0,1-25.2-21.31c-.89-.86-1.81-1.7-2.71-2.55-1.28-.25-2.55-.51-3.83-.73C154.67,151.24,153.56,151.09,152.46,150.92Zm5.21-.78-1.58-1.75c-5.45-5.87-10.64-11.94-14.56-19a2.8,2.8,0,0,0-1.12-1.09l-12.12-7.07c-.22-.13-.48-.4-.86,0,.71,1.12,1.41,2.29,2.16,3.42a167.31,167.31,0,0,0,19.64,23.6,2.61,2.61,0,0,0,1.52.79c1.87.31,3.73.65,5.6,1C156.63,150.07,156.92,150.07,157.67,150.14Zm71.67,30.29c.13.64.21,1.08.32,1.52.49,1.89.6,3.73-.68,5.41-.1.13,0,.44.05.63s.24.26.38.37q6,5.07,12.1,10.13a3.14,3.14,0,0,0,.73.37,3.3,3.3,0,0,0,1.67-2.84,11.65,11.65,0,0,0-.16-2.64,20.35,20.35,0,0,0-1.68-4.85,3.8,3.8,0,0,0-1.62-1.79c-3.29-1.88-6.54-3.8-9.81-5.7A14.08,14.08,0,0,0,229.34,180.43ZM215.91,187a4.12,4.12,0,0,0,.26.62c2,2.46,3.91,4.9,5.86,7.36a3.32,3.32,0,0,0,1.45,1,63.39,63.39,0,0,0,8.68,3.06,21.82,21.82,0,0,0,7.19.84c.28,0,.61,0,.7-.37-.92-1-11.51-9.94-12.94-10.86C223.32,189.36,219.71,188.2,215.91,187Zm23.25-2.79.27-.29c-.55-.83-1.08-1.67-1.65-2.49a136.82,136.82,0,0,0-15.42-17.8,1.52,1.52,0,0,0-.26-.25,4,4,0,0,0-1.07-.55c-1.51-.3-3-.53-4.54-.78a6.32,6.32,0,0,0-.87,0l1.32,1.45A74.74,74.74,0,0,1,227.5,177a3.3,3.3,0,0,0,1.27,1.19l9.64,5.62A5.51,5.51,0,0,0,239.16,184.16ZM153.69,127a6.71,6.71,0,0,0-.51-.58q-5.43-4.56-10.87-9.11a4.67,4.67,0,0,0-.72-.42,3.2,3.2,0,0,0-1.46,2.61,12.61,12.61,0,0,0,.17,2.81,19.28,19.28,0,0,0,1.49,4.35,3.39,3.39,0,0,0,1.53,1.64c2.92,1.68,5.82,3.39,8.73,5.08.3.17.62.29,1.13.53C152.61,131.44,152,129.12,153.69,127Zm1.29-1c1.16-.1,2-.23,2.92-.24a15.75,15.75,0,0,1,2.65.19c.87.13,1.72.4,2.59.58a8.08,8.08,0,0,0,2.55.55,7.62,7.62,0,0,0-.47-.72c-1.66-2.09-3.33-4.15-5-6.24a3.85,3.85,0,0,0-1.69-1.23,57.36,57.36,0,0,0-8.11-2.55,19.22,19.22,0,0,0-5.81-.49,5.55,5.55,0,0,0-.95.25c.06.22,0,.37.12.43C147.54,119.71,151.29,122.88,155,126Zm63.87,67.53a6.23,6.23,0,0,0-.37-.63c-1.77-2.23-3.56-4.44-5.31-6.67a4.72,4.72,0,0,0-1.72-1.21c-3-1.56-6-3-8.93-4.75-3.36-2-6.59-4.19-9.88-6.28-.38-.25-.69-.69-1.31-.53a13.5,13.5,0,0,0,0,3.42C196.93,181.55,215.21,192.62,218.85,193.53Zm.37-32.71a4.13,4.13,0,0,0-1.22-1.44c-4-3.74-8.07-7.31-12.28-10.77s-8.62-6.85-13.1-10c-.36-.26-.67-.7-1.33-.5,0,.56,0,1.14,0,1.72s0,1.16.07,1.71c.56.41,1,.76,1.5,1.12,2.78,2.12,5.58,4.2,8.31,6.37,3.94,3.13,7.69,6.49,11.33,10,.38.36.78.86,1.24,1A34.5,34.5,0,0,0,219.22,160.82ZM163.1,121a2.35,2.35,0,0,0,.19.5c1.69,2.13,3.4,4.25,5.08,6.39a4.27,4.27,0,0,0,1.57,1.1c2.85,1.43,5.76,2.76,8.52,4.35,3.33,1.91,6.54,4,9.8,6.06.38.23.78.44,1.26.71a4.6,4.6,0,0,0,.2-1.86c0-.58,0-1.17-.06-1.67C184.93,132.59,167.51,122.37,163.1,121Zm-18.71,9.7-.18.25c.11.2.21.42.33.61a119.4,119.4,0,0,0,15.33,18.6,2.45,2.45,0,0,0,1.4.69c1.28.21,2.56.44,3.85.64a4.23,4.23,0,0,0,.83-.06L164,149.34a68.48,68.48,0,0,1-9.08-12,3.57,3.57,0,0,0-1.38-1.32c-2.77-1.6-5.52-3.22-8.28-4.83C145,131,144.69,130.88,144.39,130.73Zm18.2,22.07c.72.74,1.09,1.19,1.52,1.58,3.1,2.83,6.16,5.7,9.31,8.47,4.76,4.17,9.72,8.09,14.81,11.86a2.56,2.56,0,0,0,1.42.75c.12-1,0-1.87.08-2.75a1.48,1.48,0,0,0-.72-1.33c-1.29-.93-2.57-1.89-3.84-2.86A178.82,178.82,0,0,1,169,154.47c-.33-.32-.68-.76-1.09-.86A25.83,25.83,0,0,0,162.59,152.8Zm64.79,33.86a2.89,2.89,0,0,0,1.09-2.87,11.32,11.32,0,0,0-1.48-4.52,2.69,2.69,0,0,0-1-.94c-2.49-1.49-5-2.94-7.51-4.4a3.42,3.42,0,0,0-.79-.15,5.66,5.66,0,0,1-.37,4.44Zm-2,.57a3.62,3.62,0,0,0-.39-.58l-8.56-7.2a1.59,1.59,0,0,0-1.3-.38,12.07,12.07,0,0,1-4.74-.47c-.38-.1-.78-.14-1.37-.24a5.56,5.56,0,0,0,.46.9c1.17,1.49,2.37,3,3.54,4.44a2.91,2.91,0,0,0,1.41,1c2.12.73,4.23,1.51,6.38,2.13A9.58,9.58,0,0,0,225.4,187.23ZM154.91,128.1a2.81,2.81,0,0,0-.83,2.78,33.66,33.66,0,0,0,1,3.39,3.1,3.1,0,0,0,1.57,1.82c2.06,1.16,4.08,2.38,6.13,3.56a11.38,11.38,0,0,0,1.1.5c-.13-1.53-.31-2.93.47-4.15-.85-.95-7-6.23-8.77-7.57A3.69,3.69,0,0,0,154.91,128.1Zm53.92,32.62c.12.74.65,1.07,1,1.49a49.87,49.87,0,0,1,6.24,8.15,3.27,3.27,0,0,0,1.26,1.19c2.15,1.24,4.28,2.5,6.43,3.74.23.14.47.4.87.12a3.61,3.61,0,0,0-.27-.56,93.81,93.81,0,0,0-11.17-13,1.79,1.79,0,0,0-.72-.48A19,19,0,0,0,208.83,160.72Zm-52.16-33.33c3.29,2.74,6.22,5.29,9.12,7.58a21.59,21.59,0,0,1,2.34-.15c.71,0,1.41.2,2.11.28s1.28.54,2.17.23c-1.46-1.81-2.8-3.52-4.19-5.19a2.6,2.6,0,0,0-1-.67,34.72,34.72,0,0,0-7.47-2.16A8,8,0,0,0,156.67,127.39Zm34.67,43.79c.32.25.64.51,1,.75,3.63,2.56,7.34,5,11.19,7.22,1.79,1,3.62,2,5.44,3a5.91,5.91,0,0,0,1.14.27c-1-1.26-1.82-2.19-2.53-3.2a10.34,10.34,0,0,0-4.32-3.52,74.61,74.61,0,0,1-10.25-6,2.88,2.88,0,0,0-1.68-.82A8.19,8.19,0,0,0,191.34,171.18Zm-18.7-18.38a10.44,10.44,0,0,0-.61-.89,53.07,53.07,0,0,1-6.58-8.56,3,3,0,0,0-1-1c-2-1.21-4.07-2.39-6.12-3.57a2.55,2.55,0,0,0-.74-.15,8.24,8.24,0,0,0,.41.78,89.29,89.29,0,0,0,10.27,12.2,2.07,2.07,0,0,0,.88.56A22,22,0,0,0,172.64,152.8Zm17-10.52c-.48-.35-.89-.69-1.33-1-2.69-1.73-5.33-3.52-8.07-5.16-2.54-1.52-5.17-2.87-7.77-4.28a7.68,7.68,0,0,0-1.21-.34c1.09,1.38,2,2.47,2.84,3.61a7.08,7.08,0,0,0,3.26,2.6,23.18,23.18,0,0,1,3.48,1.76c2.54,1.5,5.05,3.07,7.58,4.6.33.2.59.6,1.16.41A7.31,7.31,0,0,0,189.68,142.28Zm1.64,3.75c.45.34.91.7,1.39,1.05a128.78,128.78,0,0,1,11.89,9.84c2.13,2,2.14,2,5,2.32a2.52,2.52,0,0,0,.67-.08c-2.31-2.95-16.05-14.21-18.84-15.45A5.48,5.48,0,0,0,191.32,146Zm-20.17,8.25a4.63,4.63,0,0,0,.44.64A176.36,176.36,0,0,0,189,169.5a2.43,2.43,0,0,0,.68.23c0-.49.09-.83.08-1.18s-.07-.81-.11-1.2c-1.32-1-2.59-2-3.85-2.93a126,126,0,0,1-10-8.71c-.38-.37-.77-.86-1.23-1A9.93,9.93,0,0,0,171.15,154.28ZM216,176.94a1.89,1.89,0,0,0,.4-1.92,20.83,20.83,0,0,0-.65-2,2.36,2.36,0,0,0-1.13-1.3c-1.75-1-3.48-2-5.22-3a2.39,2.39,0,0,0-.65-.15c-.14.79-.27,1.47-.39,2.11A82.46,82.46,0,0,0,216,176.94Zm-12.64-5.45a30.67,30.67,0,0,0,3.2,4,2,2,0,0,0,.77.42,23,23,0,0,0,5.76,1.66,4.48,4.48,0,0,0,.84-.07c-.38-.4-.59-.67-.84-.88-1.4-1.19-2.83-2.33-4.2-3.54-1.08-1-2.13-1.83-3.73-1.57C204.66,171.65,204.1,171.22,203.4,171.49Zm-37.86-34.42a4.07,4.07,0,0,0,.06,3,3.57,3.57,0,0,0,1.81,2.28c1.31.68,2.56,1.49,3.84,2.22.35.2.73.35,1.08.52.11-.16.21-.25.23-.35.11-.58.2-1.15.3-1.69A60.43,60.43,0,0,0,165.54,137.07Zm12.23,5.06c-1.13-1.55-2-3.06-3.29-4a13.1,13.1,0,0,0-5.16-1.69,5.39,5.39,0,0,0-1.06-.06c-.08,0-.17.12-.25.18s0,.25.08.31c1.93,1.64,3.85,3.28,5.8,4.9a1.45,1.45,0,0,0,.79.32C175.61,142.15,176.55,142.13,177.77,142.13ZM213.19,169a2.76,2.76,0,0,0-.09-.49,59.11,59.11,0,0,0-6.83-7.91c-.74-.74-1.45-.86-3-.63.33.4.63.75.91,1.11.87,1.12,1.81,2.2,2.58,3.38a5.81,5.81,0,0,0,2.39,2.27c.79.39,1.53.9,2.3,1.34C212,168.38,212.46,168.64,213.19,169Zm-10.47,4.67.2-.24c-.8-1-1.59-2-2.43-3a3.24,3.24,0,0,0-1-.69,62.2,62.2,0,0,1-6.91-3.95c-.33-.21-.7-.38-1.07-.58a1.33,1.33,0,0,0,.53,2,102.33,102.33,0,0,0,10.07,6.25A5.7,5.7,0,0,0,202.72,173.7Zm-33.89-28.76-.28.25a7.1,7.1,0,0,0,.61,1c1.81,2.11,3.65,4.2,5.46,6.32a3.08,3.08,0,0,0,3.06,1,2,2,0,0,0-.2-.52,36.23,36.23,0,0,1-3.61-4.84,1.93,1.93,0,0,0-.61-.63C171.8,146.65,170.31,145.8,168.83,144.94Zm20.6,3.32c.39-1.38.41-1.4-.49-2a91.25,91.25,0,0,0-9.83-6c-.24-.13-.49-.34-.85,0,.66.82,1.33,1.64,2,2.48a3.76,3.76,0,0,0,1.52,1.18,52.73,52.73,0,0,1,6.64,3.73C188.72,147.84,189.06,148,189.43,148.26Zm2,0c-.12,1.34-.13,1.36.63,1.93a71,71,0,0,1,7.89,6.59,4.69,4.69,0,0,0,3.48,1.36,8.26,8.26,0,0,0-.69-.89C199.53,154.12,193.35,149.2,191.39,148.21Zm-1.94,17.14a1.47,1.47,0,0,0-.53-2.12,74.07,74.07,0,0,1-8.25-7c-.78-.77-1.69-.9-3.1-.86A126.62,126.62,0,0,0,189.45,165.35Zm17.31,4,.38-.24a3,3,0,0,0-1.48-2.71c-.89-.47-1.74-1-2.61-1.5-.41-.24-.82-.47-1.24-.67a.31.31,0,0,0-.31.09.57.57,0,0,0-.07.45,1.93,1.93,0,0,0,.47.52l2.71,2.27ZM199,165.79c1.79,3.09,2.5,3.65,5.63,4,0-.05,0-.13,0-.16q-2.13-1.86-4.27-3.69A1.18,1.18,0,0,0,199,165.79Zm-19.53-16.54c.37-.47.09-.72-.17-.95-1.44-1.21-2.88-2.42-4.34-3.62a3.44,3.44,0,0,0-.67-.34,2.51,2.51,0,0,0,1.24,2.77l3.36,1.94A4,4,0,0,0,179.45,149.25Zm-3.07-5.46a44.34,44.34,0,0,0,4.61,3.89c.23.17.65.07,1.17.1C180.89,145.48,179.38,143.86,176.38,143.79ZM199,159a8.57,8.57,0,0,0,5.42,4.67,39.47,39.47,0,0,0-3.73-4.21A2.07,2.07,0,0,0,199,159Zm-21.79-8.7c1.06,1.18,2.12,2.35,3.2,3.51a1.31,1.31,0,0,0,1.58.38C180.68,151.78,179.65,150.86,177.16,150.34ZM191.5,162.4a.58.58,0,0,0,.17,1c1.72,1.1,3.46,2.19,5.2,3.28.07,0,.21,0,.42-.09a5.11,5.11,0,0,0-2.14-2.2c-1-.47-2-1.08-2.92-1.62C192,162.6,191.73,162.51,191.5,162.4Zm-2-11.35c.33-.63,0-.89-.34-1.12-1.63-1-3.28-2.07-4.93-3.08-.1-.07-.29,0-.57,0a6.33,6.33,0,0,0,1.84,2Zm1.77.56c.13.49.12.76.25.87.43.4.92.74,1.37,1.12l3.49,3c.42.36.83.69,1.42.38A31,31,0,0,0,191.23,151.61Zm-1.74,10a.65.65,0,0,0-.16-.89c-1.57-1.34-3.16-2.67-4.74-4a1.24,1.24,0,0,0-.43-.3,5.47,5.47,0,0,0-.91-.09A30.12,30.12,0,0,0,189.49,161.65Zm2.22-1.14c.34.18.45.68,1.08.25C192.41,160.65,192.27,160.2,191.71,160.51Zm4.63-1.37.15-.16c-.11-.13-.2-.3-.33-.37a1.18,1.18,0,0,0-.46,0,1,1,0,0,0,.2.36A1.93,1.93,0,0,0,196.34,159.14Zm-2.89-2.89,0-.09-.12,0Zm-8-1.46c-.08-.07-.14-.16-.22-.17s-.18.06-.27.1c.06.07.11.19.17.2A1,1,0,0,0,185.46,154.79Zm11.45,8.48v.09l.11,0Z"/></g></g></svg>