<svg width="213" height="214" viewBox="0 0 213 214" fill="none" xmlns="http://www.w3.org/2000/svg">
<circle cx="105.99" cy="106" r="9" fill="black"/>
<circle cx="105.99" cy="106" r="61.5" stroke="black" stroke-opacity="0.5"/>
<path d="M204.183 110.034L203.867 113.439C203.752 114.674 203.398 115.716 202.803 116.564C202.215 117.42 201.437 118.051 200.468 118.457C199.507 118.863 198.405 119.009 197.164 118.893C195.936 118.779 194.883 118.434 194.006 117.857C193.129 117.28 192.473 116.516 192.04 115.565C191.612 114.622 191.455 113.533 191.569 112.298L191.886 108.893L204.183 110.034ZM203.08 111.097L192.754 110.138L192.545 112.389C192.453 113.384 192.599 114.262 192.984 115.02C193.369 115.779 193.932 116.387 194.673 116.844C195.42 117.309 196.288 117.587 197.277 117.679C198.272 117.771 199.173 117.657 199.98 117.337C200.792 117.024 201.454 116.53 201.965 115.854C202.477 115.178 202.778 114.343 202.871 113.347L203.08 111.097Z" fill="black"/>
<path d="M188.87 127.699C189.084 126.9 189.475 126.249 190.044 125.746C190.618 125.25 191.309 124.924 192.116 124.767C192.931 124.612 193.798 124.657 194.719 124.903C195.724 125.171 196.542 125.572 197.172 126.106C197.801 126.646 198.227 127.271 198.452 127.98C198.675 128.695 198.679 129.455 198.464 130.26C198.284 130.936 197.992 131.473 197.59 131.869C197.192 132.273 196.72 132.558 196.172 132.722C195.624 132.886 195.039 132.947 194.415 132.905C193.79 132.869 193.165 132.754 192.541 132.56L194.349 125.787L195.122 125.994L193.497 132.08L193.326 131.559C193.739 131.69 194.162 131.775 194.593 131.814C195.029 131.861 195.445 131.838 195.843 131.744C196.239 131.657 196.587 131.477 196.887 131.205C197.188 130.933 197.407 130.54 197.544 130.025C197.719 129.368 197.695 128.775 197.47 128.245C197.252 127.718 196.902 127.273 196.419 126.909C195.942 126.554 195.397 126.295 194.785 126.131L194.311 126.005C193.609 125.818 192.95 125.755 192.333 125.818C191.714 125.888 191.182 126.094 190.739 126.438C190.293 126.789 189.983 127.292 189.808 127.949C189.627 128.625 189.644 129.22 189.859 129.733C190.079 130.254 190.5 130.642 191.122 130.898L190.802 132.096C190.216 131.836 189.752 131.481 189.409 131.031C189.066 130.587 188.846 130.08 188.749 129.509C188.66 128.94 188.7 128.337 188.87 127.699ZM200.125 129.896L200.743 129.44L203.22 133.382L202.325 134.023L200.125 129.896Z" fill="black"/>
<path d="M184.69 140.017C184.989 139.34 185.454 138.787 186.087 138.359C186.72 137.932 187.459 137.685 188.304 137.62C189.145 137.561 190.033 137.738 190.967 138.149C191.912 138.566 192.641 139.102 193.154 139.758C193.669 140.422 193.977 141.129 194.076 141.88C194.175 142.63 194.076 143.344 193.777 144.021C193.578 144.472 193.331 144.852 193.036 145.159C192.743 145.474 192.417 145.72 192.055 145.896C191.697 146.08 191.318 146.205 190.918 146.269C190.524 146.336 190.126 146.346 189.724 146.3L190.047 145.12C190.686 145.191 191.253 145.094 191.748 144.832C192.243 144.569 192.614 144.157 192.861 143.595C193.071 143.12 193.131 142.611 193.042 142.069C192.95 141.533 192.694 141.016 192.273 140.517C191.857 140.021 191.259 139.6 190.479 139.256C189.771 138.944 189.091 138.783 188.44 138.773C187.792 138.772 187.222 138.91 186.728 139.188C186.24 139.468 185.878 139.877 185.641 140.414C185.316 141.152 185.247 141.803 185.436 142.367C185.625 142.931 186.051 143.359 186.716 143.652L186.228 144.76C185.631 144.496 185.166 144.12 184.835 143.632C184.504 143.144 184.323 142.587 184.292 141.961C184.262 141.336 184.395 140.688 184.69 140.017Z" fill="black"/>
<path d="M178.713 151.481C179.168 150.767 179.729 150.239 180.397 149.897C181.064 149.556 181.811 149.426 182.635 149.508C183.457 149.596 184.32 149.928 185.226 150.505C186.131 151.081 186.795 151.72 187.217 152.423C187.641 153.136 187.839 153.866 187.813 154.616C187.786 155.366 187.546 156.098 187.091 156.812C186.637 157.526 186.076 158.054 185.408 158.396C184.74 158.737 183.996 158.864 183.174 158.776C182.359 158.692 181.498 158.362 180.593 157.786C179.687 157.209 179.021 156.568 178.593 155.861C178.166 155.155 177.965 154.427 177.992 153.677C178.018 152.928 178.259 152.196 178.713 151.481ZM179.576 152.007C179.2 152.597 179.025 153.177 179.05 153.746C179.081 154.319 179.286 154.86 179.665 155.37C180.04 155.885 180.562 156.356 181.232 156.782C182.238 157.422 183.186 157.721 184.075 157.678C184.96 157.641 185.683 157.18 186.245 156.297C186.621 155.707 186.794 155.125 186.763 154.552C186.734 153.989 186.529 153.448 186.148 152.929C185.769 152.419 185.245 151.951 184.576 151.525C183.575 150.888 182.632 150.589 181.747 150.626C180.858 150.669 180.134 151.129 179.576 152.007Z" fill="black"/>
<path d="M176.318 170.656L175.55 171.526L168.43 165.236L169.198 164.367L176.318 170.656ZM180.846 165.53L180.078 166.4L175.612 162.454C174.952 161.871 174.307 161.585 173.674 161.596C173.043 161.616 172.458 161.931 171.919 162.54C171.478 163.04 171.235 163.586 171.192 164.179C171.148 164.773 171.272 165.362 171.563 165.949C171.85 166.54 172.268 167.079 172.818 167.564L172.454 167.977C171.694 167.306 171.136 166.603 170.779 165.87C170.422 165.136 170.278 164.418 170.348 163.714C170.423 163.016 170.721 162.371 171.242 161.782C171.727 161.232 172.249 160.848 172.807 160.629C173.36 160.416 173.934 160.38 174.529 160.523C175.128 160.67 175.73 161.011 176.335 161.545L180.846 165.53Z" fill="black"/>
<path d="M170.893 176.303L169.881 177.135L161.913 172.691L162.098 172.538L164.903 181.22L163.89 182.051L160.9 172.228L161.843 171.455L170.893 176.303Z" fill="black"/>
<path d="M153.376 177.833L158.446 185.867L157.465 186.486L152.395 178.452L153.376 177.833ZM155.08 181.901C155.714 182.905 156.153 183.794 156.398 184.57C156.643 185.346 156.687 186.015 156.531 186.579C156.374 187.143 156.011 187.605 155.442 187.964C155.245 188.089 155.055 188.188 154.874 188.263C154.687 188.342 154.489 188.404 154.281 188.448L153.788 187.423C153.991 187.382 154.203 187.319 154.425 187.234C154.651 187.155 154.837 187.069 154.984 186.976C155.486 186.659 155.787 186.256 155.888 185.767C155.983 185.281 155.922 184.728 155.705 184.109C155.491 183.495 155.161 182.836 154.717 182.131L155.08 181.901Z" fill="black"/>
<path d="M151.435 192.857C151.654 192.743 151.866 192.719 152.073 192.785C152.28 192.85 152.437 192.987 152.544 193.194C152.648 193.395 152.663 193.59 152.588 193.779C152.517 193.974 152.371 194.128 152.152 194.242C151.922 194.361 151.709 194.393 151.514 194.336C151.323 194.285 151.175 194.159 151.07 193.958C150.963 193.751 150.939 193.545 150.999 193.342C151.058 193.138 151.204 192.977 151.435 192.857ZM146.432 181.945L150.804 190.379L149.774 190.913L145.402 182.479L146.432 181.945Z" fill="black"/>
<path d="M140.66 184.756L144.296 193.532L143.224 193.976L139.589 185.199L140.66 184.756ZM141.651 189.054C142.105 190.15 142.387 191.101 142.497 191.907C142.607 192.713 142.537 193.381 142.287 193.91C142.037 194.439 141.601 194.832 140.979 195.09C140.764 195.179 140.56 195.246 140.369 195.289C140.171 195.335 139.966 195.362 139.753 195.371L139.441 194.277C139.648 194.271 139.868 194.244 140.101 194.198C140.337 194.158 140.535 194.105 140.695 194.039C141.244 193.812 141.609 193.466 141.791 193C141.968 192.538 142.001 191.983 141.892 191.335C141.785 190.694 141.572 189.988 141.253 189.218L141.651 189.054Z" fill="black"/>
<path d="M106.703 204.397L103.288 204.213C102.05 204.146 100.995 203.831 100.124 203.27C99.2461 202.715 98.5859 201.962 98.1433 201.01C97.7003 200.065 97.5125 198.97 97.5798 197.725C97.6464 196.493 97.9511 195.428 98.4937 194.53C99.0364 193.631 99.7744 192.946 100.708 192.476C101.634 192.012 102.717 191.814 103.955 191.881L107.37 192.065L106.703 204.397ZM105.599 203.336L106.158 192.981L103.902 192.859C102.903 192.805 102.032 192.985 101.289 193.399C100.545 193.813 99.9596 194.398 99.5314 195.156C99.0961 195.921 98.8517 196.799 98.7981 197.791C98.7441 198.789 98.8926 199.685 99.2436 200.479C99.5876 201.278 100.107 201.921 100.802 202.406C101.497 202.891 102.343 203.16 103.342 203.214L105.599 203.336Z" fill="black"/>
<path d="M88.3505 189.748C89.1567 189.931 89.8223 190.297 90.3471 190.847C90.864 191.401 91.2163 192.079 91.4038 192.881C91.5899 193.688 91.5777 194.557 91.367 195.487C91.1372 196.501 90.7675 197.333 90.2579 197.984C89.7418 198.632 89.1339 199.082 88.4344 199.334C87.7283 199.584 86.9689 199.617 86.1562 199.433C85.4735 199.278 84.9265 199.007 84.5152 198.62C84.0959 198.238 83.7938 197.777 83.6087 197.236C83.4237 196.695 83.3404 196.112 83.3589 195.487C83.3709 194.861 83.4621 194.232 83.6325 193.601L90.4692 195.15L90.2924 195.93L84.1482 194.538L84.6631 194.347C84.5478 194.765 84.4788 195.191 84.456 195.623C84.4253 196.06 84.4644 196.476 84.5734 196.87C84.6759 197.262 84.8687 197.603 85.1517 197.893C85.4346 198.183 85.8362 198.386 86.3563 198.504C87.0195 198.654 87.6112 198.607 88.1314 198.363C88.6502 198.125 89.0819 197.758 89.4268 197.262C89.7636 196.771 90.002 196.217 90.1419 195.599L90.2502 195.121C90.4108 194.412 90.4479 193.751 90.3615 193.137C90.2686 192.521 90.0419 191.998 89.6814 191.568C89.3144 191.136 88.7993 190.845 88.1362 190.694C87.4535 190.54 86.86 190.58 86.3557 190.814C85.8435 191.053 85.4715 191.489 85.2396 192.12L84.0303 191.846C84.2677 191.25 84.6049 190.773 85.0417 190.414C85.472 190.053 85.9705 189.814 86.5372 189.696C87.1024 189.585 87.7068 189.603 88.3505 189.748ZM86.5832 201.078L87.0623 201.679L83.2171 204.304L82.5428 203.433L86.5832 201.078Z" fill="black"/>
<path d="M76.0331 186.084C76.722 186.354 77.2931 186.797 77.7465 187.412C78.1999 188.027 78.4764 188.755 78.576 189.596C78.6694 190.434 78.5298 191.329 78.1572 192.278C77.7797 193.24 77.2739 193.99 76.6399 194.529C75.9972 195.072 75.303 195.408 74.5574 195.538C73.8117 195.668 73.0944 195.598 72.4056 195.328C71.9464 195.148 71.5573 194.916 71.2386 194.633C70.9112 194.355 70.6522 194.038 70.4617 193.684C70.2626 193.334 70.1227 192.96 70.0421 192.563C69.9591 192.173 69.9324 191.775 69.9619 191.372L71.154 191.646C71.1099 192.288 71.2294 192.85 71.5123 193.334C71.7953 193.817 72.2222 194.171 72.7932 194.395C73.2772 194.585 73.7882 194.624 74.326 194.513C74.8576 194.399 75.3639 194.122 75.8451 193.68C76.3238 193.245 76.7191 192.63 77.0308 191.836C77.3133 191.116 77.4462 190.431 77.4296 189.78C77.4043 189.132 77.2428 188.568 76.945 188.086C76.6447 187.61 76.2216 187.265 75.6755 187.05C74.9245 186.756 74.2712 186.714 73.7155 186.926C73.1598 187.137 72.7492 187.581 72.4838 188.258L71.3574 187.816C71.596 187.207 71.9525 186.728 72.4269 186.377C72.9012 186.026 73.4502 185.822 74.0738 185.766C74.6973 185.71 75.3505 185.816 76.0331 186.084Z" fill="black"/>
<path d="M64.3628 180.567C65.0949 180.993 65.6451 181.532 66.0135 182.185C66.3818 182.839 66.5415 183.579 66.4927 184.407C66.438 185.231 66.1412 186.107 65.6021 187.035C65.063 187.963 64.4507 188.652 63.7653 189.102C63.0708 189.554 62.3486 189.782 61.5985 189.786C60.8485 189.79 60.1074 189.579 59.3753 189.154C58.6431 188.729 58.0929 188.189 57.7246 187.536C57.3563 186.883 57.1994 186.144 57.2541 185.32C57.3053 184.502 57.6005 183.628 58.1396 182.7C58.6787 181.772 59.2926 181.08 59.9814 180.625C60.6701 180.169 61.3895 179.939 62.1395 179.935C62.8896 179.931 63.6307 180.142 64.3628 180.567ZM63.8728 181.451C63.2675 181.099 62.681 180.948 62.1134 180.996C61.5425 181.049 61.01 181.276 60.516 181.675C60.0162 182.071 59.5671 182.612 59.1686 183.298C58.5692 184.33 58.309 185.289 58.3879 186.175C58.4611 187.058 58.9502 187.762 59.8552 188.288C60.4605 188.64 61.0486 188.788 61.6196 188.735C62.1814 188.683 62.7139 188.457 63.2171 188.055C63.7111 187.656 64.1573 187.113 64.5558 186.427C65.1518 185.401 65.4132 184.447 65.3401 183.564C65.2612 182.677 64.7721 181.973 63.8728 181.451Z" fill="black"/>
<path d="M45.021 178.844L44.1243 178.108L50.1511 170.764L51.0478 171.5L45.021 178.844ZM50.3083 183.183L49.4116 182.447L53.1927 177.84C53.7509 177.16 54.0132 176.504 53.9794 175.872C53.9363 175.242 53.6004 174.669 52.9716 174.153C52.4563 173.73 51.9015 173.507 51.3072 173.485C50.713 173.463 50.128 173.608 49.5525 173.921C48.9718 174.229 48.4488 174.667 47.9836 175.234L47.5585 174.885C48.2013 174.101 48.8828 173.518 49.6029 173.134C50.3231 172.751 51.0358 172.581 51.7412 172.625C52.4424 172.675 53.0971 172.949 53.7051 173.448C54.272 173.913 54.6749 174.421 54.9138 174.97C55.1475 175.516 55.2038 176.088 55.0829 176.687C54.9576 177.292 54.6392 177.906 54.1274 178.529L50.3083 183.183Z" fill="black"/>
<path d="M39.1891 173.665L38.3218 172.683L42.4729 164.559L42.6318 164.739L34.0579 167.857L33.1905 166.875L42.8979 163.529L43.7057 164.444L39.1891 173.665Z" fill="black"/>
<path d="M37.0818 156.319L29.2589 161.709L28.6007 160.754L36.4236 155.364L37.0818 156.319ZM33.0855 158.186C32.1084 158.859 31.2372 159.334 30.4722 159.61C29.7071 159.886 29.0397 159.957 28.47 159.824C27.9002 159.69 27.4243 159.346 27.0423 158.791C26.9099 158.599 26.8026 158.414 26.7204 158.236C26.6343 158.052 26.5648 157.857 26.5117 157.651L27.516 157.117C27.5653 157.318 27.6369 157.528 27.7309 157.746C27.8193 157.969 27.9127 158.151 28.0111 158.294C28.3477 158.782 28.7626 159.067 29.2557 159.149C29.7451 159.224 30.2949 159.141 30.9051 158.899C31.5099 158.66 32.1553 158.304 32.8416 157.832L33.0855 158.186Z" fill="black"/>
<path d="M22.0133 155.012C22.1356 155.226 22.1682 155.438 22.1111 155.647C22.054 155.856 21.9241 156.019 21.7215 156.134C21.5246 156.247 21.3303 156.269 21.1385 156.202C20.9409 156.139 20.7809 156 20.6586 155.785C20.5297 155.56 20.4896 155.348 20.5385 155.152C20.5815 154.958 20.7015 154.805 20.8983 154.693C21.1009 154.577 21.3052 154.545 21.5111 154.596C21.7169 154.648 21.8844 154.786 22.0133 155.012ZM32.7129 149.57L24.4632 154.281L23.888 153.273L32.1377 148.563L32.7129 149.57Z" fill="black"/>
<path d="M29.6829 143.936L21.0624 147.928L20.5749 146.875L29.1954 142.883L29.6829 143.936ZM25.4289 145.101C24.352 145.6 23.4133 145.921 22.6126 146.064C21.8119 146.207 21.1421 146.164 20.6031 145.936C20.0641 145.708 19.6531 145.289 19.3701 144.678C19.2721 144.466 19.1975 144.266 19.1466 144.076C19.0928 143.881 19.0571 143.677 19.0396 143.464L20.1196 143.108C20.1343 143.314 20.1695 143.533 20.2252 143.764C20.2749 143.998 20.3361 144.194 20.409 144.351C20.6583 144.89 21.0191 145.24 21.4915 145.404C21.961 145.561 22.517 145.572 23.1594 145.436C23.7957 145.303 24.492 145.061 25.2482 144.711L25.4289 145.101Z" fill="black"/>
<path d="M8.68139 110.738L8.7342 107.318C8.75334 106.078 9.0265 105.012 9.55366 104.12C10.0743 103.222 10.8017 102.533 11.7358 102.054C12.6633 101.575 13.7504 101.345 14.9969 101.364C16.2301 101.383 17.3061 101.647 18.2251 102.154C19.144 102.662 19.8564 103.373 20.3624 104.287C20.8618 105.195 21.1019 106.269 21.0827 107.509L21.0299 110.928L8.68139 110.738ZM9.69918 109.593L20.0679 109.753L20.1028 107.494C20.1183 106.494 19.9049 105.63 19.4628 104.904C19.0206 104.177 18.4125 103.614 17.6386 103.215C16.8581 102.81 15.9712 102.599 14.978 102.584C13.9782 102.569 13.0886 102.752 12.3092 103.133C11.5234 103.507 10.9016 104.051 10.4438 104.764C9.9861 105.477 9.74951 106.334 9.73408 107.334L9.69918 109.593Z" fill="black"/>
<path d="M22.5971 91.8204C22.4453 92.633 22.1049 93.312 21.5757 93.8575C21.0413 94.3951 20.3773 94.773 19.5838 94.991C18.7837 95.2078 17.9151 95.2287 16.978 95.0536C15.9556 94.8627 15.1099 94.525 14.4408 94.0406C13.773 93.5496 13.2999 92.9594 13.0218 92.27C12.7449 91.5739 12.6829 90.8164 12.8359 89.9972C12.9644 89.3091 13.2143 88.7522 13.5854 88.3264C13.9512 87.8929 14.4009 87.5733 14.9344 87.3678C15.4678 87.1622 16.047 87.0568 16.672 87.0514C17.2981 87.0395 17.9299 87.1067 18.5672 87.2528L17.2802 94.1437L16.4938 93.9968L17.6505 87.8039L17.8609 88.3111C17.4386 88.2119 17.011 88.1592 16.5782 88.1529C16.1399 88.1389 15.7262 88.1939 15.3368 88.3178C14.9486 88.4352 14.6152 88.6408 14.3365 88.9346C14.0578 89.2285 13.8695 89.6375 13.7716 90.1618C13.6468 90.8302 13.7164 91.4197 13.9805 91.9302C14.238 92.4395 14.6212 92.8569 15.1301 93.1826C15.6336 93.5004 16.1967 93.7175 16.8192 93.8338L17.3009 93.9237C18.0152 94.0571 18.6776 94.069 19.2882 93.9592C19.8999 93.8429 20.4139 93.5964 20.8302 93.2197C21.2476 92.8365 21.5188 92.3107 21.6436 91.6423C21.7721 90.9542 21.7097 90.3627 21.4562 89.8677C21.1975 89.365 20.7484 89.0098 20.109 88.8022L20.3366 87.5833C20.9408 87.7979 21.4307 88.1166 21.8061 88.5394C22.1827 88.9556 22.4407 89.4446 22.5799 90.0064C22.7126 90.5669 22.7183 91.1716 22.5971 91.8204ZM11.2084 90.4867L10.6264 90.9884L7.85637 87.2462L8.70053 86.5391L11.2084 90.4867Z" fill="black"/>
<path d="M25.7586 79.3883C25.5143 80.0868 25.0935 80.6742 24.4961 81.1503C23.8988 81.6265 23.1817 81.9301 22.3448 82.0612C21.5102 82.186 20.6114 82.0801 19.6486 81.7434C18.6732 81.4022 17.9043 80.925 17.3419 80.3116C16.7755 79.6898 16.4133 79.0087 16.2555 78.2685C16.0977 77.5282 16.1409 76.8088 16.3852 76.1103C16.5481 75.6446 16.7647 75.2472 17.0352 74.918C17.3016 74.5804 17.6082 74.3097 17.9548 74.1061C18.2974 73.8939 18.6654 73.7402 19.059 73.6447C19.4463 73.5471 19.8422 73.5055 20.2468 73.5198L20.0173 74.7214C19.3745 74.7015 18.8169 74.8419 18.3444 75.1428C17.8719 75.4437 17.5345 75.8836 17.332 76.4626C17.1603 76.9534 17.1402 77.4655 17.2715 77.9987C17.405 78.5257 17.7014 79.0213 18.1605 79.4855C18.6134 79.9476 19.2426 80.3195 20.048 80.6012C20.778 80.8565 21.468 80.9636 22.118 80.9225C22.7639 80.873 23.3222 80.6903 23.7928 80.3747C24.257 80.0568 24.586 79.6209 24.7797 79.0672C25.046 78.3057 25.063 77.6513 24.8306 77.1039C24.5983 76.5565 24.1392 76.1629 23.4532 75.923L23.8527 74.7809C24.4694 74.9965 24.962 75.3348 25.3305 75.7956C25.6991 76.2564 25.9231 76.7974 26.0025 77.4184C26.082 78.0394 26.0006 78.6961 25.7586 79.3883Z" fill="black"/>
<path d="M30.6526 67.7953C30.2574 68.544 29.7408 69.1157 29.1029 69.5102C28.465 69.9048 27.7317 70.0944 26.903 70.0792C26.0774 70.0581 25.19 69.797 24.2408 69.296C23.2915 68.795 22.5782 68.2113 22.1008 67.5447C21.6206 66.8691 21.3634 66.1567 21.3292 65.4074C21.295 64.6582 21.4754 63.9091 21.8706 63.1604C22.2658 62.4116 22.7824 61.8399 23.4203 61.4454C24.0582 61.0509 24.7899 60.8641 25.6155 60.8853C26.4352 60.9033 27.3197 61.1628 28.2689 61.6638C29.2181 62.1648 29.9344 62.7501 30.4177 63.4198C30.901 64.0894 31.1598 64.7989 31.194 65.5482C31.2282 66.2974 31.0478 67.0465 30.6526 67.7953ZM29.75 67.3415C30.0767 66.7224 30.2046 66.1303 30.1335 65.5651C30.0565 64.9968 29.8086 64.474 29.3896 63.9966C28.9738 63.5133 28.4151 63.0865 27.7135 62.7162C26.6581 62.1592 25.6893 61.9381 24.807 62.0529C23.9279 62.1618 23.244 62.6791 22.7555 63.6048C22.4288 64.2238 22.3039 64.8175 22.3809 65.3858C22.4551 65.9451 22.703 66.468 23.1247 66.9544C23.5437 67.4318 24.104 67.8556 24.8056 68.2259C25.855 68.7798 26.8193 69.0023 27.6985 68.8934C28.5807 68.7786 29.2646 68.2613 29.75 67.3415Z" fill="black"/>
<path d="M31.6324 48.275L32.3318 47.3495L39.9109 53.0772L39.2116 54.0026L31.6324 48.275ZM27.5085 53.732L28.2079 52.8065L32.9628 56.3999C33.6649 56.9304 34.3307 57.1662 34.9602 57.1072C35.5885 57.0388 36.1478 56.6802 36.6382 56.0313C37.0401 55.4994 37.2402 54.9361 37.2383 54.3414C37.2365 53.7468 37.0679 53.1681 36.7326 52.6056C36.4014 52.0377 35.9432 51.5327 35.3582 51.0906L35.6898 50.6518C36.4982 51.2627 37.1085 51.9203 37.5206 52.6245C37.9327 53.3286 38.1308 54.034 38.1149 54.7406C38.0937 55.4432 37.8459 56.1083 37.3716 56.7359C36.9295 57.321 36.4386 57.7439 35.899 58.0046C35.3634 58.26 34.7937 58.3392 34.1901 58.2424C33.5811 58.1415 32.9549 57.8479 32.3113 57.3615L27.5085 53.732Z" fill="black"/>
<path d="M36.5904 42.1853L37.5366 41.2794L45.8203 45.1025L45.647 45.2684L42.1886 36.826L43.1349 35.9201L46.8658 45.486L45.9846 46.3296L36.5904 42.1853Z" fill="black"/>
<path d="M54.0861 39.1738L48.414 31.553L49.3445 30.8604L55.0167 38.4812L54.0861 39.1738ZM52.0745 35.2484C51.3659 34.2965 50.8597 33.4433 50.5558 32.6889C50.2519 31.9344 50.1563 31.2701 50.2691 30.6958C50.3819 30.1216 50.7083 29.6334 51.2485 29.2314C51.4356 29.0921 51.6167 28.9781 51.7917 28.8894C51.9721 28.7967 52.1643 28.7201 52.3686 28.6595L52.939 29.6436C52.7401 29.7002 52.5331 29.7794 52.3181 29.8813C52.0991 29.9778 51.92 30.0778 51.781 30.1813C51.305 30.5356 51.0355 30.9606 50.9723 31.4564C50.9145 31.9482 51.0179 32.4946 51.2823 33.0955C51.5428 33.6912 51.9219 34.3232 52.4194 34.9917L52.0745 35.2484Z" fill="black"/>
<path d="M54.7897 24.089C54.5801 24.2191 54.3697 24.2595 54.1586 24.2101C53.9475 24.1607 53.7803 24.0369 53.6573 23.8387C53.5377 23.6461 53.5079 23.4527 53.5678 23.2586C53.6242 23.0588 53.7572 22.8938 53.9668 22.7637C54.1877 22.6265 54.3973 22.5787 54.5958 22.6203C54.7907 22.6562 54.948 22.7705 55.0675 22.963C55.1906 23.1613 55.2303 23.3642 55.1866 23.5718C55.1428 23.7795 55.0105 23.9518 54.7897 24.089ZM60.6215 34.5812L55.6104 26.5103L56.5959 25.8984L61.607 33.9693L60.6215 34.5812Z" fill="black"/>
<path d="M66.1184 31.3434L61.8091 22.877L62.8429 22.3508L67.1522 30.8172L66.1184 31.3434ZM64.7958 27.1355C64.2575 26.078 63.902 25.1518 63.7294 24.3569C63.5567 23.5621 63.5743 22.8912 63.782 22.344C63.9898 21.7969 64.3937 21.3707 64.9938 21.0652C65.2017 20.9594 65.3994 20.8775 65.5868 20.8195C65.7802 20.7585 65.9826 20.7153 66.1941 20.6899L66.5909 21.7559C66.3853 21.7783 66.168 21.8216 65.9388 21.8858C65.7067 21.9442 65.5134 22.0126 65.3589 22.0912C64.8301 22.3604 64.4929 22.734 64.3473 23.2121C64.2076 23.6871 64.2175 24.2431 64.3771 24.88C64.5337 25.511 64.801 26.1978 65.179 26.9405L64.7958 27.1355Z" fill="black"/>
<path d="M105.49 8.74442L108.906 8.91591C110.144 8.97809 111.2 9.28809 112.073 9.8459C112.953 10.3974 113.616 11.1483 114.063 12.0985C114.509 13.0421 114.701 14.1364 114.639 15.3815C114.577 16.6133 114.276 17.6796 113.737 18.5803C113.198 19.4811 112.463 20.1684 111.531 20.6423C110.606 21.1099 109.525 21.3126 108.286 21.2504L104.871 21.0789L105.49 8.74442ZM106.598 9.80133L106.078 20.1583L108.335 20.2716C109.334 20.3218 110.205 20.1385 110.946 19.7218C111.688 19.3052 112.272 18.717 112.697 17.9574C113.129 17.1914 113.37 16.3124 113.42 15.3203C113.47 14.3216 113.318 13.4262 112.964 12.6341C112.617 11.8357 112.095 11.1954 111.399 10.7132C110.702 10.231 109.854 9.9648 108.855 9.91465L106.598 9.80133Z" fill="black"/>
<path d="M123.779 23.2496C122.972 23.07 122.305 22.7064 121.778 22.1588C121.259 21.6062 120.904 20.9296 120.713 20.1291C120.524 19.322 120.533 18.4532 120.74 17.5227C120.966 16.5075 121.333 15.6739 121.84 15.0218C122.354 14.3712 122.96 13.9188 123.658 13.6645C124.363 13.4116 125.123 13.3757 125.936 13.5568C126.619 13.7089 127.167 13.9777 127.58 14.3632C128.001 14.7437 128.305 15.2041 128.492 15.7443C128.679 16.2845 128.764 16.867 128.748 17.4918C128.739 18.118 128.65 18.747 128.482 19.379L121.639 17.856L121.813 17.0751L127.963 18.4438L127.449 18.6367C127.562 18.2181 127.63 17.7925 127.651 17.3601C127.68 16.9227 127.639 16.5072 127.529 16.1138C127.425 15.7219 127.231 15.3816 126.946 15.093C126.662 14.8044 126.26 14.6021 125.739 14.4862C125.076 14.3385 124.484 14.3878 123.965 14.6342C123.447 14.8741 123.017 15.2428 122.674 15.7402C122.339 16.2325 122.103 16.7877 121.965 17.4059L121.859 17.8842C121.701 18.5935 121.666 19.2552 121.755 19.8691C121.85 20.4845 122.079 21.0067 122.441 21.4356C122.809 21.866 123.326 22.155 123.989 22.3027C124.673 22.4548 125.266 22.4127 125.769 22.1764C126.281 21.9351 126.651 21.4985 126.881 20.8666L128.091 21.136C127.856 21.7324 127.52 22.211 127.085 22.5717C126.656 22.9338 126.158 23.1748 125.592 23.2947C125.027 23.408 124.423 23.393 123.779 23.2496ZM125.503 11.9134L125.021 11.3145L128.857 8.67466L129.534 9.54261L125.503 11.9134Z" fill="black"/>
<path d="M136.584 26.9831C135.895 26.7127 135.324 26.2702 134.871 25.6554C134.417 25.0406 134.141 24.3126 134.041 23.4714C133.948 22.6327 134.087 21.7385 134.46 20.789C134.837 19.8271 135.343 19.0767 135.977 18.5377C136.62 17.995 137.314 17.6587 138.06 17.5287C138.805 17.3988 139.523 17.469 140.211 17.7394C140.671 17.9196 141.06 18.151 141.378 18.4337C141.706 18.7126 141.965 19.029 142.155 19.3831C142.354 19.7334 142.494 20.1069 142.575 20.5038C142.658 20.8945 142.685 21.2917 142.655 21.6955L141.463 21.421C141.507 20.7794 141.388 20.2169 141.105 19.7335C140.822 19.2501 140.395 18.8963 139.824 18.6723C139.34 18.4823 138.829 18.4429 138.291 18.5541C137.76 18.6678 137.253 18.9453 136.772 19.3867C136.293 19.8219 135.898 20.4367 135.586 21.2311C135.304 21.9509 135.171 22.6364 135.187 23.2875C135.213 23.9348 135.374 24.4995 135.672 24.9816C135.972 25.4575 136.395 25.8026 136.942 26.0169C137.693 26.3116 138.346 26.3532 138.902 26.1415C139.457 25.9299 139.868 25.4859 140.133 24.8094L141.26 25.2515C141.021 25.8596 140.665 26.3392 140.19 26.6902C139.716 27.0412 139.167 27.2447 138.543 27.3008C137.92 27.3569 137.267 27.251 136.584 26.9831Z" fill="black"/>
<path d="M147.867 32.2384C147.133 31.8158 146.581 31.2785 146.21 30.6265C145.839 29.9744 145.677 29.2346 145.723 28.4071C145.774 27.5828 146.068 26.7056 146.603 25.7755C147.139 24.8454 147.749 24.1541 148.433 23.7017C149.125 23.2467 149.847 23.016 150.597 23.0094C151.347 23.0029 152.089 23.2109 152.822 23.6334C153.556 24.056 154.108 24.5933 154.479 25.2453C154.85 25.8973 155.009 26.6355 154.958 27.4597C154.909 28.2782 154.617 29.1525 154.082 30.0826C153.546 31.0127 152.935 31.7069 152.248 32.1651C151.561 32.6234 150.842 32.8558 150.092 32.8624C149.342 32.8689 148.6 32.6609 147.867 32.2384ZM148.353 31.3531C148.96 31.7025 149.547 31.8521 150.114 31.8019C150.685 31.746 151.217 31.5175 151.709 31.1165C152.208 30.7187 152.655 30.1762 153.051 29.4887C153.646 28.4546 153.903 27.4946 153.821 26.6087C153.744 25.7262 153.253 25.0237 152.346 24.5013C151.739 24.152 151.15 24.0053 150.58 24.0612C150.018 24.1147 149.486 24.3432 148.985 24.7467C148.492 25.1477 148.048 25.692 147.652 26.3794C147.06 27.4077 146.802 28.3632 146.878 29.2457C146.96 30.1316 147.452 30.8341 148.353 31.3531Z" fill="black"/>
<path d="M167.384 33.9502L168.283 34.6828L162.283 42.0483L161.384 41.3156L167.384 33.9502ZM162.081 29.6302L162.98 30.3628L159.216 34.9837C158.66 35.6659 158.4 36.3227 158.436 36.954C158.482 37.5843 158.82 38.1563 159.45 38.67C159.967 39.0911 160.523 39.3115 161.117 39.3314C161.711 39.3512 162.296 39.2038 162.87 38.8893C163.45 38.5789 163.971 38.1395 164.434 37.5709L164.861 37.9183C164.221 38.7039 163.541 39.2898 162.823 39.676C162.104 40.0622 161.392 40.2344 160.686 40.1928C159.985 40.146 159.329 39.8741 158.719 39.3773C158.151 38.9141 157.746 38.4082 157.505 37.8594C157.27 37.3149 157.211 36.7427 157.33 36.143C157.453 35.5381 157.769 34.923 158.279 34.2975L162.081 29.6302Z" fill="black"/>
<path d="M173.317 39.1492L174.188 40.1278L170.067 48.2671L169.907 48.0878L178.47 44.9385L179.341 45.9171L169.646 49.298L168.834 48.3866L173.317 39.1492Z" fill="black"/>
<path d="M175.694 56.7474L183.517 51.3574L184.175 52.3126L176.352 57.7026L175.694 56.7474ZM179.69 54.8804C180.667 54.2072 181.538 53.7325 182.303 53.4563C183.068 53.1802 183.736 53.1089 184.306 53.2426C184.875 53.3763 185.351 53.7203 185.733 54.2748C185.866 54.467 185.973 54.6521 186.055 54.8302C186.141 55.0138 186.211 55.2088 186.264 55.4151L185.26 55.9491C185.21 55.7483 185.139 55.5386 185.045 55.32C184.956 55.0976 184.863 54.915 184.765 54.7723C184.428 54.2837 184.013 53.9988 183.52 53.9176C183.031 53.8418 182.481 53.9251 181.871 54.1675C181.266 54.406 180.62 54.7617 179.934 55.2345L179.69 54.8804Z" fill="black"/>
<path d="M190.761 58.0323C190.638 57.8181 190.606 57.6064 190.663 57.3972C190.72 57.188 190.85 57.0255 191.052 56.9098C191.249 56.7974 191.444 56.7748 191.635 56.8418C191.833 56.9055 191.993 57.0445 192.115 57.2587C192.244 57.4845 192.284 57.6958 192.235 57.8925C192.192 58.086 192.072 58.239 191.876 58.3514C191.673 58.4671 191.469 58.4993 191.263 58.4479C191.057 58.3966 190.889 58.258 190.761 58.0323ZM180.061 63.4742L188.311 58.7633L188.886 59.7707L180.636 64.4816L180.061 63.4742Z" fill="black"/>
<path d="M183.108 69.12L191.728 65.1278L192.216 66.1805L183.595 70.1726L183.108 69.12ZM187.362 67.9544C188.438 67.4557 189.377 67.1349 190.178 66.9919C190.979 66.8488 191.648 66.8913 192.187 67.1192C192.726 67.3471 193.137 67.7666 193.42 68.3776C193.518 68.5893 193.593 68.7899 193.644 68.9793C193.698 69.1748 193.733 69.3787 193.751 69.591L192.671 69.9479C192.656 69.7417 192.621 69.5229 192.565 69.2915C192.516 69.0574 192.454 68.8617 192.382 68.7044C192.132 68.166 191.771 67.8151 191.299 67.6518C190.829 67.4946 190.274 67.4839 189.631 67.6197C188.995 67.7528 188.299 67.9944 187.542 68.3446L187.362 67.9544Z" fill="black"/>
</svg>
